{"glyphs":{"0":{"ha":765,"x_min":29,"x_max":738,"o":"m 406 4 q 403 6 403 4 l 394 8 q 392 10 394 10 q 378 7 383 7 l 365 7 q 359 8 363 7 q 351 10 356 10 l 349 10 l 342 6 l 339 6 q 331 7 335 7 q 325 8 328 7 l 322 8 l 315 13 l 313 13 q 311 13 311 13 q 310 14 311 14 l 303 18 q 300 19 301 19 q 288 21 292 19 l 285 21 l 276 22 q 271 24 272 22 l 265 28 q 264 28 264 28 q 263 29 264 29 l 254 36 q 253 37 253 36 q 251 38 253 38 q 247 39 250 39 q 244 38 246 39 q 243 38 243 38 q 238 40 240 38 q 235 43 236 42 l 232 47 q 229 50 232 49 q 226 51 228 51 l 219 56 q 217 57 218 57 q 214 57 215 57 q 210 56 213 57 q 206 56 207 56 q 201 57 203 56 q 197 60 200 60 l 194 61 q 190 64 193 63 l 181 74 q 180 75 181 75 q 179 76 179 75 l 176 83 q 175 86 176 86 q 169 89 174 89 l 165 88 q 160 90 163 89 q 158 96 158 93 l 158 100 q 158 103 158 101 q 157 106 158 104 l 150 113 q 149 113 149 113 q 147 114 149 114 q 142 117 146 117 l 136 115 q 131 118 133 117 q 130 119 131 119 q 129 121 129 119 l 126 128 q 125 131 126 131 q 124 132 125 132 q 124 133 124 132 l 122 140 q 121 143 122 143 l 111 153 q 103 163 108 157 q 100 167 101 165 l 100 171 q 97 175 100 174 q 97 176 97 176 q 96 178 96 176 l 90 183 q 90 185 90 185 q 89 186 89 185 q 86 192 86 189 q 85 199 86 196 l 75 208 q 74 213 74 211 l 74 217 q 72 221 74 219 q 72 222 72 222 q 71 224 71 222 l 64 229 q 63 235 63 231 l 61 243 q 60 249 61 247 l 56 254 q 55 256 56 256 q 54 257 54 256 l 50 269 l 50 272 l 51 281 l 51 283 l 40 294 q 40 296 40 296 q 42 300 40 299 l 44 304 q 46 308 46 307 q 46 310 46 310 q 40 315 46 313 q 33 321 35 318 q 35 327 33 324 q 38 333 38 331 q 38 335 38 333 l 38 347 q 35 356 36 351 q 33 360 33 357 l 33 363 q 32 368 33 365 q 29 374 31 371 q 31 376 29 376 l 33 385 q 35 388 35 385 q 33 400 33 392 q 34 406 33 403 q 35 414 35 410 l 35 417 l 32 424 l 32 429 l 33 436 l 33 439 q 32 447 33 443 q 31 453 31 450 l 31 456 l 29 464 l 29 469 l 33 476 l 33 479 l 38 492 q 35 498 38 494 q 33 504 33 501 q 33 506 33 504 q 38 513 33 510 q 43 518 43 515 q 46 531 46 526 q 47 533 47 532 q 46 536 47 535 l 42 539 q 42 543 42 542 q 42 544 42 544 q 47 551 43 549 q 53 556 51 553 q 54 558 54 557 q 53 561 54 560 l 50 565 q 50 569 50 568 q 50 571 50 571 q 53 574 50 571 l 58 578 q 61 581 61 581 q 64 587 64 583 q 65 593 64 590 q 67 597 67 594 q 66 600 67 599 q 65 601 65 601 q 68 607 65 604 l 72 619 q 78 624 75 622 q 82 629 81 626 l 89 640 q 90 644 90 642 q 90 647 90 646 q 89 649 89 649 q 92 654 89 651 q 97 658 93 657 q 104 661 101 658 q 106 665 106 663 q 106 667 106 665 l 104 672 q 106 678 104 676 q 108 679 107 679 l 119 685 q 129 696 122 689 q 131 700 131 697 q 131 701 131 700 l 129 707 q 131 713 129 711 q 133 714 132 714 l 140 718 q 143 719 143 719 l 153 729 q 158 732 156 732 l 161 733 q 167 736 165 735 l 172 744 q 175 747 175 747 q 179 750 178 750 l 183 750 q 188 753 186 751 l 197 763 q 200 765 199 764 l 203 771 q 206 774 204 772 q 210 779 208 776 q 215 783 213 782 l 225 793 l 229 793 l 238 790 l 242 790 q 244 793 242 790 l 249 799 q 251 801 251 801 q 254 803 254 803 l 261 804 q 263 805 263 804 q 264 806 263 806 l 267 806 l 275 807 q 281 808 279 807 l 286 814 q 288 815 288 814 q 289 815 288 815 q 303 818 300 818 q 306 819 306 819 l 313 822 q 314 823 314 822 q 315 824 314 824 q 322 820 318 824 q 329 817 326 817 q 331 817 331 817 q 333 818 333 817 l 340 822 q 343 824 342 824 q 356 825 347 825 q 358 825 357 825 q 364 823 361 825 q 369 821 367 821 l 383 821 q 386 822 386 821 l 393 825 q 396 826 394 826 q 403 824 400 826 q 410 822 407 822 q 416 824 413 822 q 424 825 419 825 q 430 827 426 825 q 438 829 433 829 q 444 826 440 829 q 450 822 447 824 q 456 820 453 822 q 463 817 460 818 q 469 818 465 817 q 474 819 472 819 q 476 819 475 819 q 479 818 479 818 l 486 814 q 488 813 488 814 q 489 813 488 813 l 503 813 l 515 808 q 517 808 517 808 q 518 807 517 807 l 524 803 q 525 802 525 803 q 526 801 525 801 q 539 794 531 800 l 542 794 l 550 793 l 553 793 q 556 792 556 793 l 563 792 q 565 790 564 790 q 569 788 568 789 l 571 783 q 575 781 574 782 q 581 778 578 778 q 582 778 581 778 q 585 779 583 779 q 589 778 588 779 q 592 776 592 776 l 600 775 q 603 774 601 775 q 609 772 606 772 q 615 768 613 771 l 625 758 q 633 749 631 753 q 636 744 636 747 l 636 740 q 639 736 638 739 q 643 733 642 735 l 646 732 q 650 729 649 732 q 654 726 653 728 l 658 724 q 663 721 661 724 l 663 717 l 661 708 l 661 704 q 668 700 664 701 q 674 696 672 699 q 675 693 674 693 l 675 685 q 676 682 676 685 q 679 676 678 679 q 682 669 681 674 q 683 668 683 669 q 682 664 683 667 l 679 661 q 679 658 679 660 q 679 656 679 657 q 684 650 679 653 q 689 643 689 647 q 688 640 689 642 l 683 633 q 682 631 682 633 q 684 624 682 626 q 686 618 686 621 q 686 617 686 618 l 686 614 l 682 607 l 682 601 l 683 593 l 683 590 q 682 588 683 589 l 676 583 q 675 581 676 582 q 674 579 675 579 q 674 578 674 579 l 671 572 q 670 571 671 571 q 669 569 669 571 q 668 565 668 568 l 668 561 q 667 557 668 560 q 664 554 667 557 l 656 547 q 650 544 654 544 q 643 540 646 543 q 643 538 643 539 q 644 532 643 535 q 644 528 644 529 q 643 524 644 525 q 638 521 642 522 l 633 522 q 628 519 631 522 q 625 514 626 518 l 626 511 q 624 506 626 508 q 621 504 622 504 l 614 501 q 611 500 613 501 q 608 496 610 499 l 608 492 q 606 488 608 490 q 603 483 604 486 l 601 481 q 599 476 601 479 q 596 474 597 475 l 590 471 q 588 468 589 469 q 582 465 586 467 l 579 467 q 574 464 576 467 q 571 461 572 463 l 568 456 q 565 453 567 454 q 561 450 564 451 l 557 451 q 553 449 556 451 l 543 439 q 539 435 540 438 q 535 429 538 432 l 522 425 q 521 422 521 424 l 504 406 q 500 403 503 404 l 496 404 q 492 401 494 404 q 489 400 490 401 l 485 396 q 482 394 483 396 q 479 393 481 393 q 474 394 476 393 q 469 396 471 396 q 467 396 468 396 q 444 375 451 386 q 443 371 443 374 q 446 366 443 369 q 450 360 449 363 q 453 355 453 357 q 460 351 453 353 q 463 351 461 351 l 467 350 q 469 350 468 350 q 471 350 471 350 q 476 351 474 350 q 482 354 479 353 q 485 356 483 356 q 486 354 486 356 l 490 353 q 493 353 492 353 q 494 353 494 353 q 497 356 494 353 l 501 361 q 504 364 504 364 q 506 365 506 364 q 507 365 506 365 l 513 368 q 514 369 514 368 q 515 369 514 369 q 517 369 517 369 q 521 368 519 369 l 524 365 q 528 364 526 364 q 529 364 529 364 q 534 369 532 364 q 539 375 536 374 q 543 376 540 376 q 547 376 544 376 q 551 375 549 375 l 554 375 l 561 376 l 567 376 l 574 378 l 579 378 l 586 382 l 592 382 l 599 381 l 604 381 l 611 376 l 617 376 l 624 375 l 626 375 q 628 375 628 375 q 634 377 631 375 q 640 379 638 379 q 644 376 643 378 l 646 372 q 650 369 649 371 l 653 369 l 661 368 l 664 368 q 668 365 667 367 l 671 364 q 675 361 674 364 q 678 358 676 360 l 681 354 q 683 351 682 353 q 686 349 685 350 l 693 339 q 694 336 694 338 l 694 333 q 697 329 696 332 q 704 326 699 326 q 713 324 710 326 q 713 321 713 322 q 712 317 713 319 q 711 313 711 314 q 713 308 711 310 q 718 304 714 306 q 725 300 722 303 l 729 288 q 731 285 731 286 q 727 280 731 283 q 724 274 724 276 q 724 272 724 272 q 728 265 724 268 q 735 260 733 263 l 735 246 q 736 240 735 243 q 738 232 738 236 l 738 218 q 737 217 738 217 q 736 215 736 217 l 733 208 q 732 206 732 207 q 731 199 732 203 q 728 192 729 196 q 726 185 728 189 q 724 179 725 182 q 722 175 722 178 q 723 173 722 174 q 724 172 724 172 q 721 167 724 169 l 721 164 l 719 156 l 719 153 q 717 150 719 153 l 710 142 q 707 139 708 140 l 701 136 q 699 133 700 135 q 697 128 697 132 l 700 122 q 700 121 700 121 q 699 117 700 118 q 693 114 697 115 l 689 114 q 683 111 686 114 l 674 101 q 672 99 672 100 l 665 92 q 661 89 664 90 l 658 88 q 654 85 657 88 q 644 76 649 79 q 643 74 643 75 l 640 65 q 639 63 640 64 q 636 63 638 63 q 632 63 635 63 q 628 64 629 64 q 624 63 625 64 q 619 57 621 61 q 615 50 618 53 q 614 50 615 50 q 610 50 613 50 l 606 53 q 603 54 604 54 q 600 53 601 54 q 594 50 597 51 q 589 46 592 49 l 586 46 l 578 44 l 575 44 l 551 36 q 539 35 547 35 q 535 31 538 33 l 532 25 q 528 21 531 22 q 522 22 525 21 q 518 24 519 24 q 515 22 517 24 q 509 23 511 22 q 506 24 507 24 q 501 22 503 24 q 494 19 497 22 q 488 15 492 17 l 474 15 l 461 11 q 454 13 457 11 q 449 15 451 15 q 446 15 447 15 l 432 15 q 426 12 429 14 q 419 10 422 10 q 412 7 415 10 q 406 4 408 4 m 269 425 q 268 408 268 419 l 271 400 l 271 385 q 270 377 271 381 q 269 371 269 374 q 272 365 269 368 q 276 358 275 361 l 276 328 l 275 319 l 275 317 l 279 304 q 283 298 281 301 q 285 292 285 294 l 285 275 l 286 268 q 288 263 286 264 l 292 256 q 293 253 293 254 l 293 250 l 292 242 l 292 239 q 292 238 292 238 q 293 236 293 238 l 296 229 q 297 226 297 228 q 301 224 299 225 l 306 221 q 310 218 308 221 q 310 217 310 217 q 311 215 311 217 l 314 208 q 315 206 315 207 q 318 199 318 203 q 319 193 318 196 q 321 190 321 192 q 321 188 321 189 l 319 185 q 321 179 319 182 q 327 176 322 176 q 335 172 332 175 q 335 169 335 171 q 333 165 335 168 q 332 160 332 161 q 333 156 332 157 l 340 149 q 341 147 340 147 q 342 146 342 147 q 347 143 344 144 l 351 143 q 357 140 356 143 q 358 138 358 140 l 361 132 q 362 131 361 131 q 363 129 363 131 q 365 125 365 128 l 367 121 q 369 117 368 119 q 382 111 374 114 q 385 110 385 110 l 392 107 q 394 106 393 107 q 396 105 396 106 q 397 104 396 104 l 403 100 q 404 99 404 100 q 406 99 404 99 q 411 96 408 96 q 413 97 411 96 q 415 97 414 97 q 419 96 418 97 q 435 90 424 93 q 442 92 439 90 q 450 96 446 94 q 464 97 460 96 q 465 98 465 97 q 467 99 465 99 l 472 104 q 475 106 474 106 q 478 107 476 106 l 486 107 q 489 108 486 108 l 496 115 q 499 117 499 117 l 507 124 q 508 124 508 124 q 510 125 508 125 q 514 128 513 128 l 518 129 q 522 132 521 131 q 524 136 524 133 q 524 138 524 136 l 522 142 q 524 147 522 146 q 529 150 526 150 l 533 153 q 539 156 538 154 q 539 157 539 157 q 538 161 539 160 l 535 165 q 533 169 533 168 q 533 171 533 171 q 538 176 533 174 q 542 183 542 179 q 543 197 543 188 q 544 200 544 199 q 543 204 544 201 q 542 210 542 207 q 540 217 542 214 q 538 224 539 221 q 539 231 538 226 q 540 236 540 235 q 540 239 540 238 q 539 242 539 242 l 535 249 q 533 251 535 250 l 525 264 q 522 265 525 265 l 515 269 q 514 270 514 269 q 513 271 514 271 q 500 278 504 276 l 497 278 l 490 279 l 485 279 l 478 281 l 475 281 q 469 284 472 282 q 464 286 467 286 q 460 288 463 288 l 457 288 q 453 289 456 288 q 451 289 453 289 l 443 282 q 442 282 443 282 q 440 282 440 282 q 433 285 436 282 q 425 289 429 289 l 411 289 q 408 290 410 290 q 404 289 407 290 l 400 285 q 396 285 399 285 q 393 285 394 285 q 388 290 390 286 q 383 297 386 294 q 381 297 382 297 q 376 297 379 297 q 372 296 374 296 q 368 297 369 296 q 365 303 367 300 l 367 307 q 364 313 367 311 q 360 318 361 315 q 357 324 358 321 q 353 329 356 326 q 350 336 351 332 l 350 350 q 353 356 350 353 q 357 363 356 358 q 358 367 358 365 l 358 369 q 360 374 358 372 q 361 378 361 376 l 360 382 q 361 386 360 385 q 365 389 363 389 l 368 390 q 372 393 371 392 q 374 397 374 394 q 373 401 374 399 q 372 406 372 404 q 372 408 372 407 q 375 410 374 410 l 382 414 q 385 415 385 415 l 392 424 q 392 425 392 425 q 393 426 393 425 q 394 429 394 428 q 393 432 394 431 l 392 436 q 392 440 392 439 q 392 442 392 442 l 400 449 q 403 451 403 451 q 411 461 406 456 q 416 465 413 464 q 422 469 419 467 q 424 472 424 472 l 426 479 q 431 485 426 483 l 436 488 q 439 490 439 490 q 440 493 440 492 l 444 497 q 446 500 446 500 q 449 506 449 503 q 448 507 449 506 q 447 510 447 508 q 449 514 447 513 q 450 517 450 515 q 450 518 450 518 l 450 522 q 451 526 450 525 q 453 539 453 531 q 460 543 454 542 q 465 547 465 544 q 467 550 467 549 q 465 553 467 551 l 463 556 q 463 560 463 558 q 463 561 463 561 q 464 567 463 564 q 467 574 465 571 q 468 580 467 576 q 471 588 469 583 q 469 590 471 590 l 467 599 q 465 601 465 599 l 465 615 q 465 623 465 619 q 464 629 464 626 q 464 631 464 631 q 467 638 464 635 q 471 643 471 640 q 471 644 471 644 q 471 646 471 646 l 464 654 q 464 656 464 656 q 463 658 464 658 l 463 665 q 461 668 461 667 l 461 671 l 463 679 l 463 682 q 458 693 461 685 q 456 696 457 696 l 451 699 q 449 701 450 700 q 446 706 447 704 l 447 710 q 444 714 447 713 q 438 720 443 715 q 431 725 433 725 l 422 726 q 419 728 421 728 q 414 733 417 731 q 408 736 411 736 q 401 740 406 738 q 394 742 397 742 q 392 741 393 742 q 390 740 392 740 l 385 735 q 383 734 383 735 q 381 733 382 733 q 376 732 379 732 q 374 733 375 732 q 372 733 372 733 q 367 731 369 733 q 364 728 367 731 l 357 719 q 347 710 353 714 l 328 690 q 326 688 326 688 l 324 679 q 322 676 324 678 q 321 674 321 674 l 319 665 q 315 660 319 663 l 307 653 q 306 649 306 651 q 306 646 306 647 q 307 644 307 644 q 304 639 307 642 l 304 636 l 303 628 l 303 625 q 301 622 303 622 l 301 614 q 300 611 300 613 q 299 608 300 610 l 290 589 q 289 586 289 588 q 285 581 289 583 q 281 575 282 578 q 281 572 281 574 q 281 569 281 571 l 282 565 q 283 563 283 564 q 282 560 283 561 l 282 557 l 283 549 l 283 546 q 278 540 283 543 q 274 533 274 538 q 274 532 274 533 q 274 528 274 531 l 278 525 q 279 522 279 524 q 278 519 279 521 q 276 513 278 517 q 275 506 275 510 q 274 501 274 504 q 274 498 274 500 q 275 492 275 496 q 274 489 275 490 l 269 482 q 268 479 268 482 q 272 473 268 476 q 275 467 275 469 q 275 465 275 467 q 272 459 275 463 q 267 451 268 456 q 269 446 267 449 q 272 440 272 443 q 272 438 272 439 l 272 435 l 269 428 l 269 425 z "},"1":{"ha":454,"x_min":24,"x_max":425,"o":"m 24 13 q 32 21 26 19 q 35 26 35 22 q 39 32 36 29 l 46 39 q 49 40 49 40 q 51 42 50 42 l 58 44 q 61 46 61 46 q 64 50 64 49 l 65 53 q 68 57 67 56 l 72 69 q 74 72 74 72 l 76 79 q 77 81 76 81 q 78 82 78 81 q 79 86 79 83 q 78 90 79 88 q 78 94 78 92 l 82 107 l 82 136 l 86 143 l 86 149 l 85 157 l 85 163 l 88 169 l 88 172 q 84 180 88 176 q 81 186 81 183 l 81 200 q 83 204 81 203 l 88 208 q 90 213 90 211 q 88 220 90 217 q 86 226 86 224 l 86 240 q 88 243 86 243 l 90 250 q 92 253 92 251 q 90 260 92 257 q 88 267 88 264 q 90 273 88 269 q 93 281 93 276 l 93 283 l 92 290 l 92 293 q 93 301 92 297 q 94 307 94 304 l 94 310 l 92 318 l 92 324 l 88 331 l 88 333 q 88 341 88 338 q 89 347 89 344 q 90 353 89 350 q 92 361 92 357 q 90 364 92 364 l 88 371 q 86 374 86 372 q 87 381 86 378 q 88 388 88 385 l 88 401 q 89 404 88 404 l 92 411 q 93 414 93 413 l 93 428 q 94 434 93 431 q 94 442 94 438 l 94 444 l 93 451 l 93 457 l 92 465 l 92 468 q 92 474 92 471 q 93 482 93 478 l 93 485 l 90 492 l 90 494 q 92 497 90 497 l 94 506 q 96 508 96 506 q 92 515 96 511 q 89 522 89 518 q 90 525 89 525 l 93 532 q 94 535 94 533 l 94 538 l 92 546 l 92 549 q 89 555 90 551 q 88 563 88 558 q 89 565 88 565 l 93 572 q 94 575 94 574 q 92 583 94 579 q 90 589 90 586 q 89 604 89 594 q 91 610 89 607 q 93 618 93 614 l 93 621 l 92 629 l 92 646 q 90 650 90 647 q 91 654 90 651 q 92 660 92 657 q 89 674 92 665 q 86 688 89 679 q 81 693 86 690 q 75 699 76 696 q 76 704 75 701 q 78 708 78 707 q 76 711 78 710 l 72 724 l 72 739 q 71 742 72 740 l 65 746 q 64 749 65 747 l 60 761 q 59 763 60 763 q 58 764 58 763 l 51 772 q 46 776 50 775 q 39 779 42 776 q 31 789 33 785 q 31 792 31 790 q 31 795 31 793 q 32 799 32 797 q 31 801 32 800 l 44 801 l 51 797 l 71 797 l 78 799 l 97 799 l 104 800 l 107 800 q 115 801 111 800 q 121 803 118 803 l 124 803 l 132 800 l 138 800 l 144 803 l 147 803 q 154 804 151 803 q 158 806 157 806 q 161 806 160 806 q 169 806 164 806 q 178 804 175 806 l 185 800 l 188 800 q 194 802 190 800 q 201 804 197 804 l 204 804 l 211 803 l 217 803 l 225 799 l 231 799 l 238 803 l 240 803 q 248 799 244 803 q 254 796 251 796 q 260 798 257 796 q 268 800 264 800 l 271 800 l 278 797 l 281 797 q 287 799 283 797 q 294 801 290 801 q 301 797 297 800 q 307 793 304 793 q 310 794 310 793 l 318 799 q 321 800 318 800 l 324 800 l 331 803 l 333 803 q 341 800 338 803 q 347 797 344 797 q 353 800 350 797 q 361 803 357 803 q 365 800 364 803 l 369 796 q 374 793 372 793 q 380 794 376 793 q 388 796 383 796 l 403 796 l 411 800 l 414 800 q 419 798 417 800 q 425 796 421 796 q 424 792 424 794 l 424 788 q 424 786 424 788 q 422 783 424 785 q 419 782 421 782 l 413 779 q 410 778 411 779 q 407 772 407 775 q 406 765 407 768 q 401 760 403 763 q 397 756 399 758 q 396 751 396 754 l 397 747 q 396 743 397 746 q 395 742 396 742 q 394 740 394 742 l 390 735 q 390 733 390 733 q 389 732 389 733 q 388 719 388 728 q 384 714 386 717 q 382 708 382 711 q 379 702 381 706 q 378 696 378 699 q 380 690 378 693 q 382 685 382 688 q 382 683 382 685 q 381 681 382 682 l 375 674 q 374 671 374 674 l 374 668 l 375 661 l 375 658 q 377 651 375 654 q 379 644 379 647 q 376 638 379 642 q 374 631 374 635 l 374 628 l 376 621 l 376 618 q 374 612 376 615 q 371 604 371 608 l 371 601 l 374 594 q 375 589 374 593 l 379 569 q 379 564 379 565 l 379 561 l 378 554 l 378 551 q 374 545 378 549 q 369 538 369 542 q 372 533 369 536 l 376 529 q 379 525 379 528 l 379 511 q 378 508 379 510 l 375 501 q 374 499 374 501 q 374 491 374 494 q 375 485 375 488 q 374 472 375 476 q 372 465 374 468 q 369 458 369 461 q 374 452 369 456 q 378 444 378 449 q 375 440 378 443 l 371 436 q 368 432 368 435 l 368 418 q 367 406 367 414 l 367 403 l 371 394 l 371 379 q 369 372 371 375 q 368 365 368 368 q 372 359 368 363 q 375 351 375 356 l 375 339 q 372 332 375 336 q 368 325 369 328 q 369 322 368 324 l 374 315 q 375 313 375 315 q 374 310 375 310 l 369 301 q 368 299 368 301 l 368 296 l 367 289 l 367 286 q 367 283 367 285 l 365 278 q 365 275 365 276 l 365 269 q 365 267 365 268 l 364 261 q 364 258 364 260 l 364 256 l 365 249 l 365 243 l 369 235 l 369 232 q 371 226 369 229 q 374 219 372 222 l 374 217 l 371 208 l 371 203 l 374 196 l 374 193 q 370 185 374 189 q 367 179 367 182 q 369 171 368 175 q 372 163 372 165 l 375 156 q 376 153 376 156 q 373 144 376 149 q 369 138 369 140 q 371 133 371 136 q 370 129 371 132 q 369 124 369 126 q 372 116 371 119 q 375 110 374 113 l 379 96 q 385 83 379 92 q 390 69 388 75 q 391 68 390 68 q 392 67 392 68 l 396 61 q 397 60 396 60 q 397 58 397 60 q 404 49 403 50 q 406 42 406 46 q 408 36 406 39 q 410 35 410 36 q 411 35 410 35 l 419 33 q 422 32 422 33 q 425 28 425 29 q 413 21 425 22 q 408 17 411 21 l 404 14 q 397 10 403 10 l 389 13 l 383 13 l 375 14 l 369 14 l 363 17 l 360 17 q 352 15 356 17 q 346 13 349 13 l 343 13 l 335 10 l 332 10 q 326 11 329 10 q 318 13 322 13 l 315 13 l 308 10 l 303 10 l 294 11 q 284 13 292 11 q 275 15 276 14 l 268 18 q 265 19 268 19 q 258 15 261 19 q 251 10 254 10 q 245 11 249 10 q 238 13 242 13 l 235 13 l 228 10 l 225 10 q 217 14 221 10 q 211 18 214 18 l 208 18 l 200 15 l 194 15 l 186 13 q 181 11 183 11 q 171 11 175 11 q 168 13 168 11 l 160 18 q 157 19 160 19 q 151 15 154 19 q 143 10 147 10 l 131 10 q 128 11 128 10 l 119 14 q 117 15 119 15 l 88 15 l 81 18 l 78 18 q 75 17 76 18 l 68 14 q 65 13 68 13 l 63 13 l 56 10 l 36 10 l 28 13 l 24 13 z "},"2":{"ha":643,"x_min":32,"x_max":611,"o":"m 50 399 q 47 404 49 401 l 49 407 q 46 413 49 411 q 51 416 49 414 q 56 421 53 418 q 63 429 61 424 q 67 433 65 432 q 71 438 69 435 q 74 449 74 446 q 76 461 76 457 q 79 467 78 464 q 81 474 81 471 q 77 481 79 478 q 74 488 75 485 q 76 494 74 490 q 79 500 79 497 q 79 501 79 500 q 76 506 79 504 l 71 508 q 68 513 68 511 l 68 515 l 67 524 l 67 540 q 68 547 67 543 q 69 551 69 550 q 68 556 69 554 q 64 561 67 558 q 60 568 61 564 q 60 571 60 569 q 60 576 60 574 q 61 582 61 579 q 57 590 60 586 q 54 596 54 593 l 54 599 l 56 607 l 56 610 q 56 616 56 613 q 57 624 57 619 l 57 636 q 58 642 57 639 l 61 644 q 63 650 63 647 q 63 651 63 651 q 61 656 63 654 l 57 660 q 56 664 56 663 q 56 665 56 665 q 60 669 57 668 l 65 671 q 69 675 68 674 l 69 690 q 71 693 71 693 l 74 700 q 74 701 74 701 q 75 703 75 701 q 81 707 78 706 q 86 711 85 708 q 88 715 88 713 q 88 717 88 715 l 86 721 q 88 726 86 725 q 90 731 90 729 l 92 735 q 94 739 93 738 q 97 742 96 740 l 103 744 q 106 747 104 746 q 108 750 107 749 l 113 756 q 115 758 114 757 q 119 761 118 761 l 124 761 q 128 764 126 763 l 136 771 q 138 772 138 771 q 139 772 138 772 q 140 773 140 772 q 142 774 140 774 l 146 781 q 147 781 147 781 q 149 782 147 782 q 151 783 151 783 l 158 788 q 160 788 160 788 q 161 789 160 789 l 164 789 l 172 788 l 175 788 q 180 794 178 790 q 185 799 182 797 l 188 799 l 196 800 q 201 801 200 800 l 207 806 q 208 806 208 806 q 210 807 208 807 q 213 807 211 807 q 217 806 214 807 q 224 804 221 804 q 229 810 226 806 q 235 815 232 815 q 241 817 238 817 q 249 818 244 817 q 255 819 251 818 q 261 822 258 821 q 266 822 264 822 q 269 821 268 821 q 274 822 272 821 l 276 822 l 285 824 l 288 824 q 290 825 289 825 q 292 824 292 825 l 296 821 q 299 821 297 821 q 300 821 300 821 q 308 818 304 821 q 314 815 311 815 l 317 815 l 324 818 l 329 818 l 336 815 l 339 815 q 347 816 343 815 q 353 817 350 817 l 356 817 l 363 818 l 365 818 q 373 819 369 818 q 379 821 376 821 q 382 818 379 821 l 388 811 q 390 808 390 808 q 403 806 394 808 q 408 806 406 806 q 413 807 411 807 q 417 806 415 807 q 419 804 419 806 l 426 804 q 429 803 428 803 q 431 803 431 803 l 438 797 q 439 797 439 797 q 440 796 439 796 l 453 792 l 457 792 l 464 793 l 468 793 q 469 792 469 793 q 471 792 469 792 l 479 785 q 492 779 488 782 q 493 776 493 779 l 496 768 q 500 764 496 764 l 508 757 q 514 756 511 756 l 519 758 q 522 758 521 758 q 525 757 524 758 q 526 754 526 756 q 526 751 526 753 l 526 746 q 528 740 526 743 q 529 740 529 740 q 531 739 529 739 l 536 735 q 539 733 539 735 q 544 731 542 732 l 547 731 q 553 728 551 731 l 563 718 q 565 712 565 715 q 567 706 565 708 q 575 694 569 703 q 575 692 575 693 q 574 688 575 690 q 574 685 574 686 q 575 681 574 682 q 576 679 575 679 q 576 678 576 679 l 582 672 q 583 671 582 671 q 583 669 583 671 q 589 658 585 664 q 590 656 589 656 l 590 647 q 592 644 592 647 q 593 642 592 643 l 593 635 q 594 632 594 635 q 600 626 596 629 q 604 621 604 624 q 604 619 604 619 q 601 613 604 617 q 599 607 599 610 q 600 604 599 606 l 600 597 q 601 594 601 597 q 606 588 601 590 q 610 582 610 585 q 605 574 610 578 q 600 568 600 571 q 604 564 600 567 l 607 560 q 611 556 611 558 q 608 553 611 556 l 603 546 q 600 543 600 546 q 601 538 600 540 q 603 533 603 535 q 601 531 603 532 q 603 525 601 528 q 604 519 604 522 q 603 517 604 518 l 599 504 q 592 501 597 501 q 583 497 586 500 q 583 496 583 497 q 583 492 583 494 l 588 486 q 589 483 589 485 q 588 481 589 482 q 582 478 586 479 l 578 476 q 572 474 575 476 q 572 471 572 472 q 573 467 572 469 q 574 463 574 464 q 572 458 574 460 q 569 457 571 457 l 563 453 q 558 449 558 453 l 557 442 q 556 439 557 440 q 553 438 554 439 q 551 438 553 438 l 544 436 q 540 435 542 436 q 538 433 539 433 l 533 429 q 531 428 532 429 q 528 425 529 426 l 522 422 q 519 419 521 421 q 518 417 518 418 l 511 408 q 508 401 508 406 q 504 396 507 397 q 501 393 504 396 l 493 386 q 488 385 492 385 l 483 388 q 482 388 482 388 q 478 386 479 388 q 476 385 476 386 q 475 385 476 385 l 468 381 q 465 379 467 381 q 460 374 463 376 q 456 369 458 371 q 444 361 453 367 q 443 360 443 361 q 442 360 443 360 l 436 356 q 435 355 435 356 q 433 354 435 354 q 431 354 432 354 q 426 354 428 354 q 422 354 424 354 q 418 353 419 354 l 415 353 l 407 351 q 401 350 403 351 l 396 344 q 394 344 394 344 q 393 343 394 343 q 387 342 390 342 q 379 340 383 342 q 375 333 376 339 q 369 326 374 328 l 356 326 q 349 325 353 325 q 342 324 346 325 l 329 319 l 315 319 q 314 319 314 319 q 313 318 314 318 l 307 314 q 306 313 306 314 q 304 313 306 313 q 303 312 303 313 q 301 311 303 311 l 294 307 q 289 306 293 306 l 281 304 q 275 303 276 304 l 269 297 q 268 297 268 297 q 267 296 268 296 q 261 293 264 293 q 260 294 261 293 q 257 294 258 294 q 253 293 254 294 q 251 292 251 293 q 250 292 251 292 l 242 285 l 229 281 q 227 280 228 281 q 225 279 226 279 l 218 278 q 214 276 215 278 q 211 271 213 275 l 211 267 q 208 261 211 264 q 203 254 206 260 q 197 251 200 251 q 193 247 194 250 q 193 244 193 246 q 197 236 193 240 q 203 231 199 232 q 210 231 207 231 l 218 233 q 225 235 221 235 q 233 235 229 235 q 236 233 236 235 l 244 228 q 247 226 244 226 l 260 226 q 263 228 263 226 l 271 232 q 274 233 271 233 q 286 235 282 233 q 294 236 290 235 q 300 238 297 238 q 309 237 303 238 q 317 235 315 236 l 324 232 q 326 231 325 231 q 333 234 329 231 q 340 238 336 238 l 356 238 l 364 235 l 369 235 l 376 231 q 385 229 379 229 l 407 229 q 421 231 415 229 q 427 235 424 231 q 435 240 431 240 q 438 239 438 240 l 446 232 q 449 231 446 231 q 456 235 453 231 q 463 239 460 239 q 468 238 465 239 q 472 238 471 238 q 476 239 475 238 q 482 238 479 239 l 486 233 q 492 232 489 232 q 498 235 494 232 q 506 239 501 239 l 508 239 l 515 240 l 518 240 q 524 244 521 242 q 531 246 528 246 l 533 246 l 542 247 l 544 247 l 564 265 q 568 268 567 268 l 572 269 q 576 272 575 271 q 592 282 582 281 q 592 279 592 281 q 590 269 592 275 l 590 267 l 586 263 l 586 257 l 588 249 l 588 243 l 590 235 q 590 227 590 231 q 588 219 589 224 q 587 213 588 217 q 586 206 586 210 q 585 193 585 201 q 585 190 585 192 q 585 185 585 189 q 586 179 586 182 q 585 167 585 175 q 582 159 583 163 q 579 153 581 156 q 581 147 579 150 q 582 143 582 144 q 581 140 582 142 q 581 134 581 136 q 582 131 582 132 q 581 126 582 128 q 578 114 581 122 q 573 107 578 110 q 568 101 568 104 q 571 95 568 99 q 574 89 574 92 q 574 88 574 89 q 574 80 574 83 q 575 74 575 76 q 569 68 574 71 q 563 61 564 65 l 563 58 l 565 51 l 565 49 q 565 41 565 44 q 564 35 564 38 l 564 32 l 568 24 l 568 21 q 565 18 568 21 l 560 11 q 557 8 557 11 q 557 -3 557 -3 q 556 -3 557 -3 q 546 1 553 -3 q 533 7 542 4 q 529 8 532 8 q 526 8 528 8 q 524 8 525 8 q 521 8 522 8 q 517 13 519 10 l 515 17 q 511 21 514 19 q 510 22 511 22 q 506 21 508 22 l 503 18 q 500 18 501 18 q 497 18 499 18 l 494 18 l 488 21 l 485 21 q 483 21 483 21 q 478 19 481 21 q 472 17 475 17 l 460 17 q 457 18 457 17 l 449 24 q 446 25 449 25 q 437 24 443 25 q 429 22 431 24 l 422 19 q 419 18 422 18 l 417 18 l 408 19 l 397 19 q 389 21 392 19 l 382 25 l 379 25 q 372 22 375 25 q 367 19 369 21 l 364 19 q 360 17 361 19 q 351 14 356 14 l 349 14 l 342 17 l 339 17 q 331 21 335 17 q 325 25 328 25 q 322 24 322 25 l 314 21 q 304 19 311 19 q 294 18 297 18 l 288 14 l 285 14 q 282 15 282 14 l 274 18 q 271 19 274 19 q 265 18 268 19 q 257 17 261 17 q 254 18 256 17 l 247 21 q 244 22 247 22 q 237 20 240 22 q 231 18 233 18 l 228 18 l 219 21 l 214 21 l 207 25 l 204 25 q 197 19 200 25 q 190 14 193 14 q 183 17 188 15 q 176 18 179 18 q 170 17 174 18 q 163 15 167 15 q 160 17 161 15 l 153 19 q 150 21 153 21 q 142 19 146 21 q 136 17 139 17 q 133 18 135 17 l 126 24 q 124 25 126 25 q 113 24 119 24 q 107 22 110 24 q 103 21 104 21 q 100 21 101 21 q 96 24 97 22 q 92 29 94 26 q 89 31 92 31 l 85 35 q 83 35 83 35 q 82 36 83 36 q 79 38 82 38 l 74 40 q 72 41 72 40 q 71 42 72 42 q 57 64 63 50 q 50 75 51 72 q 44 81 47 78 q 40 86 42 83 q 40 89 40 88 q 40 92 40 90 l 44 96 q 46 100 46 99 q 44 101 46 101 q 40 107 43 104 q 38 114 38 110 q 38 117 38 115 q 39 121 38 118 q 40 126 40 124 q 40 131 40 129 q 41 134 40 132 q 42 138 42 136 q 40 140 42 139 q 39 143 40 143 l 33 150 q 32 153 32 151 q 33 156 32 156 l 38 163 q 39 165 39 164 q 40 171 40 168 q 40 172 40 171 q 39 174 39 174 q 40 178 39 176 q 42 190 40 188 l 42 194 l 40 201 l 40 206 q 41 207 40 207 q 42 208 42 207 l 46 214 q 47 215 46 215 q 47 217 47 215 q 49 223 49 219 q 51 229 49 226 q 56 233 53 232 q 63 238 60 235 q 66 242 64 240 q 71 247 68 244 q 72 250 72 249 l 76 258 q 79 263 79 261 l 79 267 q 82 271 81 269 q 88 274 85 274 l 90 274 q 96 276 94 275 q 99 278 97 278 l 106 281 q 108 282 108 282 l 117 289 q 118 290 118 289 q 119 290 118 290 l 126 297 q 129 299 129 299 l 135 307 q 140 311 138 311 l 149 313 q 151 314 150 314 q 161 322 157 319 q 164 324 164 324 l 171 326 q 172 327 172 326 q 174 328 172 328 q 178 333 176 329 q 182 339 179 336 l 194 343 q 199 346 197 346 l 201 347 q 206 350 204 349 q 210 354 208 351 q 214 360 211 357 l 217 360 l 225 361 l 228 361 l 238 371 q 242 374 240 374 l 244 374 q 249 376 247 375 q 258 385 254 382 q 263 388 261 388 l 265 389 q 269 392 268 390 q 272 393 271 393 l 281 397 q 283 403 283 400 l 283 406 q 286 411 285 410 q 292 414 289 414 l 294 413 q 300 415 299 414 q 306 422 301 417 q 310 429 310 426 l 311 438 q 315 440 313 439 l 321 444 q 324 446 324 446 q 326 451 326 449 l 325 454 q 328 460 326 458 l 336 465 q 339 468 339 468 q 340 471 340 469 l 351 490 q 358 494 354 493 q 363 499 361 496 q 364 503 364 500 q 364 504 364 503 l 361 508 q 363 514 361 513 q 366 519 364 517 q 371 524 368 521 q 372 526 371 526 l 372 533 q 374 536 374 535 q 374 538 374 538 l 379 544 q 380 546 379 546 q 381 547 381 546 l 385 560 l 385 574 q 386 576 386 576 l 389 583 q 390 585 389 585 q 390 586 390 585 q 392 592 390 589 q 394 600 394 596 q 393 606 394 603 q 392 614 392 610 l 392 628 q 390 634 392 631 q 386 640 388 638 q 385 643 385 643 l 382 650 q 381 651 382 651 q 381 653 381 651 q 376 667 379 658 q 372 672 375 669 q 367 676 369 674 q 364 682 365 679 l 364 685 q 361 690 364 689 q 358 692 361 692 l 351 694 q 350 695 350 694 q 349 696 350 696 l 340 703 q 338 706 338 706 q 336 706 336 706 q 335 707 336 707 l 328 710 q 325 711 326 711 q 322 711 324 711 q 317 710 321 711 q 311 708 314 708 q 297 710 307 710 q 294 711 294 710 l 286 714 q 283 715 286 715 q 280 709 281 714 q 276 701 279 704 q 269 694 272 699 q 263 683 267 692 q 258 672 258 675 q 262 667 260 669 q 267 661 264 664 q 268 658 268 660 q 267 656 268 657 q 267 653 267 654 q 268 649 267 650 q 269 642 269 646 q 272 636 269 639 q 273 635 272 635 q 274 633 274 635 l 278 628 q 278 626 278 626 q 279 625 279 626 q 282 622 279 625 l 288 618 q 290 615 290 615 q 292 611 292 614 q 292 608 292 610 q 292 604 292 607 q 292 601 292 603 q 293 599 293 600 l 297 593 q 299 590 299 592 q 300 589 300 590 q 299 585 300 588 l 296 582 q 296 579 296 581 q 296 576 296 578 q 301 571 296 574 q 307 564 306 568 q 304 558 307 561 q 301 550 301 554 l 301 547 l 300 540 l 300 535 l 297 528 l 297 525 q 297 524 297 524 q 300 517 297 521 q 303 511 303 514 q 301 507 301 510 q 302 505 301 506 q 303 503 303 504 q 301 497 303 500 q 299 494 301 497 l 293 490 q 290 488 290 488 q 290 486 290 486 q 292 481 290 483 q 293 476 293 479 q 292 474 293 475 q 291 472 292 472 q 290 471 290 472 l 288 464 q 286 461 286 463 q 285 460 286 460 q 285 458 285 460 l 281 453 q 280 451 281 451 q 279 450 279 451 q 278 447 278 449 l 271 440 q 268 435 269 439 l 269 432 q 267 426 269 429 q 264 422 265 425 l 263 418 q 260 414 263 417 q 256 411 258 413 l 251 410 q 247 407 250 410 q 242 404 246 406 l 239 406 q 233 403 236 406 q 222 397 231 400 l 206 379 q 203 376 203 376 l 190 372 q 188 371 188 372 l 179 371 q 176 369 179 369 q 175 369 176 369 q 171 369 174 369 l 168 372 q 165 374 167 374 q 163 372 164 374 q 160 371 161 372 l 153 365 q 150 364 153 364 q 149 364 149 364 q 143 366 146 364 q 138 368 140 368 q 130 366 133 368 q 124 364 126 364 q 96 369 107 367 q 93 372 96 369 l 89 378 q 86 381 86 381 q 82 382 85 382 l 78 382 q 74 383 76 382 q 71 385 71 385 l 63 388 q 60 389 61 389 l 50 399 z "},"3":{"ha":658,"x_min":32,"x_max":625,"o":"m 43 360 l 32 364 q 35 367 33 365 l 40 369 q 43 372 42 371 q 46 378 46 375 l 47 381 q 50 386 49 385 q 63 393 58 392 q 69 396 65 396 q 75 397 72 396 q 76 398 76 397 q 78 399 76 399 l 83 401 q 85 402 85 401 q 86 403 85 403 l 100 403 q 105 406 103 403 q 110 410 107 408 q 106 413 108 410 l 103 415 q 99 418 101 418 l 96 418 l 88 419 l 85 419 q 82 421 83 421 q 78 420 81 421 q 75 419 76 419 q 71 421 72 419 q 67 425 68 422 q 63 431 65 428 q 57 433 60 432 q 51 438 54 435 q 49 439 51 439 l 42 440 q 40 441 40 440 q 39 442 40 442 q 38 444 38 444 l 36 453 q 35 456 36 454 q 35 456 35 456 q 33 457 33 456 q 33 457 33 457 q 35 456 33 457 q 36 456 35 456 q 40 458 39 458 l 43 460 q 47 463 46 461 q 54 472 50 464 q 60 483 58 479 q 61 493 61 486 q 63 496 61 496 l 65 503 q 68 511 67 504 q 69 519 69 518 q 64 525 68 522 q 60 532 60 528 l 60 535 l 58 542 l 58 547 l 60 556 l 60 558 l 56 571 q 54 574 56 574 l 54 581 q 53 583 53 582 q 51 586 53 585 l 46 592 q 45 593 46 593 q 44 594 44 593 l 40 607 q 41 613 40 610 q 42 617 42 615 q 40 621 42 619 l 40 624 l 42 632 l 42 635 q 40 649 40 639 q 42 654 40 651 q 46 660 44 657 l 46 663 l 47 671 l 47 676 l 49 683 l 49 686 q 51 690 50 689 l 56 692 q 58 696 57 694 q 60 699 60 697 q 59 703 60 701 q 58 706 58 704 q 60 710 58 708 q 67 721 63 717 q 72 724 68 724 q 79 728 76 725 q 81 731 81 729 l 85 735 q 86 738 86 738 q 89 743 89 740 l 88 746 q 90 751 89 750 l 100 761 q 106 763 101 763 l 108 763 q 114 764 113 763 q 117 771 117 767 q 121 776 118 775 l 132 783 q 135 785 135 785 l 142 788 q 144 789 143 789 q 147 790 146 789 l 156 790 q 158 792 156 792 q 164 794 161 794 q 165 794 164 794 q 168 793 167 793 q 172 794 171 793 q 174 795 174 794 q 175 796 174 796 l 181 803 l 193 808 q 210 814 199 811 q 217 810 213 814 q 224 806 221 806 q 225 806 225 806 q 228 807 228 806 l 235 810 q 238 811 236 811 l 251 811 q 258 814 254 811 q 265 817 261 817 q 267 817 267 817 q 272 815 269 817 q 276 813 274 813 q 279 813 278 813 q 282 814 282 813 l 289 819 q 292 821 290 821 q 296 822 293 822 q 300 822 297 822 q 306 821 303 821 q 308 819 308 821 l 315 815 q 318 814 317 814 l 332 814 q 338 819 335 814 q 344 824 342 824 q 346 824 344 824 q 351 819 349 824 q 358 814 354 814 q 361 813 361 814 l 368 813 q 371 811 369 811 q 377 815 374 811 q 383 818 381 818 q 385 818 385 818 q 390 813 388 818 q 396 807 393 808 q 399 807 397 807 q 404 809 401 807 q 410 811 407 811 q 411 811 410 811 q 413 810 413 811 q 414 810 413 810 l 419 806 q 421 805 421 806 q 422 804 421 804 q 428 806 425 804 q 433 807 432 807 q 436 806 435 807 q 442 803 439 806 q 449 799 446 800 q 460 794 457 796 q 463 793 463 793 l 469 789 q 475 788 471 788 l 482 786 l 485 786 q 488 783 485 786 l 507 771 q 513 769 510 769 l 515 771 q 518 771 517 771 q 521 769 519 771 q 525 764 524 768 q 529 757 526 760 q 533 752 532 756 q 536 746 533 749 q 540 743 539 744 l 543 742 q 547 739 546 742 l 565 721 q 572 711 569 717 q 578 706 575 708 q 582 701 581 704 q 585 696 585 699 q 584 694 585 696 q 583 692 583 693 q 585 688 583 689 q 590 676 588 685 q 599 673 593 674 q 606 669 604 672 q 607 668 607 669 q 606 664 607 667 l 603 660 q 603 657 603 658 q 603 654 603 656 q 603 653 603 653 q 604 651 604 653 l 608 644 q 610 639 610 643 l 611 632 q 613 615 611 621 l 613 613 l 614 606 l 614 603 q 614 601 614 601 q 612 596 614 599 q 608 590 610 593 q 611 584 608 588 q 614 578 614 581 q 614 576 614 578 q 613 561 614 567 q 610 546 613 554 q 603 540 608 542 q 594 536 597 539 q 593 531 593 535 l 594 526 q 594 525 594 525 q 593 521 594 522 q 590 518 592 519 l 585 515 q 582 513 583 514 l 564 494 q 561 489 563 493 l 561 486 q 558 481 561 483 q 547 472 556 478 q 544 471 546 471 l 538 464 l 526 457 q 525 456 525 457 q 524 456 525 456 l 504 440 l 490 433 l 482 432 q 479 431 481 432 q 476 429 478 431 l 472 424 q 469 422 471 424 l 458 418 l 446 418 q 453 415 450 417 q 458 413 456 414 q 461 411 461 413 l 469 411 q 472 410 469 410 l 476 410 l 483 408 l 488 408 q 493 405 490 407 q 499 400 496 403 q 508 393 504 397 q 513 392 510 392 q 515 392 514 392 q 515 393 515 393 q 521 390 518 393 q 522 390 522 390 q 524 389 522 389 l 528 382 q 529 381 529 382 q 531 381 529 381 q 542 375 533 378 q 547 374 544 374 l 550 375 q 553 375 551 375 q 556 374 554 375 q 567 365 564 368 l 574 358 q 574 357 574 357 q 575 356 575 357 q 576 350 576 354 l 576 347 q 578 342 576 343 q 583 339 581 340 l 588 339 q 593 336 592 339 q 594 333 594 335 q 594 331 594 332 l 592 325 q 593 319 592 322 q 600 308 599 315 q 608 305 603 306 q 615 301 614 304 l 615 299 l 617 290 l 617 288 q 618 285 618 286 q 617 281 618 283 q 617 276 617 279 q 617 272 617 275 q 619 267 617 269 q 621 260 621 264 l 625 247 q 624 242 625 244 q 624 238 624 239 q 624 233 624 236 l 624 231 l 625 224 l 625 221 q 624 213 625 217 q 622 207 622 210 l 622 193 q 620 187 622 190 q 617 181 618 183 l 617 167 q 616 165 617 165 q 615 164 615 165 l 610 158 q 609 157 610 157 q 608 156 608 157 q 607 149 607 153 q 604 142 607 144 q 600 135 603 139 q 594 128 597 131 l 588 125 l 585 122 q 583 117 583 121 l 585 113 q 585 111 585 111 q 583 107 585 108 q 578 104 582 106 l 574 106 q 568 103 571 106 q 567 97 567 101 l 567 92 q 567 90 567 90 q 565 86 567 88 q 563 85 564 85 l 554 83 q 551 82 553 83 q 540 74 543 76 l 521 54 q 515 53 519 53 l 513 53 q 511 53 511 53 q 507 51 508 53 q 506 51 506 51 q 504 50 506 50 l 497 47 q 494 46 496 46 q 488 43 492 43 q 482 42 485 43 q 476 37 479 39 q 471 33 474 35 l 458 29 q 451 26 454 28 q 446 22 449 24 q 444 22 444 22 q 443 21 444 21 l 438 18 q 436 17 436 18 q 435 17 436 17 l 421 17 q 413 15 418 15 q 406 14 408 14 l 399 7 q 396 6 397 6 q 394 6 396 6 q 390 7 393 6 l 388 10 q 383 11 386 11 q 382 11 383 11 l 379 11 l 372 10 l 369 10 q 363 6 367 10 q 357 0 360 1 q 354 1 354 0 l 346 6 q 343 7 346 7 q 340 6 342 7 l 333 0 q 331 -1 333 -1 q 329 -1 331 -1 q 324 2 326 -1 q 318 6 321 6 q 310 5 314 6 q 304 4 307 4 q 301 4 303 4 q 297 3 300 4 q 292 1 294 1 q 278 3 282 1 l 275 3 l 268 7 l 265 7 q 253 8 261 8 l 250 8 l 242 7 l 239 7 q 235 10 238 7 l 232 13 q 228 15 231 15 q 226 15 226 15 q 221 13 224 15 q 215 11 218 11 q 213 11 214 11 q 207 16 210 13 q 201 19 204 19 q 200 20 200 19 q 199 21 200 21 l 193 24 q 192 24 192 24 q 190 25 192 25 q 183 22 186 25 q 176 19 179 19 q 175 19 176 19 q 174 20 174 19 q 172 21 174 21 l 167 26 q 165 27 165 26 q 164 28 165 28 q 156 31 160 29 q 150 33 153 32 q 145 38 147 35 q 140 44 143 42 q 136 46 139 46 l 132 46 q 128 47 131 46 l 121 56 q 118 58 118 58 l 107 65 q 103 68 106 68 l 99 69 q 96 71 97 69 l 93 74 q 90 75 92 75 l 86 76 q 82 79 85 78 q 79 82 81 81 l 74 86 q 71 89 72 88 q 69 94 69 92 l 72 100 q 72 103 72 101 q 71 106 72 104 q 64 110 68 108 q 58 114 60 111 q 56 120 56 117 q 54 126 56 124 q 51 132 51 129 q 52 133 51 132 q 53 136 53 135 q 51 140 53 139 q 51 142 51 142 q 50 143 50 142 l 44 149 q 41 157 42 151 q 40 165 40 163 q 38 179 38 174 q 42 185 38 182 q 47 192 46 189 q 46 194 47 194 l 43 203 q 42 206 42 203 q 43 208 42 208 l 43 217 q 44 219 44 217 q 49 224 46 222 q 53 229 53 226 l 57 242 l 57 244 l 56 253 l 56 256 q 56 257 56 257 q 57 258 57 257 l 61 264 q 62 265 61 265 q 63 267 63 265 q 64 269 64 268 q 63 271 64 271 l 63 275 q 63 278 63 276 q 63 279 63 279 l 63 282 l 58 290 l 58 293 q 63 299 60 296 q 65 306 65 303 q 68 313 67 310 q 71 319 69 317 q 68 326 71 324 q 65 332 65 329 q 66 338 65 336 q 67 342 67 340 q 65 346 67 344 q 55 353 64 349 q 43 360 46 358 m 294 725 q 289 722 292 724 q 282 718 286 719 q 271 714 274 715 q 263 707 265 713 q 261 703 261 706 q 262 701 261 703 q 263 696 263 699 q 258 690 263 693 q 254 682 254 686 q 254 681 254 682 q 264 665 256 674 l 268 660 q 269 658 268 658 q 269 657 269 658 q 275 652 272 654 q 279 647 278 650 q 281 644 281 644 l 283 636 q 285 633 285 635 q 285 632 285 632 q 286 631 286 632 l 290 625 q 291 624 290 624 q 292 622 292 624 q 292 621 292 621 q 293 619 293 621 l 296 613 q 297 610 297 611 q 299 608 299 610 q 297 604 299 607 l 293 600 q 293 597 293 599 q 293 594 293 596 q 296 588 294 592 q 297 582 297 585 q 300 576 297 579 q 303 568 303 572 q 302 562 303 565 q 301 554 301 558 q 297 549 301 551 q 292 543 293 546 q 290 538 290 540 q 291 535 290 536 q 292 533 292 535 q 290 529 292 531 l 286 517 q 281 504 283 508 q 279 500 279 503 q 280 497 279 499 q 281 496 281 496 q 278 490 281 493 q 272 479 275 482 q 264 469 269 475 q 260 467 263 468 l 256 465 q 251 463 254 465 q 250 460 250 461 l 247 453 q 246 450 247 451 q 244 449 244 450 q 243 449 244 449 l 236 446 q 233 444 235 446 q 229 442 232 443 l 226 440 q 222 438 225 440 q 216 436 219 436 q 210 433 213 436 q 208 433 208 433 q 207 432 208 432 l 203 426 q 201 426 201 426 q 200 425 201 425 l 188 421 q 186 420 186 421 q 185 419 186 419 l 178 417 q 175 415 176 415 l 163 411 q 156 415 160 411 q 150 418 153 418 q 149 418 150 418 q 143 414 146 418 q 146 414 144 414 l 149 413 q 151 413 150 413 q 157 406 154 411 q 164 401 160 401 q 167 401 165 401 q 171 402 168 401 q 178 403 174 403 l 192 403 q 194 401 194 401 l 201 399 q 203 398 203 399 q 204 397 203 397 q 207 394 204 397 l 214 386 q 215 385 215 386 q 217 385 215 385 l 221 379 l 226 376 l 235 375 q 238 374 236 375 q 242 371 240 372 l 246 371 q 250 368 249 371 l 269 349 q 274 341 271 347 q 276 333 276 335 l 278 325 q 279 322 279 324 q 285 318 281 319 q 292 314 289 317 l 292 311 l 293 303 l 293 300 q 294 294 294 297 q 296 286 294 290 q 297 283 297 285 q 296 279 297 282 q 294 274 294 276 q 299 266 296 269 q 301 260 301 263 l 301 256 l 304 249 l 304 244 q 303 242 304 243 l 300 235 q 299 232 299 235 q 297 228 299 229 l 297 221 l 294 214 l 289 208 q 288 207 289 207 q 288 206 288 207 l 288 201 l 289 194 l 289 190 q 282 185 288 186 q 274 181 276 183 q 272 175 272 178 q 269 169 272 172 q 267 165 268 168 l 265 163 q 263 158 265 161 l 263 143 q 257 137 260 140 q 254 131 254 133 q 260 115 254 128 q 268 101 265 103 q 271 101 269 101 q 274 101 272 101 l 278 103 q 282 104 281 104 q 283 103 283 104 q 290 97 288 101 q 296 93 293 93 q 299 94 299 93 l 307 101 q 310 103 307 103 q 322 104 318 103 q 328 103 325 104 q 331 103 331 103 q 336 106 333 103 q 341 109 339 107 q 346 114 343 111 q 358 119 354 117 q 361 122 360 121 l 364 126 q 367 129 365 128 q 372 132 369 132 l 376 131 q 382 133 381 132 q 383 138 383 135 q 383 139 383 138 l 381 144 q 382 150 381 149 q 386 153 383 153 l 390 156 q 394 158 393 157 q 396 161 396 160 q 394 167 396 164 q 392 172 392 169 q 392 174 392 172 l 403 185 q 401 188 403 188 l 399 196 q 397 199 397 196 q 400 213 400 207 q 403 218 400 215 q 407 224 407 221 q 407 225 407 225 q 406 233 407 229 q 406 239 406 236 q 403 253 403 250 q 401 256 401 256 l 392 275 q 391 276 392 276 q 390 278 390 276 q 385 290 388 282 q 382 297 382 293 q 381 303 382 300 q 375 306 379 306 l 372 307 q 367 310 369 308 q 365 313 365 313 l 363 321 q 361 324 363 322 q 361 326 361 325 q 361 331 361 329 q 361 335 361 333 q 360 339 361 338 q 351 349 354 344 q 346 351 349 351 l 343 353 q 338 356 340 353 q 335 360 336 358 l 335 364 q 332 368 335 367 q 321 375 329 369 q 317 376 319 376 q 314 376 315 376 q 311 376 313 376 q 308 376 310 376 q 303 382 306 379 q 299 385 301 385 q 296 386 297 386 q 294 385 294 386 q 293 385 294 385 q 292 386 293 385 q 290 390 290 388 q 292 394 290 392 q 293 400 293 397 q 290 406 292 403 q 288 413 288 410 q 289 419 288 417 q 290 424 290 422 q 289 426 290 425 q 289 432 289 429 q 294 443 289 440 q 301 442 297 443 q 306 440 304 440 q 308 440 307 440 l 317 447 q 319 450 319 450 q 324 453 322 453 l 326 454 q 331 457 329 456 l 338 464 q 340 465 340 465 l 349 472 q 351 475 351 475 q 353 481 353 478 q 356 488 353 485 q 360 492 358 490 q 364 497 363 494 q 365 501 365 499 q 365 505 365 503 q 365 508 365 507 q 365 511 365 510 q 371 515 368 514 q 375 519 374 517 q 378 525 378 522 q 377 526 378 525 q 376 529 376 528 q 378 533 376 532 q 382 536 379 536 l 386 538 q 390 540 389 539 q 392 543 392 543 l 394 550 q 395 551 394 551 q 396 553 396 551 l 396 556 l 397 564 l 397 567 q 399 569 397 569 l 399 576 q 400 579 400 578 q 401 587 401 583 q 403 593 401 590 q 406 599 403 596 q 408 607 408 603 q 406 613 408 610 q 404 621 404 617 q 403 633 403 625 q 399 647 401 639 q 397 650 397 650 l 393 657 q 392 658 393 658 q 392 660 392 658 q 388 665 390 663 q 382 669 385 667 q 375 679 381 674 q 367 690 369 688 q 366 692 367 692 q 365 693 365 692 l 364 701 q 363 704 364 704 l 351 715 q 349 717 350 717 q 346 717 347 717 l 340 714 q 335 715 338 714 q 333 716 333 715 q 332 717 333 717 l 326 724 q 325 724 325 724 q 324 725 325 725 l 294 725 m 132 411 l 126 413 l 124 413 q 121 413 122 413 l 115 410 q 113 410 114 410 q 118 406 115 408 q 125 404 121 404 q 129 408 128 404 l 132 411 z "},"4":{"ha":715,"x_min":35,"x_max":685,"o":"m 294 18 q 281 15 289 18 q 283 22 281 22 q 284 22 283 22 q 286 21 285 21 q 290 22 289 21 q 293 28 293 25 l 294 31 q 297 36 296 35 q 301 39 300 39 l 306 42 q 310 44 308 43 q 313 49 313 47 l 314 51 q 317 56 315 54 l 317 71 q 317 72 317 72 q 318 74 318 72 l 322 79 q 323 81 322 81 q 324 82 324 81 q 328 89 325 86 q 332 94 331 92 q 332 97 332 96 q 331 102 332 99 q 329 108 329 106 q 332 122 332 119 q 335 130 332 126 q 339 136 338 133 l 339 140 l 336 147 l 336 154 l 335 163 l 335 168 l 338 176 l 338 179 q 339 193 338 189 q 338 199 338 196 q 335 204 338 201 q 332 208 333 206 q 328 213 331 211 l 325 213 l 317 211 l 314 211 l 301 215 q 300 216 300 215 q 299 217 300 217 l 293 222 q 292 223 292 222 q 290 224 292 224 q 285 226 288 224 q 279 229 282 228 q 265 231 269 229 q 260 233 263 232 q 253 236 257 235 l 240 236 l 228 240 l 211 240 l 204 239 l 199 239 l 190 240 l 188 240 q 182 235 185 239 q 176 231 179 231 q 175 230 175 231 q 174 229 175 229 l 167 226 q 164 225 165 225 q 158 227 161 225 q 151 229 154 229 q 150 229 151 229 q 147 228 147 229 l 139 228 q 136 226 139 226 q 132 222 133 225 q 128 215 131 218 q 123 211 125 214 q 118 206 121 208 q 113 203 115 203 q 112 203 113 203 q 110 204 111 204 q 106 203 107 204 q 103 203 104 203 q 93 206 99 203 q 83 213 88 208 q 79 215 82 215 l 75 215 q 71 218 74 217 q 69 224 69 221 l 69 228 q 69 231 69 229 q 68 233 69 232 q 63 236 65 236 q 60 235 61 236 q 58 235 58 235 q 53 238 54 235 q 51 240 51 239 q 53 247 51 243 q 56 253 56 250 q 56 254 56 253 q 50 259 53 257 q 46 264 47 261 l 46 267 l 47 275 l 47 278 q 41 283 46 281 q 36 289 36 286 q 36 290 36 290 q 38 296 36 293 q 40 303 40 299 q 39 306 40 306 l 36 313 q 35 315 35 314 q 36 322 35 318 q 39 329 38 326 q 44 335 39 332 q 50 340 49 338 q 47 347 50 343 q 44 354 44 351 q 44 356 44 354 q 50 360 44 358 q 57 365 56 363 q 58 369 58 368 l 58 374 q 60 378 58 376 q 67 389 61 381 q 68 393 68 390 q 67 395 68 394 q 67 396 67 396 q 69 401 67 399 l 76 410 q 77 411 76 411 q 78 413 78 411 q 79 415 79 414 l 83 419 q 85 422 85 422 q 88 426 88 425 l 88 429 q 90 433 89 432 q 93 438 93 436 l 93 442 q 96 446 94 444 q 100 449 99 449 l 104 450 q 108 453 107 451 q 110 456 110 454 l 114 461 q 115 464 115 464 l 122 471 q 124 474 124 474 q 128 476 126 476 l 132 476 q 136 479 135 478 q 139 481 138 481 l 143 485 q 146 486 146 486 q 150 489 149 489 l 153 490 q 157 493 156 492 q 160 501 160 496 q 164 507 161 506 q 174 514 168 511 q 176 515 175 515 q 179 514 178 515 l 185 513 q 189 513 188 513 q 190 513 190 513 q 193 517 193 514 l 196 519 q 199 524 197 522 l 214 524 q 217 529 217 526 l 219 532 q 222 538 221 536 q 225 539 225 539 l 232 542 q 233 542 233 542 q 235 543 233 543 q 242 546 238 546 q 249 547 246 546 q 255 550 251 550 q 261 551 258 550 q 265 553 263 553 q 267 553 265 553 l 271 553 q 276 554 275 553 q 279 560 279 554 l 281 564 q 283 569 281 569 q 286 571 285 571 q 292 569 289 571 q 299 567 296 567 q 300 567 299 567 q 305 573 303 569 q 310 578 307 576 q 313 579 311 579 q 317 578 315 579 q 319 578 318 578 q 324 579 322 578 q 328 583 326 581 q 333 589 331 586 q 337 594 336 592 q 340 599 338 597 q 343 603 343 601 l 344 606 q 347 610 346 608 q 356 619 353 615 q 362 623 358 622 q 367 626 365 624 q 369 632 369 629 q 369 633 369 632 q 368 635 368 633 q 369 639 368 638 q 375 645 371 642 q 379 651 379 649 q 374 657 379 654 q 368 663 369 660 q 368 665 368 664 q 368 669 368 668 q 368 672 368 671 q 367 676 368 675 q 342 690 357 686 q 333 688 339 690 q 325 683 328 685 l 319 678 q 318 677 318 678 q 317 676 318 676 q 313 674 315 675 l 310 674 q 306 671 308 674 q 299 667 303 668 q 293 663 294 665 l 297 658 q 292 648 294 653 q 286 643 289 643 q 285 643 286 643 q 281 647 283 643 q 275 657 279 651 q 272 660 275 657 l 264 665 q 261 669 263 668 l 260 672 q 257 676 260 675 q 257 679 257 678 q 258 684 257 681 q 260 690 260 688 q 257 703 257 699 q 258 714 257 710 q 260 726 258 718 q 265 738 263 733 l 269 750 q 272 754 272 753 l 271 758 q 274 763 272 761 q 278 765 276 765 l 282 767 q 286 769 285 768 q 288 772 288 771 l 290 779 q 295 787 292 782 q 300 793 299 792 q 304 796 303 796 l 308 796 q 313 799 311 797 q 317 800 314 800 q 319 799 318 800 q 319 799 319 799 q 325 801 322 799 q 331 805 328 804 q 336 807 333 806 l 349 811 q 350 812 350 811 q 351 813 350 813 l 357 818 q 358 819 358 818 q 360 819 358 819 l 372 819 q 375 821 375 819 l 382 826 q 385 828 383 828 q 390 828 388 828 q 393 829 392 829 q 397 828 396 829 q 400 826 400 828 l 407 821 q 410 819 408 819 q 416 822 413 819 q 422 824 419 824 q 424 824 422 824 q 431 820 425 824 q 439 815 436 817 l 444 811 q 446 810 446 811 q 447 810 446 810 q 450 810 449 810 q 453 810 451 810 l 457 814 q 461 815 460 815 q 463 814 463 815 q 475 811 471 811 q 481 806 478 810 q 488 803 485 803 q 490 803 489 803 q 495 804 492 803 q 501 806 499 806 l 504 806 l 513 804 l 528 804 q 535 801 532 804 q 542 799 539 799 q 548 800 544 799 q 556 801 551 801 l 558 801 l 565 803 l 568 803 q 576 801 572 803 q 582 800 579 800 q 587 801 585 800 q 590 801 589 801 q 594 800 593 801 q 604 800 599 800 q 610 799 607 800 l 618 796 l 621 796 q 624 797 624 796 l 632 800 q 635 801 632 801 q 638 800 638 801 l 644 796 q 647 794 646 794 q 653 799 650 794 q 661 804 657 804 l 665 804 l 672 800 l 676 800 q 676 797 676 799 q 672 790 676 793 q 665 785 668 788 q 663 782 665 785 l 654 776 q 651 771 653 775 l 653 768 q 650 763 653 765 q 646 758 649 760 q 640 753 643 756 l 640 739 q 640 738 640 738 q 639 736 639 738 l 635 731 q 634 729 635 729 q 633 728 633 729 l 629 715 q 628 701 629 706 q 626 695 628 699 q 622 688 624 692 q 624 685 622 685 l 631 676 q 632 674 632 676 q 627 666 632 669 q 622 660 622 663 l 622 657 l 626 649 l 626 632 q 625 628 626 629 l 622 621 q 621 617 621 619 q 625 610 621 614 q 629 603 629 607 l 629 600 l 631 593 l 631 590 q 628 583 631 586 q 626 576 626 579 q 627 570 626 574 q 628 563 628 567 q 626 560 628 561 l 624 553 q 622 550 622 553 l 622 536 q 624 530 622 533 q 626 522 626 526 l 626 510 q 625 507 626 507 l 621 499 q 619 496 619 499 q 621 493 619 494 l 624 486 q 625 483 625 486 q 624 476 625 479 q 622 469 622 472 l 622 467 l 625 458 l 625 456 q 624 453 625 454 l 619 446 q 618 443 618 446 q 619 440 618 440 l 625 432 q 626 429 626 432 q 626 423 626 426 q 625 415 625 419 l 625 413 l 626 406 l 626 403 q 626 395 626 399 q 625 389 625 392 l 625 375 q 623 369 625 372 q 619 363 621 365 q 618 358 619 361 l 615 356 q 614 351 614 354 q 617 345 614 349 q 622 339 619 342 q 635 354 635 342 q 639 367 638 365 q 647 369 643 369 q 654 367 651 369 q 662 365 657 365 q 669 363 667 365 q 671 357 671 361 q 671 353 671 356 q 671 350 671 351 q 671 346 671 347 q 678 333 674 343 q 683 321 683 324 q 685 307 685 317 q 682 299 683 303 q 679 293 681 296 l 675 281 q 674 275 674 278 q 674 272 674 274 q 675 268 675 269 q 674 264 675 265 q 663 254 671 260 q 653 243 660 250 q 647 242 651 242 l 642 244 q 640 244 640 244 q 636 243 638 244 q 629 239 632 240 q 624 235 626 238 q 622 232 622 233 q 624 226 622 229 q 626 219 626 222 q 626 218 626 219 q 620 213 625 215 q 615 207 615 210 q 615 206 615 207 q 617 199 615 203 q 618 192 618 196 q 622 185 618 189 q 625 178 625 182 l 625 175 l 628 167 l 628 161 l 625 153 l 625 135 q 626 133 626 135 q 625 131 626 132 l 621 126 q 621 125 621 126 q 621 122 621 124 l 621 119 l 625 113 l 625 110 l 629 97 q 632 85 629 93 l 636 72 q 642 69 638 69 q 649 65 646 68 q 650 64 650 65 q 649 60 650 63 l 647 56 q 647 53 647 54 q 647 50 647 51 q 656 40 650 46 q 661 38 658 39 l 664 38 q 669 35 668 38 q 671 32 671 33 q 669 28 671 31 q 665 22 667 26 q 660 11 663 11 q 657 13 658 11 l 650 18 q 647 19 650 19 l 644 19 l 638 15 l 635 15 q 632 14 633 15 l 626 11 q 624 10 625 10 l 611 10 q 607 14 610 10 l 603 17 q 599 21 601 21 q 594 17 597 21 l 590 14 q 586 10 589 10 q 583 11 585 10 l 576 17 q 574 18 576 18 q 571 17 571 18 l 563 11 q 560 10 563 10 q 557 11 558 10 l 550 14 q 547 15 550 15 l 544 15 l 538 11 l 535 11 q 527 15 531 11 q 521 18 524 18 l 518 18 l 511 19 l 506 19 l 497 21 l 492 21 l 485 18 l 482 18 q 479 17 481 18 l 472 13 q 465 10 471 11 q 456 10 458 10 q 453 11 454 10 l 446 17 q 443 18 446 18 l 426 18 l 419 14 l 414 14 l 407 13 l 404 13 q 397 12 400 13 q 390 11 393 11 q 388 13 389 11 l 381 15 q 361 21 369 21 l 354 17 l 349 17 l 342 19 l 339 19 q 332 15 335 19 q 325 11 329 11 q 324 11 325 11 q 316 13 319 11 q 310 15 313 15 q 302 17 306 17 q 294 18 299 18 m 336 413 q 337 420 336 417 q 338 426 338 424 q 335 426 336 426 q 331 426 333 426 q 328 426 329 426 q 324 425 325 426 q 321 421 322 424 l 318 418 q 315 414 318 415 q 311 411 314 413 l 307 411 q 303 408 306 411 q 297 405 300 407 q 292 400 294 403 q 290 397 290 399 l 288 390 q 286 388 288 389 q 285 387 285 388 q 283 386 285 386 l 276 382 q 275 382 276 382 l 272 379 q 271 379 272 379 l 264 378 q 261 376 263 378 q 258 372 260 375 l 257 368 q 254 364 257 367 l 244 354 q 238 351 242 351 q 233 347 235 350 q 232 344 232 344 l 229 336 q 228 333 229 335 q 226 327 226 331 q 224 321 226 324 l 218 310 q 217 307 217 308 q 233 304 228 304 q 238 303 235 303 q 242 303 239 303 q 247 304 244 304 l 250 304 l 257 300 l 260 300 q 261 300 261 300 q 267 301 264 300 q 272 303 269 303 q 275 303 274 303 l 288 299 q 289 298 289 299 q 290 297 289 297 l 308 288 q 314 286 310 286 l 321 285 l 324 285 q 338 283 333 283 q 340 283 339 283 q 343 301 343 294 l 344 308 l 344 326 l 343 333 l 343 339 l 344 346 l 344 349 q 343 351 344 351 l 338 358 q 336 361 336 360 l 336 364 l 335 371 l 335 374 q 336 376 335 376 l 340 383 q 342 392 342 386 q 343 400 343 397 q 340 406 343 403 q 336 413 338 410 z "},"5":{"ha":689,"x_min":26,"x_max":660,"o":"m 92 361 q 90 361 90 361 q 81 365 86 361 q 81 367 81 367 q 79 366 79 367 q 79 365 79 365 q 78 368 78 365 l 85 376 q 88 379 88 379 q 89 382 88 382 l 89 389 q 92 396 92 392 l 94 401 q 95 403 94 403 q 96 406 96 404 l 96 408 l 94 417 l 94 419 q 96 422 96 422 l 99 429 q 99 431 99 431 q 100 432 100 431 l 100 435 l 101 443 l 101 460 q 104 466 101 463 q 108 472 107 469 q 108 478 108 475 q 107 482 107 481 q 108 486 107 485 l 108 489 l 111 496 l 111 515 l 114 524 l 114 526 q 117 533 115 529 q 118 539 118 536 q 118 542 118 540 q 115 547 118 544 q 113 554 113 550 q 114 557 113 557 l 119 564 q 121 567 121 565 q 122 569 122 568 q 121 575 122 572 q 119 581 119 578 q 121 583 121 582 q 119 586 121 585 l 117 589 q 117 593 117 592 q 117 594 117 594 q 119 602 117 599 q 121 608 121 606 q 121 610 121 610 q 119 616 121 613 q 117 622 117 619 q 118 628 117 625 l 121 631 q 122 636 122 633 q 122 642 122 639 q 121 650 121 646 q 122 659 121 653 q 124 667 122 665 l 128 674 q 129 676 129 675 q 128 679 129 679 l 124 688 q 122 690 122 688 q 125 697 124 693 q 126 703 126 700 q 124 715 126 707 l 124 718 l 126 725 l 126 731 l 125 738 l 125 740 q 124 742 125 742 q 124 743 124 742 l 119 749 q 118 754 118 750 l 117 761 l 117 764 q 114 769 114 767 q 115 771 114 769 q 115 774 115 772 q 114 778 115 776 q 111 781 113 779 l 106 783 q 103 786 104 785 q 97 793 100 792 q 103 795 101 794 q 108 797 106 796 l 113 797 l 119 800 l 124 800 q 128 801 125 801 q 132 801 129 801 q 138 800 135 800 l 140 800 l 147 804 l 150 804 q 153 803 153 804 l 161 800 q 164 799 161 799 l 167 799 l 174 803 l 176 803 q 179 803 178 803 q 183 801 181 803 q 189 800 186 800 q 197 799 193 800 q 203 799 200 799 q 206 800 206 799 l 213 803 q 215 804 214 804 l 228 804 q 231 803 231 804 l 239 797 q 242 796 239 796 q 246 799 244 796 l 250 803 q 254 806 253 806 l 257 806 l 264 807 l 269 807 l 278 804 l 281 804 q 283 803 283 804 l 290 800 q 293 799 292 799 l 296 799 l 303 803 l 306 803 q 313 801 310 803 q 319 800 317 800 l 322 800 l 329 797 l 332 797 q 344 800 340 800 q 352 803 349 800 q 358 807 356 807 l 361 807 l 368 803 l 374 803 l 381 806 l 383 806 q 391 803 388 806 q 397 800 394 800 q 400 801 400 800 l 407 807 q 410 808 408 808 q 413 807 413 808 l 419 804 q 434 800 422 801 q 450 799 446 799 q 456 801 453 799 q 464 804 460 804 q 469 805 467 804 q 474 806 472 806 q 478 804 476 806 q 483 799 481 804 q 490 794 486 794 q 493 794 492 794 q 496 794 494 794 l 499 797 q 503 799 501 799 q 504 797 504 799 l 517 793 q 519 792 519 792 l 526 788 q 528 787 528 788 q 529 786 528 786 q 531 785 531 786 q 532 785 531 785 l 539 778 l 543 778 l 550 776 l 554 776 q 556 776 556 776 q 557 775 556 775 l 563 771 q 565 769 565 771 q 568 765 568 768 l 569 761 q 572 757 571 760 q 575 751 575 756 l 575 749 q 578 743 576 746 q 581 739 581 742 l 581 736 q 583 732 582 735 q 584 731 583 731 q 585 729 585 731 l 590 725 q 591 724 590 724 q 592 722 592 724 q 598 717 594 719 q 603 713 601 715 l 607 700 q 608 697 607 699 l 608 690 q 610 688 610 690 q 610 685 610 686 q 608 680 610 682 q 607 675 607 678 q 607 674 607 675 q 608 671 607 672 l 614 664 q 615 661 615 664 q 613 653 615 657 q 610 647 610 650 q 610 644 610 646 q 611 640 610 643 q 613 633 613 636 q 611 631 613 632 l 611 624 q 610 621 610 624 q 608 614 608 618 q 606 607 608 610 q 603 604 606 607 l 597 600 q 594 597 594 597 q 593 593 593 596 l 593 589 q 592 585 593 588 q 590 582 590 582 l 588 574 q 586 571 588 572 q 579 560 585 568 q 576 558 576 558 l 568 556 q 567 556 568 556 l 564 553 q 563 553 564 553 l 556 546 q 551 543 554 544 l 547 543 q 543 540 546 543 q 540 536 542 539 l 538 532 q 535 528 538 529 q 533 527 533 528 q 532 526 533 526 l 525 522 q 522 521 524 522 q 521 521 522 521 q 517 521 519 521 l 513 524 q 510 525 511 525 q 507 524 508 525 q 494 521 499 521 q 485 520 492 521 q 476 518 479 519 l 469 515 q 465 514 468 514 q 464 515 464 514 q 463 515 464 515 l 456 521 q 453 522 454 522 q 439 525 447 522 q 425 530 432 528 q 411 536 418 532 q 410 542 410 539 l 410 546 q 410 549 410 547 q 408 551 410 550 q 403 554 407 554 l 399 554 q 393 557 396 556 q 392 561 392 558 q 392 565 392 563 q 393 568 393 567 q 392 571 393 569 q 391 577 392 574 q 390 585 390 581 q 390 588 390 586 l 389 593 q 389 596 389 594 q 387 603 389 600 q 385 608 385 606 q 385 610 385 608 q 389 615 385 613 q 393 622 393 618 q 393 625 393 624 q 392 627 393 626 q 392 629 392 628 q 393 632 392 631 q 394 633 393 633 q 394 635 394 633 l 407 649 q 413 652 410 650 q 419 654 417 654 q 421 654 419 654 q 422 651 422 653 q 422 649 422 650 l 422 643 q 424 638 422 640 q 425 637 425 638 q 426 636 425 636 l 433 635 q 436 633 436 635 q 449 629 440 629 q 458 636 456 629 q 465 640 461 638 q 471 644 468 642 q 472 658 472 649 q 469 672 472 664 q 467 686 469 678 q 464 689 467 686 l 457 692 l 454 694 q 450 701 451 697 q 446 706 449 704 q 440 708 443 708 q 439 708 440 708 q 436 707 438 707 q 432 708 433 707 q 431 709 431 708 q 429 710 431 710 l 422 714 q 419 715 421 715 l 406 719 q 399 718 403 719 q 392 715 394 717 l 378 715 q 368 708 374 714 q 367 707 368 707 q 367 706 367 707 l 364 700 q 363 699 364 699 q 363 697 363 699 q 363 696 363 697 q 363 692 363 694 l 367 689 q 368 686 368 688 q 367 683 368 685 q 362 676 365 679 q 357 671 358 674 q 356 665 356 668 q 354 657 356 661 q 354 656 354 657 q 354 651 354 654 l 357 649 q 358 646 358 647 q 357 643 358 644 l 357 640 l 356 632 l 356 629 q 354 623 356 626 q 353 615 353 619 q 351 611 351 614 q 352 607 351 610 q 353 601 353 604 l 349 589 l 349 574 q 345 567 347 571 q 343 561 343 564 q 338 554 342 557 q 335 549 335 551 q 331 535 333 543 q 329 529 329 532 q 330 526 329 528 q 331 519 331 524 q 329 513 329 517 q 328 506 329 510 q 331 499 328 503 q 333 493 333 496 q 333 492 333 493 q 332 485 333 488 q 331 479 331 482 q 331 469 331 474 q 336 465 331 465 q 350 468 339 465 l 363 468 q 365 469 365 468 l 372 474 q 375 475 374 475 q 383 474 378 475 q 392 472 389 474 l 399 469 q 401 468 400 468 l 404 468 l 411 467 l 414 467 q 422 469 418 467 q 428 472 425 472 l 431 472 l 439 474 l 442 474 q 447 467 444 472 q 453 461 450 461 q 460 459 457 460 q 468 458 464 458 l 476 457 l 479 457 q 485 458 482 457 q 490 460 489 460 q 493 460 492 460 q 494 459 494 460 q 496 458 494 458 l 501 454 q 503 453 503 454 q 504 453 503 453 q 506 452 506 453 q 507 451 506 451 l 518 444 l 525 443 q 528 442 526 443 q 531 440 529 442 l 535 436 q 538 435 536 436 q 540 433 540 433 l 549 432 q 551 431 550 432 q 557 429 554 429 l 560 431 q 563 431 561 431 q 565 429 564 431 q 575 421 569 426 q 578 418 575 421 l 593 404 q 594 403 593 403 q 594 401 594 403 q 597 397 597 400 l 597 393 q 600 389 599 392 q 603 385 603 388 l 604 382 q 606 379 604 381 l 608 376 q 610 374 610 375 l 611 371 q 614 367 613 369 q 615 364 615 367 l 619 360 q 620 358 619 358 q 621 357 621 358 q 624 351 624 354 q 626 346 625 349 q 631 340 629 343 q 635 335 633 338 l 639 322 q 640 321 639 321 q 640 319 640 321 l 643 314 q 644 308 644 313 l 646 300 l 646 297 q 645 292 646 294 q 644 289 644 290 q 646 285 644 286 l 650 272 l 650 269 l 651 263 l 651 260 q 656 253 653 257 q 660 247 660 250 q 656 240 660 243 q 653 233 653 236 q 654 231 653 232 l 657 224 q 658 221 658 224 l 658 218 l 657 211 l 657 206 l 654 199 l 654 196 q 651 188 653 193 q 649 182 650 183 l 649 175 q 647 172 647 175 q 649 167 647 169 q 650 163 650 164 q 649 160 650 161 q 646 147 646 151 q 642 143 644 146 l 638 142 q 633 138 635 140 l 633 135 l 632 126 l 632 124 q 631 121 632 121 l 631 113 q 629 110 629 113 q 626 107 629 110 l 619 99 q 617 94 618 97 l 615 92 q 613 88 615 90 q 610 83 611 86 l 608 79 q 606 75 608 78 q 601 72 604 74 l 597 71 q 593 68 596 71 q 590 64 592 67 l 589 60 q 586 56 589 58 q 581 54 585 54 l 578 54 q 572 53 574 54 q 569 47 571 51 l 568 44 q 565 39 568 42 q 560 38 564 38 l 556 39 q 554 39 554 39 q 550 38 551 39 q 547 36 547 38 l 539 36 q 536 35 539 35 l 524 31 q 511 28 515 28 q 505 25 508 26 q 499 24 501 24 l 486 19 q 478 16 482 19 q 472 13 475 13 q 466 15 469 13 q 458 18 463 17 q 453 17 456 18 q 449 17 450 17 q 446 17 447 17 q 439 16 442 17 q 435 15 436 15 q 432 15 433 15 q 425 21 428 17 q 419 25 422 25 q 415 26 418 26 q 413 26 414 26 q 411 25 413 25 q 406 26 408 25 q 404 27 404 26 q 403 28 404 28 l 396 33 q 394 33 396 33 q 392 35 393 33 l 383 35 q 381 36 383 36 q 378 38 379 38 l 371 39 q 368 40 369 40 q 363 44 365 43 q 357 47 360 46 l 350 56 q 347 58 347 58 q 341 60 344 60 q 335 64 338 61 q 334 65 335 65 q 333 67 333 65 l 331 74 q 329 76 331 76 q 324 79 328 79 l 319 78 q 314 81 317 79 q 313 82 314 82 q 313 83 313 82 l 311 92 q 310 94 311 94 q 309 96 310 96 q 308 97 308 96 l 301 106 q 294 114 296 111 q 289 117 293 117 l 286 117 q 281 119 283 118 q 278 124 279 122 l 278 126 q 275 131 278 129 q 274 136 274 133 l 275 139 q 275 142 275 140 q 274 144 275 143 q 267 148 271 147 q 263 151 264 149 q 262 153 263 153 q 261 154 261 153 l 258 160 q 257 163 258 163 q 251 165 256 165 l 249 164 q 243 167 246 165 q 240 172 240 169 q 241 174 240 174 q 242 176 242 175 q 239 181 242 179 q 228 188 235 186 q 224 190 226 190 l 219 189 q 215 192 218 190 q 211 193 214 193 l 207 192 q 203 193 206 192 q 197 196 200 196 q 192 197 194 196 q 181 200 186 200 q 175 203 178 201 q 171 204 174 204 l 168 204 q 167 204 168 204 l 161 207 q 158 207 160 207 l 156 207 l 150 208 l 147 208 q 142 204 144 208 q 138 197 140 200 q 129 188 136 196 l 122 183 q 121 182 121 183 q 121 176 121 179 q 121 169 121 174 q 123 164 121 167 q 126 158 125 161 q 128 154 128 157 q 127 152 128 153 q 126 151 126 151 q 129 146 126 149 q 134 144 132 144 q 139 140 136 143 q 140 138 140 140 l 143 129 q 144 128 143 128 q 144 126 144 128 l 158 126 q 161 125 161 125 l 168 121 q 171 119 169 121 q 186 118 176 118 q 192 119 189 118 q 199 122 194 121 q 201 122 200 122 q 206 121 203 122 q 211 119 208 119 q 214 121 213 119 q 221 124 217 124 q 226 122 224 124 q 233 121 229 121 q 240 115 238 121 q 254 90 250 106 q 254 89 254 90 q 251 83 254 86 q 247 76 247 79 l 247 63 q 240 50 246 58 l 236 38 l 228 25 q 217 18 224 21 q 213 17 215 17 q 210 17 211 17 q 206 18 208 18 q 203 17 204 18 q 198 10 200 14 q 193 6 196 7 q 190 4 192 6 l 183 4 q 181 3 183 3 l 178 3 l 171 1 l 168 1 q 154 0 164 0 q 149 4 151 0 q 143 10 146 8 q 142 11 143 11 q 138 10 140 11 l 135 6 q 132 6 133 6 q 129 6 131 6 q 126 8 129 6 l 122 14 q 119 17 119 17 l 117 17 l 107 14 l 104 14 q 101 19 103 17 l 100 22 q 97 28 100 26 l 88 38 q 83 40 86 40 l 79 42 q 76 43 78 42 l 74 46 q 71 47 72 47 l 67 49 q 63 51 65 50 q 60 57 60 54 q 60 60 60 58 q 61 63 61 61 q 60 67 61 65 q 57 69 58 68 l 51 74 q 49 76 50 75 q 47 79 47 79 l 44 86 q 44 88 44 88 q 43 89 43 88 q 43 92 43 90 q 43 94 43 93 l 47 99 q 49 103 49 101 q 47 104 49 104 q 47 106 47 106 q 46 107 46 106 l 39 113 q 38 114 39 114 q 38 115 38 114 l 33 128 q 32 133 32 131 q 33 137 32 135 q 33 142 33 139 q 29 148 32 144 q 26 156 26 151 l 26 158 l 31 165 q 31 174 31 171 q 33 182 32 178 q 36 188 33 185 q 40 194 39 192 q 42 197 42 196 q 40 200 42 199 l 38 203 q 38 207 38 206 q 38 208 38 208 q 38 210 38 210 q 39 211 39 210 l 46 217 q 47 218 46 218 q 47 219 47 218 q 53 232 50 224 l 60 243 q 65 256 63 251 q 68 260 68 258 l 69 263 q 72 267 71 265 q 81 278 75 269 q 85 281 83 281 l 89 282 q 93 285 92 283 q 97 288 96 288 l 100 289 q 104 292 103 290 q 107 294 106 293 l 110 300 q 113 303 111 301 q 114 303 114 303 q 115 304 114 304 l 119 311 l 132 318 q 133 319 133 318 q 135 319 133 319 l 139 319 l 146 318 l 150 318 q 156 319 153 319 q 164 321 160 319 q 176 322 168 322 q 181 324 178 324 q 185 323 182 324 q 190 322 188 322 l 207 322 l 214 324 l 217 324 q 222 326 219 324 q 228 328 225 328 q 229 328 228 328 l 242 324 q 247 322 244 324 q 249 319 247 321 l 258 313 q 261 311 260 313 q 267 308 264 308 q 272 306 269 307 l 283 299 q 288 295 286 297 q 293 290 290 293 q 294 290 294 290 q 296 289 294 289 l 301 288 q 304 286 304 288 q 310 282 307 283 q 315 279 313 281 q 326 274 321 275 q 328 273 328 274 q 329 272 328 272 l 335 267 q 336 266 336 267 q 338 265 336 265 q 340 265 339 265 q 346 266 343 265 q 351 267 349 267 q 358 264 354 265 q 364 263 361 263 q 365 263 365 263 q 371 265 368 263 q 376 268 374 268 l 379 268 l 385 271 l 388 271 q 389 271 389 271 q 394 269 392 271 q 399 268 397 268 q 401 269 400 268 q 404 274 404 271 q 407 281 404 278 q 415 283 410 283 q 422 286 421 283 q 424 289 424 288 q 422 294 424 292 q 421 300 421 297 q 419 314 421 310 q 417 319 418 317 q 414 324 417 321 l 406 332 q 402 335 404 335 q 397 339 400 336 q 394 344 396 342 l 396 349 q 393 354 396 353 q 390 356 393 356 l 385 360 q 383 360 383 360 q 382 361 383 361 q 378 364 381 364 l 375 365 q 371 368 374 367 q 367 369 369 369 q 363 369 365 369 q 358 368 360 368 q 356 368 357 368 q 352 376 353 371 q 349 382 351 381 q 347 383 349 383 q 343 382 346 383 l 339 379 q 336 379 338 379 q 333 379 335 379 q 321 381 329 381 l 308 385 q 303 387 306 385 q 296 390 300 389 l 293 390 l 286 392 l 281 392 l 274 388 l 268 388 l 261 389 l 256 389 l 249 392 l 243 392 l 236 394 l 233 394 q 229 392 232 394 l 225 388 q 221 385 224 385 q 208 383 217 383 q 203 385 206 383 q 199 386 200 386 q 196 386 197 386 q 183 385 188 386 l 169 385 q 158 382 161 382 q 152 376 154 381 q 146 371 150 371 q 144 371 144 371 q 138 374 142 371 q 131 376 135 376 q 129 376 129 376 q 128 375 129 375 l 121 372 q 118 371 119 371 q 113 367 115 371 q 107 361 110 363 q 103 361 106 361 q 99 362 101 361 q 94 363 97 363 q 92 361 93 363 z "},"6":{"ha":740,"x_min":29,"x_max":713,"o":"m 29 400 q 31 403 29 403 l 33 411 q 35 414 35 411 l 35 426 q 35 428 35 428 q 32 434 35 431 q 29 440 29 438 q 31 443 29 443 l 31 450 q 32 453 32 451 q 35 460 32 457 q 39 465 38 463 l 39 468 l 40 476 l 40 479 q 38 485 40 482 q 36 492 36 489 q 36 493 36 492 l 36 496 l 35 503 l 35 506 q 42 512 36 510 q 49 517 47 514 l 53 529 q 54 542 53 538 l 54 546 l 53 553 l 53 557 q 53 558 53 558 q 54 560 54 558 l 58 565 q 59 567 58 567 q 60 568 60 567 q 60 569 60 569 q 61 571 61 569 l 67 576 q 67 578 67 578 q 68 579 68 578 q 69 583 69 582 l 69 588 q 71 592 69 590 q 79 601 74 596 q 81 606 81 603 q 80 608 81 607 q 79 610 79 610 q 82 615 79 613 q 82 618 82 617 q 81 622 82 619 q 81 626 81 625 q 82 631 81 629 l 89 638 q 90 640 90 640 q 97 651 93 647 q 101 657 99 654 q 106 663 103 660 q 108 665 107 664 l 114 668 q 117 671 115 669 l 124 678 q 126 679 126 679 q 135 689 129 683 q 143 699 138 693 l 153 708 q 154 711 154 711 l 158 718 q 159 719 158 719 q 160 721 160 719 l 168 728 q 169 728 169 728 q 171 729 169 729 l 178 736 q 179 739 179 739 q 183 742 182 742 l 188 742 q 192 744 190 743 q 194 746 194 746 l 201 750 q 203 751 203 750 q 204 751 203 751 q 214 760 210 757 l 222 767 q 224 767 224 767 q 225 768 224 768 q 229 774 228 769 q 233 781 231 778 q 236 781 235 781 q 240 780 238 781 q 244 779 243 779 q 249 781 247 779 q 253 785 251 782 q 258 792 256 789 l 271 796 q 277 797 274 797 q 285 799 281 797 q 288 800 288 799 l 294 800 q 301 803 297 803 l 314 807 l 319 811 q 321 812 321 811 q 322 813 321 813 l 336 817 q 342 814 339 817 q 349 811 346 811 q 351 811 350 811 q 357 815 354 813 q 364 818 360 817 q 370 820 367 818 q 376 824 374 822 l 379 824 l 388 822 l 399 822 q 407 824 404 822 l 414 828 l 417 828 q 421 826 419 828 l 428 824 q 432 822 429 822 q 438 824 435 822 q 443 825 442 825 q 446 825 444 825 q 449 824 449 825 l 456 819 q 458 818 457 818 q 461 818 460 818 q 467 819 464 818 q 472 821 469 821 q 474 821 472 821 q 481 817 478 821 q 486 811 483 813 q 492 808 489 810 q 499 804 494 806 q 501 803 501 803 l 508 800 q 510 799 510 800 q 511 799 510 799 q 517 796 514 797 q 522 792 519 794 q 535 786 531 789 q 538 785 538 785 l 544 782 q 547 781 546 782 q 549 780 549 781 q 551 779 550 779 l 558 778 q 563 776 561 778 q 565 772 565 775 l 565 768 q 568 764 567 767 q 572 760 569 763 l 586 750 q 590 746 589 747 q 592 743 592 744 q 592 740 592 742 l 590 736 q 592 731 590 733 q 595 725 593 728 q 600 719 597 722 q 601 717 600 718 l 601 710 q 603 707 603 708 q 604 704 603 706 l 607 697 q 608 694 608 696 q 611 688 610 692 q 613 682 613 685 q 614 679 613 681 l 614 672 q 615 669 615 672 l 615 667 l 614 658 l 614 656 q 617 650 615 653 q 619 644 619 647 l 619 642 l 618 633 l 618 631 q 622 625 618 628 q 628 619 626 622 q 629 615 629 618 q 628 610 629 613 q 628 607 628 608 q 629 603 628 604 q 639 592 631 597 q 646 588 642 589 q 653 586 650 588 q 664 578 664 585 q 663 572 664 575 q 651 560 657 563 q 646 557 650 558 l 643 557 q 638 554 640 557 q 635 549 636 553 l 633 546 q 631 540 633 543 q 626 538 629 539 l 622 538 q 618 535 621 538 q 614 527 615 532 q 610 521 613 522 q 607 519 608 519 q 601 521 604 519 q 596 522 597 522 q 593 522 594 522 q 581 517 589 519 q 574 513 578 515 q 568 510 571 510 l 553 506 l 542 506 q 529 507 533 506 l 526 507 l 519 510 l 517 510 q 513 511 515 510 l 510 513 q 506 514 508 514 l 494 519 q 492 519 493 519 q 486 517 489 519 q 481 515 483 515 q 479 515 481 515 q 465 519 471 518 q 461 525 463 521 q 457 532 460 529 l 446 538 q 443 540 446 538 l 435 546 q 432 551 433 549 l 433 554 q 431 560 433 558 q 428 564 429 563 l 426 567 q 424 571 426 569 q 424 574 424 572 q 425 578 424 575 q 426 585 426 582 q 426 586 426 586 q 425 588 425 586 l 418 593 l 418 610 q 419 624 418 613 q 421 636 419 635 q 425 639 422 639 l 428 642 q 432 644 431 643 q 435 650 433 647 q 440 656 438 653 l 440 669 q 443 676 443 672 q 444 682 443 679 q 446 688 446 685 q 449 693 446 690 q 451 696 449 693 l 457 700 q 460 703 460 703 l 460 717 q 458 731 460 726 q 454 735 457 733 q 449 740 451 738 q 435 744 443 744 q 429 747 433 746 q 421 749 425 747 q 408 751 415 750 q 403 748 406 751 q 397 743 400 744 q 394 742 396 743 l 388 742 q 385 740 386 740 q 382 739 383 740 l 376 736 q 375 735 375 736 q 374 735 375 735 q 371 733 372 735 l 367 729 q 364 728 365 729 q 358 726 363 726 l 354 729 q 353 729 353 729 q 349 728 350 729 q 346 722 347 726 l 346 719 q 343 714 346 717 q 338 711 342 713 l 335 713 q 329 710 332 713 q 328 704 328 708 l 329 700 q 329 699 329 699 q 328 694 329 696 q 321 692 325 692 q 315 689 317 692 q 310 683 313 686 q 307 678 308 681 q 304 674 306 676 l 306 669 q 303 665 306 668 l 303 650 q 300 649 301 649 l 292 642 l 292 639 l 290 631 l 290 628 l 286 615 q 282 611 285 614 l 276 610 q 272 606 274 608 l 272 603 l 274 594 l 274 592 q 272 589 274 590 l 272 582 q 271 579 271 582 q 269 573 271 576 q 267 567 268 569 q 268 560 267 564 q 269 556 269 557 q 269 553 269 554 q 269 551 269 551 q 268 550 268 551 l 264 543 q 263 540 263 542 q 260 528 263 536 q 257 522 260 525 q 253 515 254 518 q 254 513 253 513 l 257 504 q 258 501 258 504 q 255 495 258 499 q 251 488 251 492 l 251 461 q 252 453 251 457 q 253 447 253 450 l 253 444 l 254 436 l 254 433 q 255 427 254 431 q 256 419 256 424 q 257 417 257 418 q 256 413 257 415 q 254 407 254 410 q 256 401 256 404 q 255 398 256 400 q 254 393 254 396 q 258 386 256 389 q 261 379 261 383 q 264 374 261 376 q 268 367 267 371 l 268 364 l 271 357 l 271 354 q 271 351 271 353 q 269 347 271 350 q 268 340 268 343 q 269 338 268 338 l 269 329 q 271 326 271 329 q 272 324 271 325 l 272 317 q 274 314 274 317 q 275 300 275 310 q 279 286 278 292 q 282 281 281 283 q 286 275 283 278 q 290 269 288 272 q 296 264 293 267 q 297 258 297 261 q 300 253 297 256 q 301 250 300 250 l 301 242 q 303 239 303 242 q 306 233 306 236 q 307 226 306 229 q 311 221 310 224 q 314 215 313 218 l 321 207 q 322 206 321 206 q 322 204 322 206 q 325 200 325 203 l 325 196 q 328 192 326 194 q 331 189 329 190 l 336 186 q 339 183 338 185 l 346 176 q 347 175 346 175 q 347 174 347 175 q 350 171 349 172 l 354 168 q 357 165 356 167 q 360 161 360 164 l 361 157 q 364 153 363 156 q 365 152 365 153 q 367 151 365 151 l 374 149 q 376 147 376 149 q 379 144 378 146 l 382 139 q 385 136 383 138 q 390 133 388 135 l 393 135 q 399 132 397 135 q 400 131 400 132 q 401 131 400 131 l 407 128 q 410 126 410 128 q 415 120 413 124 q 419 115 417 117 q 425 114 422 114 l 428 115 q 431 115 429 115 q 433 114 432 115 q 438 110 436 113 l 439 106 q 443 101 442 103 l 457 101 q 463 99 460 100 q 469 97 467 97 q 475 96 472 96 q 478 97 476 96 q 483 97 481 97 q 507 103 497 97 q 510 103 508 103 q 514 101 511 103 q 519 100 517 100 q 522 101 521 100 q 532 110 526 104 q 540 121 538 115 q 542 125 542 122 q 542 126 542 125 l 542 129 q 543 135 542 133 q 547 138 544 138 l 551 139 q 556 142 554 140 q 557 144 557 143 q 555 150 557 147 q 553 156 553 153 q 553 157 553 156 l 553 168 q 551 181 553 176 q 552 185 551 183 q 553 189 553 188 q 551 193 553 192 q 549 199 550 196 q 544 204 547 201 q 540 207 543 207 q 533 210 536 207 l 524 219 q 521 222 522 221 l 518 228 q 515 231 517 229 l 506 240 l 501 240 l 493 238 l 489 238 q 476 243 485 240 q 474 244 475 244 l 469 249 q 465 250 468 250 q 453 253 457 253 q 451 253 451 253 q 450 254 451 254 l 443 257 q 440 258 442 258 l 428 258 q 425 257 425 258 l 417 253 q 414 251 417 251 l 403 263 q 399 262 400 263 q 396 261 397 261 q 388 259 392 261 q 382 257 385 257 q 381 257 382 257 q 376 258 379 257 l 372 263 q 369 264 371 264 l 344 272 q 342 274 343 274 l 335 275 q 332 276 333 276 l 321 283 q 318 288 319 286 l 317 292 q 314 296 317 294 l 307 303 q 306 303 306 303 q 304 304 306 304 l 297 315 q 293 318 296 318 l 289 321 q 285 324 288 322 l 279 335 l 275 349 q 278 355 275 351 q 281 361 281 358 q 281 363 281 361 q 278 375 278 371 q 275 388 275 383 q 272 395 275 392 q 268 401 268 399 q 272 406 268 404 l 275 410 q 279 414 279 413 q 281 428 279 424 q 278 435 281 431 q 276 442 276 439 q 276 443 276 442 q 277 444 276 444 q 278 446 278 444 l 283 451 q 284 453 283 453 q 285 454 285 453 q 286 457 286 457 l 288 465 q 289 468 289 467 q 299 477 290 471 q 311 486 308 483 q 313 490 313 488 q 313 492 313 490 l 313 496 q 314 501 313 500 q 318 504 317 504 l 322 507 q 326 510 325 508 q 332 513 329 513 l 335 511 q 340 514 339 513 l 350 524 q 351 524 351 524 q 353 525 351 525 l 358 531 q 360 531 360 531 q 361 532 360 532 q 364 532 363 532 q 369 531 365 532 q 376 529 374 529 q 383 535 379 531 q 390 540 386 539 q 406 539 400 540 q 413 540 408 539 q 421 540 417 540 q 431 532 431 540 q 429 525 431 529 q 428 513 428 521 q 429 506 428 508 q 432 500 431 503 q 438 489 432 497 q 446 479 443 481 q 449 478 449 478 l 456 475 q 457 474 457 475 q 458 474 457 474 q 460 473 460 474 q 461 472 460 472 l 467 468 q 468 467 468 468 q 469 467 468 467 q 472 467 471 467 q 478 468 474 467 q 485 469 482 469 q 490 467 488 468 q 497 464 493 465 q 503 460 500 464 q 508 456 506 457 l 511 456 l 519 457 l 522 457 q 528 456 525 457 q 535 453 532 454 q 547 450 539 453 q 553 452 550 450 q 560 454 557 454 q 561 454 560 454 q 564 453 564 453 l 571 449 q 578 449 574 449 q 586 447 583 449 l 611 439 q 613 438 613 439 q 614 438 613 438 l 618 431 q 619 430 619 431 q 621 429 619 429 q 624 426 624 428 l 626 422 q 629 419 628 421 q 635 418 632 418 l 638 418 q 640 418 639 418 q 643 417 642 418 q 653 410 649 414 q 656 407 653 410 l 661 400 q 671 392 667 394 q 676 389 674 389 l 679 388 q 685 385 682 388 q 688 379 688 382 q 687 378 688 379 q 686 375 686 376 q 688 371 686 372 l 692 358 q 695 353 693 356 q 697 347 697 350 l 697 332 q 699 329 697 331 l 699 322 q 700 319 700 322 q 704 314 701 317 q 708 307 707 311 l 708 304 l 710 297 l 710 294 q 713 281 713 286 q 708 274 713 278 q 704 267 704 271 l 704 254 q 706 248 704 251 q 707 240 707 244 l 707 238 l 706 231 l 706 228 q 704 222 706 225 q 701 215 703 218 l 697 203 q 696 200 697 201 l 696 193 q 694 190 694 193 q 693 188 694 188 l 693 179 q 692 176 692 179 l 688 164 l 678 154 l 671 143 q 668 139 669 142 l 669 135 q 667 131 669 133 q 666 129 667 129 q 665 128 665 129 l 663 121 q 661 118 663 119 q 657 115 660 117 l 653 114 q 649 111 651 114 q 646 107 647 110 l 644 104 q 642 100 644 103 q 639 99 640 99 l 632 96 q 628 92 631 96 l 621 85 q 617 82 619 83 l 613 81 q 608 78 611 81 q 607 72 607 76 l 607 68 q 607 67 607 67 q 606 63 607 64 q 600 61 604 61 l 597 61 q 596 61 596 61 q 592 60 593 61 q 590 59 590 60 q 589 58 590 58 l 581 51 q 576 49 579 50 l 574 49 q 569 46 572 49 q 564 43 567 44 q 558 39 561 42 q 557 38 557 39 q 556 38 557 38 l 551 31 q 550 30 550 31 q 549 29 550 29 q 544 26 547 28 l 540 28 q 536 25 539 28 q 535 24 535 25 q 533 24 535 24 l 528 21 q 526 20 526 21 q 525 19 526 19 q 524 19 524 19 q 522 18 524 18 l 515 15 q 513 14 514 14 q 511 13 511 14 q 510 13 511 13 l 504 10 q 503 9 503 10 q 501 8 503 8 q 494 10 497 8 q 488 13 490 13 q 486 13 488 13 q 481 11 482 13 l 468 6 q 465 5 465 6 q 461 4 464 4 q 449 1 453 1 l 435 1 q 431 0 433 0 q 427 1 429 0 q 422 1 425 1 l 419 1 l 411 0 l 406 0 l 399 -1 l 393 -1 l 385 -3 l 382 -3 q 365 0 374 0 l 360 4 q 358 5 358 4 q 356 6 357 6 q 350 4 353 6 q 346 3 347 3 q 343 3 344 3 q 336 5 339 3 q 331 8 333 7 q 324 11 328 10 q 318 13 321 13 l 306 17 l 301 17 l 294 15 l 290 15 q 289 16 289 15 q 288 17 289 17 l 282 21 q 281 22 281 21 q 279 22 281 22 q 278 23 278 22 q 276 24 278 24 l 269 26 q 267 28 268 28 q 264 29 265 29 l 257 31 q 254 32 256 32 q 248 33 251 33 q 242 36 244 33 q 240 37 240 36 q 239 38 240 38 l 235 43 q 233 44 233 43 q 232 44 233 44 l 225 53 q 222 56 222 56 q 218 58 221 58 l 215 60 q 211 63 214 61 q 208 64 210 64 q 206 64 207 64 l 201 61 q 196 63 199 61 l 189 69 q 188 70 188 69 q 186 71 188 71 q 183 75 185 74 l 182 79 q 179 83 182 82 q 176 86 178 85 l 174 92 q 171 94 172 93 q 165 97 169 97 l 163 97 q 157 100 160 99 q 149 110 151 106 q 146 114 147 113 l 144 117 q 142 121 144 119 q 139 124 140 122 l 133 126 q 131 129 132 128 q 130 131 131 131 q 129 132 129 131 l 126 139 q 122 143 126 142 l 117 147 q 115 148 115 147 q 114 149 115 149 q 111 154 113 151 l 113 157 q 110 163 113 161 q 101 165 107 165 q 94 168 96 165 q 93 171 93 171 l 89 178 q 88 181 89 179 q 88 183 88 182 q 89 188 88 185 q 90 193 90 190 q 89 196 90 194 q 86 199 89 196 l 78 206 q 77 207 78 207 q 76 208 76 207 l 69 213 l 64 226 q 63 229 64 228 l 63 246 l 61 254 q 60 260 61 258 l 54 265 l 47 278 q 46 281 46 279 q 44 283 46 282 l 44 290 q 43 293 43 292 q 42 296 43 294 l 39 303 q 38 304 39 304 q 38 306 38 304 q 39 313 38 310 q 40 317 40 315 q 39 319 40 318 q 39 322 39 321 q 40 327 39 325 q 40 331 40 329 q 40 333 40 332 q 36 340 40 338 q 31 346 32 343 q 32 352 31 349 q 33 357 33 356 q 32 360 33 358 q 33 365 32 363 q 33 369 33 368 q 32 374 33 372 q 33 380 32 376 q 35 388 35 383 q 33 390 35 390 l 31 397 q 29 400 29 399 z "},"7":{"ha":671,"x_min":24,"x_max":715,"o":"m 44 17 q 36 18 40 18 q 29 19 32 18 q 36 32 31 26 q 39 35 39 33 l 42 38 q 44 40 43 39 q 52 44 49 43 q 58 47 56 44 q 64 50 61 50 l 68 51 q 74 54 72 53 q 82 68 79 63 q 83 71 83 71 l 86 78 q 87 79 86 79 q 88 81 88 79 q 89 85 89 82 q 88 87 89 86 q 88 88 88 88 q 90 93 88 90 q 91 94 90 94 q 92 96 92 94 l 96 101 q 97 103 96 103 q 97 104 97 103 q 103 117 100 108 q 104 121 104 118 q 104 124 104 122 q 104 128 104 126 q 104 131 104 129 q 110 133 107 133 l 113 136 q 118 139 117 138 q 119 145 119 142 q 122 151 119 149 q 128 163 124 157 q 129 169 129 165 q 132 175 129 172 q 133 176 132 176 q 133 178 133 176 l 139 183 q 140 185 139 185 q 140 186 140 185 q 143 190 143 189 l 144 193 q 147 197 146 196 q 147 200 147 199 q 147 203 147 201 q 146 207 146 206 q 147 211 146 210 q 152 216 149 214 q 158 221 156 218 q 160 224 160 222 q 158 226 160 225 l 158 229 q 158 233 158 232 q 158 235 158 235 q 160 238 160 238 l 163 244 q 163 246 163 246 q 164 247 164 246 q 165 249 164 249 q 165 250 165 249 l 172 254 l 178 267 q 178 268 178 268 q 179 269 179 268 q 181 274 181 271 q 180 276 181 275 q 179 278 179 278 q 182 283 179 281 q 183 290 183 286 q 186 296 183 293 q 190 299 188 299 l 194 301 q 199 304 197 303 q 201 310 200 307 q 204 315 201 313 q 206 319 206 317 q 205 322 206 321 q 204 324 204 324 q 207 329 204 326 l 207 332 l 208 340 l 208 343 q 215 347 211 346 q 221 351 219 349 q 222 354 222 353 q 221 360 222 357 q 219 365 219 363 q 219 367 219 365 q 226 372 222 369 q 231 376 229 374 q 232 383 232 379 q 235 389 232 386 q 238 394 236 392 q 243 399 240 396 q 244 404 244 401 l 243 407 q 244 413 243 411 q 247 415 244 413 l 253 419 q 256 422 256 422 q 257 425 257 425 l 258 432 q 259 433 258 433 q 260 435 260 433 q 261 441 261 438 q 264 447 261 444 q 265 449 264 449 q 265 450 265 449 l 272 454 q 273 456 272 456 q 274 457 274 456 q 275 461 275 458 q 274 465 275 463 q 274 469 274 468 q 274 472 274 471 q 274 474 274 474 q 275 475 275 474 l 281 479 q 281 481 281 481 q 282 482 282 481 q 283 485 283 485 l 286 492 q 287 493 286 493 q 288 494 288 493 q 288 496 288 496 q 289 497 289 496 l 294 503 q 295 504 294 504 q 296 506 296 504 q 301 510 299 508 q 304 515 303 513 q 305 517 304 517 q 306 518 306 517 l 310 524 q 310 525 310 525 q 311 526 311 525 q 311 528 311 528 q 309 534 311 531 q 307 540 307 538 q 308 543 307 542 q 309 544 308 544 q 310 546 310 544 l 317 550 q 317 551 317 551 q 318 553 318 551 l 326 560 q 329 563 329 563 q 331 569 331 565 q 333 575 331 572 q 335 581 335 578 q 338 588 335 585 l 338 601 q 344 606 340 604 q 349 611 347 608 q 350 614 349 614 l 350 622 q 351 625 351 622 q 353 628 353 626 l 358 632 q 360 635 360 633 q 363 640 363 638 q 362 642 363 640 q 361 644 361 643 q 363 649 361 647 q 363 650 363 650 q 364 651 364 650 l 368 657 q 369 658 368 658 q 369 660 369 658 q 375 664 371 663 q 382 668 379 665 q 383 671 383 669 q 382 674 383 672 l 379 678 q 379 682 379 681 q 379 683 379 683 q 380 685 379 685 q 381 686 381 685 l 386 692 q 387 693 386 693 q 388 694 388 693 l 385 694 l 378 699 l 375 699 q 372 699 374 699 q 366 696 369 699 q 360 693 363 693 q 353 696 357 693 q 346 700 350 699 l 343 700 l 335 699 l 332 699 q 331 699 331 699 q 329 700 331 700 l 322 704 q 319 706 321 706 q 313 705 315 706 q 310 704 311 704 q 304 706 307 704 q 290 707 296 706 q 285 706 288 707 q 279 706 282 706 q 276 706 278 706 q 274 707 275 706 l 267 710 q 264 711 267 711 q 263 710 263 711 q 261 710 263 710 l 254 707 q 251 706 253 706 q 250 705 250 706 q 249 704 250 704 l 243 699 q 242 698 242 699 q 240 697 242 697 q 231 690 236 693 q 225 687 228 688 q 221 683 222 686 q 219 681 219 682 q 221 676 219 679 q 222 671 222 674 q 221 657 221 667 q 230 647 221 653 q 242 640 239 640 q 246 644 244 640 q 250 651 247 649 q 257 654 253 654 q 261 653 258 654 q 267 653 264 653 q 281 649 275 653 l 290 639 q 294 633 293 636 q 297 628 296 631 q 304 615 303 619 l 304 613 l 306 604 l 306 601 q 303 595 306 599 q 300 589 301 592 q 297 575 300 583 l 297 572 l 299 564 l 299 561 q 292 556 296 558 q 288 551 289 554 q 285 547 286 550 l 283 544 q 281 540 283 543 q 278 535 279 539 l 279 532 q 276 526 279 529 q 275 526 275 526 q 274 525 275 525 l 267 521 q 264 519 265 521 l 253 513 q 248 506 250 510 q 243 501 246 503 q 239 500 242 500 q 237 501 238 500 q 236 501 236 501 q 231 499 233 501 q 228 497 229 499 l 221 497 q 218 496 219 496 q 215 494 217 496 l 208 490 q 206 489 207 489 q 199 488 203 488 q 192 486 196 488 q 179 485 188 485 q 172 487 175 485 q 165 489 168 489 l 151 489 q 150 490 150 489 q 149 490 150 490 l 143 497 q 142 498 142 497 q 140 499 142 499 l 126 499 q 124 500 125 500 q 121 500 122 500 l 118 500 q 113 501 115 500 q 110 507 111 504 l 108 511 q 106 517 108 515 l 96 526 q 93 529 94 528 l 88 532 q 85 535 86 533 q 81 538 83 538 l 76 538 q 72 540 75 539 q 69 543 72 540 l 63 546 l 60 549 q 57 553 58 551 l 56 557 q 53 561 56 560 q 51 565 51 563 q 52 569 51 567 q 53 572 53 571 q 51 575 53 574 q 46 581 49 578 q 42 586 43 583 q 35 601 36 593 l 35 608 q 33 611 33 610 q 32 614 33 613 l 29 621 q 28 622 29 622 q 28 624 28 622 q 29 630 28 626 q 31 635 31 633 q 29 638 31 636 l 29 650 q 26 658 29 654 q 24 664 24 661 l 24 667 l 28 674 l 28 676 q 30 683 28 679 q 33 689 32 686 q 33 694 33 692 q 32 699 32 697 q 33 703 32 701 q 35 717 33 713 q 40 722 36 719 q 46 726 43 724 l 46 729 l 47 738 l 47 740 q 54 751 53 746 q 58 754 57 754 l 63 756 q 67 758 65 757 q 68 761 68 760 l 72 767 q 74 769 74 769 q 76 775 76 772 l 75 778 q 78 783 76 782 q 83 786 81 786 l 88 785 q 93 788 92 786 q 97 790 96 790 l 99 792 q 103 794 101 793 q 104 797 104 796 l 107 806 q 108 808 108 808 q 111 808 110 808 q 115 808 113 808 q 118 807 117 807 q 122 808 121 807 q 125 810 125 808 l 132 810 q 135 811 133 811 q 138 813 136 811 l 142 819 q 149 823 144 822 q 157 824 154 824 q 163 826 160 825 q 169 828 167 828 q 171 828 171 828 q 177 824 174 828 q 183 821 181 821 q 189 824 186 822 q 194 825 192 825 q 208 826 200 826 q 215 825 211 826 q 222 824 218 824 q 225 825 225 824 l 232 828 q 240 830 233 829 q 249 831 246 831 q 251 829 251 829 l 258 824 q 260 823 260 824 q 261 822 260 822 l 289 822 q 292 821 292 821 l 299 817 q 300 816 300 817 q 301 815 300 815 q 303 815 303 815 q 304 814 303 814 l 308 808 q 310 808 310 808 q 311 807 310 807 q 315 806 314 806 l 319 806 q 324 804 322 806 q 326 803 326 803 l 333 800 q 335 799 335 800 q 336 799 335 799 l 349 794 q 351 794 350 794 q 353 794 353 794 l 357 794 q 360 796 358 796 q 361 794 361 796 q 375 793 365 793 q 381 790 378 792 q 388 788 385 788 l 390 788 l 399 789 l 401 789 q 407 790 404 789 q 411 790 410 790 q 415 789 414 790 l 418 789 l 425 785 l 428 785 q 431 783 431 785 l 439 781 q 442 779 439 779 q 444 781 444 779 l 451 786 q 459 788 453 788 q 468 789 465 789 q 471 790 469 790 q 474 789 472 790 l 476 786 q 481 786 479 786 q 482 786 482 786 q 488 785 485 786 q 493 783 492 783 q 496 783 494 783 q 501 787 499 783 q 507 792 504 790 l 510 792 l 515 796 l 518 796 l 531 800 q 537 797 533 800 q 543 793 540 793 q 544 793 544 793 l 547 793 l 554 796 l 557 796 q 561 797 558 797 q 565 797 563 797 q 569 796 567 796 q 576 799 572 796 q 582 804 579 803 q 585 803 585 804 l 592 800 q 594 799 593 799 l 597 799 l 604 800 l 621 800 q 624 801 624 800 l 631 804 q 633 806 632 806 q 638 807 636 807 q 642 806 639 807 q 647 804 644 804 l 650 804 l 658 808 l 664 808 l 672 806 l 675 806 q 681 808 678 806 q 689 810 685 810 q 695 808 692 810 q 701 804 699 806 q 708 803 706 804 q 713 801 710 801 q 714 794 713 797 q 715 790 715 792 q 714 788 715 789 q 711 786 713 786 l 704 785 q 701 783 703 785 q 699 781 700 782 l 696 776 q 693 774 694 775 q 689 771 692 772 l 685 769 q 681 767 683 769 q 680 765 681 765 q 679 764 679 765 l 676 758 q 676 757 676 757 q 675 756 675 757 q 674 754 675 754 q 674 753 674 754 l 667 749 q 666 747 667 747 q 665 746 665 747 q 664 742 664 744 q 665 738 664 740 q 665 733 665 735 q 665 731 665 732 q 665 729 665 729 q 664 728 664 729 l 658 724 q 658 722 658 722 q 657 721 657 722 q 654 715 654 718 q 655 714 654 715 q 656 711 656 713 q 654 707 656 708 q 650 704 653 706 l 646 701 q 642 699 643 701 q 642 697 642 699 q 642 693 642 696 l 644 688 q 646 685 646 686 q 644 682 646 683 q 640 679 643 681 l 638 676 q 633 674 635 676 l 624 664 l 624 646 l 622 638 l 622 635 q 621 632 621 633 l 614 625 q 610 622 613 624 l 606 619 q 601 617 603 619 q 600 614 601 614 l 600 606 l 590 592 l 590 589 l 589 582 l 589 579 q 586 574 586 576 q 587 572 586 574 q 588 569 588 571 q 586 565 588 567 q 585 564 586 564 q 585 563 585 564 l 579 557 q 578 556 579 556 q 578 554 578 556 q 576 550 576 553 l 576 546 q 575 542 576 544 q 574 540 575 540 q 574 539 574 540 l 571 532 q 569 529 571 531 q 569 528 569 528 q 568 526 568 528 l 565 521 q 565 519 565 519 q 564 518 564 519 q 563 517 564 517 q 563 515 563 517 l 560 508 q 558 506 558 507 q 556 500 557 503 q 551 494 554 497 l 547 482 q 547 481 547 481 q 546 479 546 481 l 542 474 q 541 472 542 472 q 540 471 540 472 q 539 465 539 468 q 536 458 539 461 q 530 454 535 456 q 522 450 525 453 q 521 446 521 449 l 522 442 q 521 438 522 440 q 520 436 521 436 q 519 435 519 436 l 517 428 q 515 425 517 426 q 514 422 515 422 l 514 414 q 513 411 513 414 q 511 407 511 410 l 511 403 q 510 399 511 401 q 504 396 508 397 l 501 393 q 496 390 499 393 q 493 385 494 388 q 489 379 492 382 q 488 375 488 378 q 488 373 488 374 q 489 372 489 372 q 486 367 489 369 l 486 351 q 481 349 486 349 l 476 347 q 471 344 471 347 q 469 340 469 343 q 470 338 469 339 q 471 333 471 336 q 469 331 471 332 q 467 324 467 328 q 465 318 467 321 q 464 315 465 317 l 464 308 q 463 306 463 308 q 457 303 461 304 l 454 300 q 449 297 451 300 q 449 296 449 296 q 451 290 449 293 q 453 283 453 286 q 451 281 453 282 q 446 276 450 278 q 439 272 442 275 l 439 269 l 438 261 l 438 258 q 432 253 435 256 q 428 249 429 251 q 426 246 426 247 q 428 240 426 243 q 429 236 429 238 q 429 233 429 235 q 423 229 428 231 q 415 225 418 228 q 415 222 415 224 q 415 219 415 221 q 415 215 415 217 q 414 211 415 213 q 411 206 413 208 q 407 200 410 203 q 402 195 406 197 q 396 190 399 193 l 396 175 l 392 161 q 386 158 390 160 l 383 156 q 378 153 381 156 l 378 149 l 379 142 l 379 138 q 374 133 378 135 q 367 128 369 131 l 363 114 q 361 110 361 113 q 362 106 361 108 q 363 101 363 103 q 363 99 363 100 q 358 93 360 96 q 354 88 356 90 q 349 83 351 85 q 346 78 347 81 q 346 75 346 76 q 347 71 346 74 q 347 65 347 68 q 347 60 347 63 q 346 56 346 57 q 346 51 346 54 q 353 42 349 46 q 356 31 356 33 q 353 19 356 22 q 342 17 351 17 q 333 20 338 17 q 326 24 329 24 q 321 21 324 24 l 317 18 q 311 15 314 15 l 308 15 l 301 17 l 299 17 q 285 14 288 14 l 268 14 l 261 15 l 258 15 q 256 17 256 15 l 247 19 q 244 21 247 21 q 240 18 243 21 l 236 14 q 232 11 235 11 q 229 13 229 11 l 221 15 q 218 17 221 17 l 215 17 l 208 21 l 206 21 q 198 17 201 21 q 192 14 194 14 q 189 14 190 14 q 185 15 188 14 q 179 17 182 17 q 172 18 175 17 q 165 19 168 19 q 163 18 164 19 l 156 15 q 148 13 154 14 q 139 13 142 13 l 125 13 q 122 14 124 13 l 115 18 q 113 19 115 19 l 110 19 l 101 21 l 99 21 q 86 18 90 18 q 83 17 83 18 l 75 14 q 72 13 75 13 q 58 14 63 13 q 44 17 53 14 z "},"8":{"ha":676,"x_min":29,"x_max":649,"o":"m 150 431 q 156 433 153 433 l 158 433 q 164 436 163 435 q 163 438 164 438 q 163 439 163 438 l 158 446 q 157 449 158 449 q 154 450 156 450 q 151 450 153 450 l 147 450 q 142 451 144 450 q 140 457 140 454 l 140 460 q 140 463 140 461 q 139 465 140 464 q 134 469 136 468 q 131 474 132 471 q 130 475 131 475 q 129 476 129 475 l 125 482 q 124 485 125 485 q 119 490 121 488 q 117 496 118 493 q 114 499 117 496 l 107 501 l 104 504 q 103 508 103 507 l 103 513 q 101 517 103 515 q 100 519 100 519 l 90 539 q 90 540 90 540 q 89 542 89 540 l 85 554 q 85 557 85 556 q 85 560 85 558 l 89 563 q 90 567 90 565 q 89 568 90 568 l 85 581 l 85 583 l 82 590 l 82 593 q 81 596 82 596 l 81 604 q 79 607 79 604 l 79 610 l 81 617 l 81 619 q 82 627 81 624 q 83 633 83 631 l 83 649 l 85 657 l 85 660 q 86 663 85 663 l 86 669 q 88 672 88 671 l 92 685 q 96 690 93 688 q 101 696 99 693 l 101 710 l 111 719 q 119 729 114 724 l 126 738 q 127 739 126 739 q 128 740 128 739 q 129 747 129 743 q 132 753 129 750 q 135 756 133 754 l 140 758 q 143 761 142 760 l 168 786 q 169 789 169 789 q 174 792 172 792 l 178 790 q 182 793 181 792 l 185 793 l 193 794 l 196 794 q 207 800 201 799 q 211 804 210 801 l 213 808 q 217 813 215 811 q 224 815 221 814 q 232 815 228 815 l 240 814 l 243 814 q 247 815 244 815 q 251 815 249 815 q 256 814 253 814 q 263 818 260 815 q 268 822 265 821 q 281 824 276 822 q 288 823 285 824 q 294 822 292 822 q 301 825 297 824 q 307 826 304 826 q 313 825 310 826 q 318 824 317 824 q 321 824 319 824 l 324 824 l 331 828 l 336 828 l 343 824 l 346 824 q 353 828 350 824 q 360 833 357 833 q 374 831 363 833 q 379 826 376 831 q 385 821 382 822 q 392 823 389 821 q 399 825 396 825 q 401 825 400 825 q 404 825 403 825 l 407 828 q 411 829 410 829 q 413 828 413 829 l 415 828 l 422 825 l 425 825 q 432 820 429 824 q 438 817 435 817 q 439 816 439 817 q 440 815 439 815 l 446 811 q 451 810 447 810 l 460 808 q 468 808 463 808 q 476 806 474 807 q 478 805 478 806 q 479 804 478 804 l 485 801 q 486 801 486 801 q 488 800 486 800 q 500 794 492 797 q 503 792 501 793 l 506 786 q 508 783 507 785 q 511 781 508 783 l 517 772 q 522 769 519 771 l 525 771 q 531 768 529 771 q 533 765 531 768 l 539 757 q 542 753 542 756 l 543 750 q 546 746 544 749 q 549 742 549 744 l 549 738 q 551 733 550 736 q 558 729 554 731 q 563 725 561 728 q 568 719 565 722 q 572 714 571 717 q 574 713 574 714 q 572 708 574 711 l 572 706 q 572 703 572 704 q 572 700 572 701 q 573 699 572 699 q 574 697 574 699 l 576 690 q 578 688 578 689 l 578 685 l 576 676 l 576 674 q 581 668 576 671 q 586 663 585 665 q 582 656 586 660 q 578 647 578 651 l 578 644 l 581 638 l 581 622 q 582 619 581 619 l 585 611 q 586 608 586 611 q 584 602 586 606 q 581 596 582 599 l 581 593 l 583 585 l 583 582 q 583 581 583 581 q 582 579 582 581 l 576 574 q 576 572 576 572 q 575 571 575 572 q 576 565 575 568 q 578 560 578 561 q 578 557 578 558 q 572 551 576 553 q 567 546 568 549 q 567 544 567 546 q 568 540 567 543 l 571 536 q 572 532 572 535 q 572 531 572 532 q 565 518 567 522 q 562 513 564 515 q 557 507 560 510 q 556 503 556 506 l 556 499 q 554 494 556 497 q 553 493 554 493 q 553 492 553 493 l 546 483 q 542 472 544 481 q 536 469 539 469 q 534 470 535 469 q 532 471 533 471 q 528 468 529 471 q 526 465 526 467 q 530 460 526 464 q 533 454 533 457 q 535 451 535 453 q 534 447 535 449 q 533 443 533 444 q 536 438 533 440 q 542 435 539 436 l 547 436 q 553 433 551 436 q 556 428 556 432 l 554 425 q 557 419 556 422 q 563 417 560 418 l 565 417 q 571 414 569 417 l 579 401 q 581 399 581 400 q 580 394 581 396 q 579 390 579 392 q 581 386 579 388 l 588 379 q 588 378 588 378 q 589 376 589 378 q 599 363 590 371 l 603 357 q 603 356 603 356 q 604 354 604 356 q 608 349 606 351 q 613 343 610 346 q 618 332 614 338 q 619 329 618 329 l 619 321 q 621 318 621 321 q 628 313 624 315 q 633 308 632 311 q 635 302 635 306 q 636 294 635 299 q 638 293 638 294 q 636 289 638 292 l 633 286 q 633 283 633 285 q 633 281 633 282 l 633 278 l 636 271 l 636 268 q 641 262 638 265 q 644 256 644 258 q 644 253 644 254 q 643 248 644 251 q 642 242 642 244 q 644 229 644 233 q 647 222 644 225 q 649 217 649 219 q 649 215 649 217 q 647 209 649 213 q 643 201 644 206 q 642 189 643 193 q 638 183 642 186 q 633 178 635 181 q 633 175 633 176 q 634 169 633 172 q 635 165 635 167 q 635 163 635 164 q 634 161 635 161 q 633 160 633 161 l 629 154 q 628 153 629 153 q 628 151 628 153 q 626 147 626 150 q 627 143 626 146 q 628 139 628 140 q 628 136 628 138 q 621 132 625 133 q 615 128 617 131 q 613 124 614 126 l 613 119 q 610 115 613 118 l 600 106 q 597 103 599 104 l 593 100 q 590 97 592 99 q 588 94 589 96 l 582 92 q 579 89 581 90 q 576 86 579 89 l 574 81 q 560 69 565 72 q 557 65 558 68 l 556 61 q 553 57 556 60 q 547 54 550 54 q 540 53 543 54 q 538 50 540 53 l 531 42 q 525 40 529 40 l 521 43 q 519 43 519 43 q 515 42 517 43 q 514 41 514 42 q 513 40 514 40 l 507 38 q 506 37 506 38 q 504 36 506 36 q 501 33 504 36 l 493 26 q 482 22 485 24 l 468 18 l 465 18 l 457 19 l 454 19 q 447 16 453 19 q 440 11 442 13 l 433 11 q 431 10 433 10 q 428 8 428 10 l 419 8 q 417 7 419 7 l 414 7 l 407 3 l 404 3 q 398 1 401 3 q 392 -3 394 -1 q 385 -3 389 -3 q 378 -4 382 -4 l 365 -4 q 359 -1 363 -4 q 351 3 356 3 l 349 3 l 342 6 l 339 6 q 336 4 338 6 l 329 -1 q 326 -3 329 -3 q 320 1 324 -3 q 313 4 317 4 l 310 4 l 303 1 l 297 1 l 290 3 l 285 3 l 276 0 q 269 1 272 0 q 261 3 265 1 q 255 3 258 3 q 247 4 251 4 l 235 4 q 229 11 232 6 q 224 17 226 17 l 221 17 l 214 18 l 211 18 q 197 19 201 18 l 185 19 q 183 20 183 19 q 182 21 183 21 l 175 25 q 172 26 174 26 q 166 28 169 28 q 160 31 163 28 q 153 32 157 32 q 147 35 150 32 q 144 39 146 36 l 143 43 q 140 47 143 46 q 136 50 139 50 l 132 50 q 128 53 131 51 q 124 54 126 54 q 121 53 122 54 q 119 53 119 53 q 114 56 117 53 q 104 64 110 58 q 101 69 103 67 l 101 74 q 99 79 101 78 q 96 81 99 81 l 92 85 q 90 85 90 85 q 89 86 90 86 q 79 94 85 89 q 78 96 79 96 q 78 97 78 96 l 71 106 q 67 108 69 108 l 63 110 q 58 113 61 111 q 58 114 58 114 q 57 115 57 114 l 53 121 q 52 122 53 122 q 51 124 51 122 q 46 136 49 128 q 44 140 44 138 q 45 143 44 142 q 46 146 46 144 q 44 149 46 147 q 39 154 42 151 q 35 160 36 157 l 35 163 l 33 171 q 32 188 33 182 l 32 190 l 33 197 l 33 200 q 31 206 33 203 q 29 214 29 210 q 31 226 29 222 l 31 229 l 29 238 l 29 240 q 31 244 31 242 q 30 247 31 246 q 29 249 29 247 q 31 254 29 251 q 36 260 31 257 q 43 265 42 263 q 41 272 43 268 q 39 279 39 276 q 39 281 39 279 q 40 283 40 283 l 43 290 q 44 292 43 292 q 44 293 44 292 l 44 307 l 54 314 q 57 317 57 317 q 58 319 57 319 l 58 328 q 60 331 60 328 q 63 336 63 333 q 62 338 63 336 q 61 340 61 339 q 63 344 61 343 l 72 351 q 75 354 75 354 q 83 364 81 360 q 86 369 86 367 l 86 372 q 89 378 88 376 q 92 379 90 379 l 99 382 q 101 383 101 383 q 106 386 104 386 l 110 389 q 114 392 113 390 q 117 394 115 393 l 119 399 q 122 401 121 400 q 125 406 125 404 l 126 410 q 129 414 128 413 q 132 417 131 415 l 136 422 q 139 425 138 424 q 150 431 144 426 m 463 597 l 463 600 l 464 607 l 464 610 q 466 617 464 614 q 468 624 468 621 q 462 631 467 628 q 457 638 457 635 l 457 642 l 458 649 l 458 653 q 449 664 453 661 q 440 675 443 672 q 428 682 432 681 q 424 683 425 683 q 418 682 421 683 q 413 681 415 681 q 406 683 410 683 q 399 685 403 683 q 383 681 390 685 l 376 678 q 374 676 375 676 q 372 676 372 676 q 371 675 372 675 l 363 668 q 357 665 360 665 q 356 666 357 665 q 354 667 354 667 q 350 664 351 667 q 347 657 347 661 q 346 650 347 653 l 346 635 l 347 626 q 356 600 347 613 q 360 596 357 597 l 372 582 q 385 571 376 579 l 389 567 q 390 565 389 565 q 390 564 390 565 q 392 561 392 564 l 394 554 q 399 550 394 550 l 407 549 q 410 544 408 547 l 414 539 q 415 538 414 538 q 415 536 415 538 l 422 529 q 439 521 429 521 q 442 525 442 521 q 444 535 442 529 q 445 536 444 536 q 446 538 446 536 l 450 543 q 453 551 451 546 q 456 558 456 556 q 457 561 456 561 l 457 568 q 458 571 458 569 l 458 574 l 457 582 l 457 585 q 460 591 458 588 q 463 597 463 594 m 317 150 q 323 147 319 149 q 329 144 326 144 q 336 143 332 144 q 344 142 340 142 q 351 147 347 142 q 358 153 354 151 l 361 153 l 369 149 l 372 149 q 375 150 375 150 l 382 153 q 383 153 383 153 q 385 154 383 154 l 397 158 q 408 167 406 164 q 411 172 411 169 l 411 175 q 414 181 413 179 l 421 188 q 424 189 424 189 q 426 201 426 197 q 428 213 428 204 q 426 222 428 219 q 426 224 426 224 q 428 229 426 226 q 431 233 431 232 q 429 236 431 235 q 422 244 428 239 q 419 247 421 246 l 414 251 q 411 254 413 253 q 399 270 406 261 q 386 286 393 279 q 383 289 385 288 l 367 300 q 364 303 365 301 l 344 318 q 343 319 343 318 q 342 319 343 319 l 335 328 q 332 331 332 331 q 326 333 331 333 l 324 332 q 318 335 321 333 q 313 339 315 336 q 308 344 311 342 l 285 360 q 282 361 283 361 q 279 361 281 361 l 275 361 q 269 363 272 361 l 261 369 q 258 372 258 372 q 246 375 250 375 q 235 369 238 372 q 232 367 233 368 l 229 363 q 226 360 228 361 q 220 358 224 358 q 214 356 217 358 q 211 354 213 354 l 206 350 q 201 346 201 350 l 194 339 q 193 333 193 338 l 196 329 q 196 328 196 328 q 194 324 196 325 l 188 313 q 183 308 186 310 q 178 304 181 307 q 171 292 176 300 q 172 284 171 288 q 174 279 174 281 q 174 276 174 278 q 172 263 174 268 q 171 254 171 258 q 176 236 171 244 l 176 232 l 178 225 l 178 221 q 183 216 179 218 q 189 211 186 214 q 190 207 190 210 q 190 204 190 206 q 189 201 189 203 q 192 196 189 199 q 197 194 194 194 l 203 194 q 206 194 204 194 q 208 193 207 194 l 218 183 q 221 178 221 182 l 221 174 q 224 168 222 171 q 229 165 226 165 q 231 166 229 165 q 233 167 232 167 q 238 165 236 167 q 242 164 239 164 q 245 165 243 164 q 249 165 247 165 q 251 164 250 165 q 254 163 254 163 l 261 160 q 263 159 263 160 q 264 158 263 158 q 265 158 265 158 q 267 157 265 157 l 272 151 q 274 151 274 151 q 275 150 274 150 q 282 147 279 149 q 289 144 285 144 q 292 144 290 144 q 297 146 293 144 q 303 147 300 147 q 306 147 304 147 q 310 149 307 147 q 317 150 313 150 z "},"9":{"ha":740,"x_min":26,"x_max":711,"o":"m 708 422 q 707 419 708 421 l 704 413 q 703 410 703 413 q 704 403 703 406 q 706 399 706 400 q 704 396 706 397 q 706 393 704 394 l 710 386 q 711 383 711 386 q 708 369 708 372 l 708 367 l 706 360 l 706 357 q 704 354 706 356 l 700 347 q 699 344 699 347 q 699 343 699 343 q 701 337 699 340 q 704 331 704 333 q 703 329 704 329 q 703 328 703 329 l 697 321 q 696 318 696 319 l 696 315 l 699 307 l 699 304 q 696 292 696 296 q 694 289 696 290 l 694 282 q 690 276 692 278 l 682 268 l 682 251 l 681 243 l 681 240 q 678 236 679 239 l 678 232 q 675 228 678 231 q 672 224 674 226 l 668 222 q 665 218 667 221 q 663 213 664 215 q 658 207 661 210 q 655 202 657 204 q 650 197 653 200 q 649 192 649 196 l 651 188 q 651 186 651 186 q 650 182 651 183 q 647 178 649 181 l 646 175 q 643 171 646 174 q 639 168 642 169 l 635 167 q 631 164 633 167 q 624 153 625 156 l 614 143 q 613 138 613 142 l 613 135 q 613 133 613 133 q 611 129 613 131 q 606 126 610 128 l 603 125 q 597 122 600 125 q 594 118 596 121 l 593 115 q 590 111 593 114 q 588 108 589 110 l 585 103 q 582 100 583 101 l 572 90 q 567 89 571 89 l 563 89 q 561 89 561 89 q 557 88 558 89 q 554 82 556 86 l 554 79 q 551 74 554 76 q 549 73 550 74 q 547 72 549 72 l 540 71 q 536 69 538 71 q 533 68 535 69 l 526 67 q 524 65 525 67 q 514 57 518 60 q 509 51 511 54 q 504 46 507 47 q 500 44 503 44 q 496 45 499 44 q 492 46 493 46 q 489 46 490 46 q 488 45 488 46 q 486 44 488 44 l 482 38 q 481 37 481 38 q 479 36 481 36 q 473 33 476 33 q 467 32 469 33 q 454 26 463 29 q 453 26 453 26 q 451 25 453 25 l 446 18 q 444 17 444 18 q 443 17 444 17 q 442 17 443 17 q 435 19 439 17 q 429 22 432 22 q 426 22 428 22 q 421 17 424 21 q 415 14 418 14 q 401 13 411 13 l 389 8 q 386 8 388 8 q 381 10 385 8 q 375 11 378 11 q 361 7 367 8 q 349 4 357 7 l 346 4 l 338 6 l 335 6 q 332 4 333 6 l 325 1 q 322 0 325 0 q 315 3 318 0 q 308 6 311 6 q 301 4 304 6 q 297 3 299 3 q 294 3 296 3 q 287 5 290 3 q 281 7 283 7 q 279 8 279 7 q 278 8 279 8 l 271 11 q 268 13 269 13 l 253 13 q 240 18 244 15 l 228 22 l 219 29 q 217 32 217 32 q 214 32 215 32 q 210 31 213 32 q 206 31 207 31 q 201 32 203 31 q 199 38 200 35 l 197 40 q 194 46 197 44 q 190 49 193 49 l 188 50 q 183 53 186 51 q 178 56 182 56 l 175 56 q 169 58 172 57 l 163 65 q 161 66 161 65 q 160 67 161 67 l 151 79 l 142 89 q 140 92 140 92 l 132 111 q 129 128 129 117 q 129 131 129 129 q 131 137 129 133 q 132 143 132 140 l 132 146 l 131 153 l 131 156 q 129 162 131 158 q 126 168 128 165 l 126 171 l 125 178 l 125 181 q 122 185 124 183 l 118 186 q 115 190 117 189 l 115 194 l 114 201 l 114 206 q 114 208 114 207 q 115 214 114 211 q 115 218 115 217 q 114 222 115 221 q 86 239 101 235 q 78 246 78 242 q 79 249 78 247 q 89 263 83 257 q 93 265 92 265 l 97 267 q 101 269 100 268 q 113 279 108 276 q 114 282 114 281 l 117 290 q 118 293 118 293 q 124 299 121 296 q 129 303 126 301 q 132 304 131 304 q 138 301 135 304 q 143 299 140 299 q 147 300 146 299 q 160 303 156 303 q 172 307 167 307 q 178 311 175 308 q 186 314 182 314 l 189 314 l 196 311 l 199 311 q 203 310 201 311 l 206 308 q 210 307 208 307 q 215 308 213 307 q 219 310 218 310 q 222 308 221 310 l 225 308 l 231 306 l 246 306 q 253 308 249 306 q 260 310 257 310 q 261 310 260 310 l 272 303 q 285 296 276 301 l 294 286 q 297 282 297 285 l 297 278 q 300 274 299 276 q 306 263 303 271 q 306 261 306 261 q 307 260 307 261 l 310 254 q 314 239 314 249 q 316 231 315 235 q 317 224 317 228 l 319 217 l 319 214 q 318 211 319 213 l 318 204 q 317 201 317 204 q 314 189 317 193 q 306 179 311 185 q 305 178 306 178 q 304 176 304 178 l 300 171 q 299 169 300 169 q 299 168 299 169 q 294 157 296 160 q 294 156 294 156 q 293 154 293 156 l 290 147 q 289 144 290 146 q 289 143 289 144 q 289 139 289 142 l 290 136 q 292 133 292 135 q 290 131 292 132 q 284 126 288 128 q 279 121 281 124 q 279 118 279 119 q 281 113 279 115 q 283 107 283 110 q 286 94 283 101 q 293 85 289 88 q 303 76 299 78 q 317 75 308 75 q 319 75 318 75 q 324 76 321 75 q 329 78 326 78 l 342 82 q 349 80 344 82 q 356 78 353 78 q 357 78 356 78 q 362 82 360 79 q 367 88 364 85 q 371 91 369 89 q 375 96 372 93 q 381 99 378 99 q 388 100 385 99 l 397 110 q 399 113 399 111 l 401 117 q 403 119 403 119 q 407 122 406 122 l 411 124 q 415 126 414 125 q 418 131 418 129 l 417 135 q 419 139 418 138 q 424 142 421 142 l 426 143 q 431 146 429 144 q 432 150 432 147 q 431 154 432 151 q 431 158 431 157 q 431 161 431 160 l 433 164 l 440 167 q 443 169 443 169 q 447 175 444 172 q 451 181 449 178 l 456 193 l 463 204 q 464 207 463 207 l 464 215 q 465 218 465 215 q 467 231 467 222 l 467 235 l 465 242 l 465 246 q 467 250 465 249 l 471 254 q 472 257 472 256 q 474 261 474 258 q 473 265 474 263 q 472 271 472 267 l 472 283 q 476 290 472 286 q 482 296 481 293 q 481 301 482 299 q 481 306 481 304 q 481 310 481 308 l 481 313 l 483 319 l 483 322 q 483 328 483 325 q 482 336 482 332 l 482 339 l 481 346 l 481 365 l 483 374 l 483 379 l 479 386 l 479 389 q 481 397 479 393 q 483 403 483 400 q 479 410 483 407 q 475 415 475 413 q 476 419 475 418 l 479 426 q 481 431 481 428 q 479 443 481 439 q 476 457 479 449 q 472 463 476 460 q 468 469 468 465 l 468 472 l 467 479 l 467 482 q 469 490 467 486 q 472 497 472 494 q 471 500 471 500 l 464 507 q 464 515 464 510 q 463 524 464 521 q 460 526 463 524 l 454 531 q 451 533 451 533 q 451 536 451 535 q 451 539 451 538 l 454 543 q 456 547 456 546 q 454 549 456 549 q 453 551 453 551 l 450 558 q 449 560 450 560 q 449 561 449 560 q 448 563 449 563 q 447 564 447 563 l 442 568 q 441 569 442 569 q 440 571 440 569 q 435 576 438 574 q 432 582 433 579 l 425 593 q 422 599 424 596 q 418 604 421 601 q 417 610 417 607 q 414 617 417 614 q 413 619 413 619 l 403 642 q 397 644 401 644 l 393 643 q 388 646 390 644 q 385 649 386 647 l 381 651 q 378 654 379 653 q 375 660 376 657 l 375 663 q 372 668 375 667 l 365 675 q 364 676 364 675 q 363 676 364 676 q 358 679 361 679 l 354 679 q 350 682 353 681 q 349 683 350 683 q 349 685 349 683 l 344 692 q 343 694 344 694 q 340 696 342 696 l 333 699 q 331 700 332 700 q 328 703 329 700 l 324 710 q 321 713 321 713 q 319 714 321 714 q 315 713 318 714 l 311 711 q 308 711 310 711 q 306 711 307 711 l 294 717 q 288 718 292 718 q 281 719 285 718 l 268 719 q 261 723 264 719 q 256 726 258 726 q 243 729 247 729 q 240 728 242 729 l 233 724 q 231 722 233 722 q 228 721 229 722 l 224 717 q 221 715 222 717 q 218 713 221 715 l 213 706 q 207 703 211 704 l 204 704 q 199 701 201 704 l 193 690 q 192 688 192 689 l 185 681 l 185 678 l 183 669 l 183 667 q 185 654 183 658 l 185 629 q 190 625 186 626 q 197 621 194 624 q 200 616 199 618 q 204 611 201 614 q 206 610 206 611 q 207 610 206 610 l 214 603 q 226 597 218 600 q 229 592 229 596 l 231 588 q 233 582 232 585 l 238 582 l 244 583 l 249 583 q 254 577 251 581 q 260 572 257 574 q 267 576 263 572 q 274 579 271 579 q 275 579 275 579 q 281 575 278 579 q 286 569 283 571 q 299 567 290 569 l 301 567 l 310 569 l 313 569 q 315 569 314 569 q 317 569 317 569 l 321 572 q 324 574 322 574 q 325 572 325 574 q 328 571 328 572 l 335 568 q 338 567 336 567 q 339 567 338 567 q 340 567 339 567 q 343 568 342 568 q 344 568 343 568 l 347 568 l 356 567 l 358 567 q 363 563 361 565 l 364 558 q 368 554 367 556 l 371 554 l 379 556 l 382 556 l 394 551 q 406 544 401 550 q 410 543 407 543 q 413 544 411 543 q 414 544 414 544 q 419 542 417 544 q 422 538 422 540 l 425 533 q 428 529 426 532 q 436 519 433 524 q 438 517 438 518 q 438 515 438 517 l 438 511 q 439 507 438 510 l 442 504 l 449 501 q 451 499 451 499 l 451 496 l 450 488 l 450 485 l 454 472 q 457 460 457 464 q 460 447 460 451 q 462 440 461 443 q 463 432 463 436 l 464 425 l 464 422 q 461 413 463 417 l 460 406 q 457 396 460 401 l 457 382 q 457 379 457 381 q 457 376 457 378 q 457 372 457 374 q 456 368 457 369 q 453 361 454 365 q 450 354 453 357 q 445 350 449 351 q 439 346 442 349 q 436 343 439 346 l 429 335 q 421 325 424 329 q 417 322 419 324 l 414 321 q 410 318 413 321 q 408 317 408 318 q 407 317 408 317 l 389 300 q 384 295 386 299 q 379 289 382 292 q 365 286 368 286 q 358 285 361 286 q 354 285 356 285 q 349 286 351 285 q 333 288 339 286 l 318 288 q 313 293 313 288 q 313 297 313 294 q 315 303 314 300 q 317 311 317 307 q 313 325 317 319 q 306 338 311 329 q 293 343 301 340 q 288 349 290 346 q 282 353 286 351 l 268 353 q 267 353 267 353 q 265 354 267 354 l 260 358 q 258 359 258 358 q 257 360 258 360 q 254 360 256 360 q 250 359 253 360 q 244 358 247 358 q 242 358 243 358 l 229 358 q 228 359 228 358 q 226 360 228 360 l 221 367 q 219 367 219 367 q 218 368 219 368 q 212 367 215 368 q 207 365 208 365 q 204 365 206 365 q 199 371 201 365 q 193 378 196 376 q 188 377 190 378 q 182 376 185 376 q 179 376 181 376 q 173 378 176 376 q 167 381 169 379 q 154 382 158 381 q 142 383 146 382 q 139 385 140 383 l 132 385 q 129 386 132 386 q 126 390 128 388 l 124 394 q 121 399 124 397 q 115 400 118 400 q 108 403 111 400 q 103 405 106 404 q 99 408 101 406 q 96 410 97 410 q 93 410 94 410 l 90 408 q 85 410 88 408 q 82 415 83 413 l 82 419 q 79 425 82 424 q 76 426 78 426 q 74 426 75 426 l 69 426 q 64 428 67 426 q 63 429 64 429 q 63 431 63 429 l 56 438 q 49 450 50 446 l 49 453 l 47 461 l 47 464 q 46 467 47 467 l 46 475 q 44 478 44 476 q 43 481 44 479 l 38 486 q 37 488 38 488 q 36 489 36 488 q 35 503 35 493 q 35 506 35 504 q 35 509 35 507 q 36 513 36 511 q 35 517 36 515 q 36 522 35 519 q 38 526 38 525 q 36 529 38 528 q 33 533 36 532 l 29 538 q 26 542 26 540 l 26 556 q 29 562 26 558 q 32 569 32 565 l 32 572 l 33 579 l 33 585 l 38 592 l 38 594 q 39 607 39 599 q 40 610 40 608 q 39 613 40 611 l 35 617 q 35 621 35 619 q 35 622 35 622 q 39 626 36 625 l 43 628 q 47 632 46 631 q 49 635 47 635 l 49 642 q 50 644 50 643 q 51 649 51 646 q 51 653 51 650 q 50 657 50 656 q 50 660 50 658 l 58 667 q 61 669 61 669 l 68 681 q 71 686 69 683 q 75 692 72 689 q 76 694 76 693 l 81 703 q 89 713 83 707 q 93 715 92 715 l 97 717 q 101 719 100 718 q 108 729 107 728 l 118 739 q 119 742 119 740 l 122 749 q 127 756 124 751 q 133 761 131 760 q 144 768 139 767 q 149 769 146 769 q 150 769 149 769 l 154 768 q 160 769 158 768 q 169 778 165 775 q 175 781 172 779 q 181 785 178 782 q 183 789 183 786 l 186 792 q 189 796 188 794 q 192 797 190 797 q 194 796 193 797 l 200 792 q 204 792 203 792 q 206 792 206 792 q 208 793 207 793 l 214 797 q 217 799 215 799 q 219 803 219 800 l 222 807 q 225 811 224 810 l 239 811 q 245 813 242 811 q 251 817 249 815 l 254 817 l 263 815 l 265 815 q 268 817 267 817 q 272 815 269 817 q 278 814 275 814 q 281 815 281 815 l 288 822 q 289 823 289 822 q 290 824 289 824 l 293 824 l 301 822 l 307 822 l 314 818 l 317 818 q 331 821 328 821 l 333 821 l 340 824 l 343 824 q 346 822 346 824 l 354 818 q 357 817 354 817 q 360 818 360 817 l 367 822 q 369 824 368 824 q 377 822 374 824 q 383 821 381 821 l 397 821 q 403 818 400 819 q 410 817 407 817 q 413 815 413 817 l 419 815 q 422 814 421 814 q 428 815 425 814 q 432 815 431 815 q 436 814 435 815 q 439 813 439 813 l 446 810 q 447 809 447 810 q 449 808 447 808 q 453 807 451 808 l 457 803 q 460 801 458 803 q 463 800 463 800 l 469 797 q 471 797 471 797 q 472 796 471 796 q 478 792 475 793 q 483 789 481 790 q 488 788 485 788 q 491 788 489 788 q 494 789 493 789 q 497 788 496 789 q 499 787 499 788 q 500 786 499 786 l 506 782 q 507 781 507 782 q 508 781 507 781 q 511 778 508 781 l 514 771 l 517 768 q 522 767 519 767 l 525 767 q 528 767 526 767 q 531 765 529 767 q 532 765 532 765 q 533 764 532 764 l 540 757 q 542 756 542 757 q 543 756 542 756 l 551 749 q 557 746 554 747 l 560 747 q 565 744 564 747 q 567 742 567 744 l 571 736 q 572 735 571 735 q 572 733 572 735 q 576 731 575 732 l 581 729 q 585 726 583 729 l 592 719 q 592 718 592 718 q 593 717 593 718 l 603 707 q 606 701 606 706 l 606 699 q 608 693 607 696 q 610 690 610 693 l 611 683 q 612 682 611 682 q 613 681 613 682 q 617 678 615 679 l 621 676 q 625 674 624 676 l 632 665 q 633 664 632 664 q 633 663 633 664 q 635 660 635 661 l 636 653 q 638 650 638 651 l 644 642 q 645 640 644 640 q 646 639 646 640 q 650 636 647 638 l 654 635 q 658 632 657 635 q 661 626 661 629 q 660 625 661 626 q 660 622 660 624 q 661 618 660 619 q 663 615 663 617 l 667 608 q 668 606 668 607 q 669 604 668 604 q 669 603 669 604 l 674 597 q 674 596 674 596 q 675 594 675 596 q 676 590 676 593 q 676 588 676 589 q 676 583 676 586 q 676 581 676 582 q 681 567 678 575 q 681 565 681 565 q 682 564 682 565 l 689 558 q 690 557 689 557 q 690 556 690 557 l 699 531 q 699 529 699 531 q 697 525 699 528 l 694 521 q 693 517 693 519 q 693 515 693 517 q 696 501 693 513 l 696 499 l 700 492 l 700 489 q 703 476 703 481 q 704 472 704 475 q 703 468 704 471 q 703 463 703 465 q 704 458 704 461 q 703 455 704 457 q 703 449 703 453 l 703 446 l 706 439 l 706 433 l 708 425 l 708 422 z "},"\u0000":{"ha":0,"x_min":0,"x_max":0,"o":""},"\r":{"ha":347,"x_min":0,"x_max":0,"o":""}," ":{"ha":278,"x_min":0,"x_max":0,"o":""},"!":{"ha":339,"x_min":28,"x_max":311,"o":"m 294 783 q 302 783 297 783 q 311 782 307 782 q 308 773 310 778 q 307 765 307 768 q 306 764 307 764 q 306 763 306 764 l 301 756 q 300 753 300 754 l 300 750 l 299 743 l 299 740 q 298 739 299 739 q 297 738 297 739 l 294 731 q 293 728 293 729 q 292 714 293 718 q 289 701 289 706 q 289 699 289 700 q 290 694 289 697 q 290 688 290 690 q 289 685 290 685 l 289 676 q 288 674 288 676 q 286 671 288 672 l 283 664 q 282 661 282 664 q 281 658 282 660 l 281 651 q 279 649 279 651 l 279 635 q 279 632 279 633 q 280 628 279 631 q 281 625 281 626 q 279 621 281 624 q 278 618 279 619 l 275 611 q 274 608 274 611 l 274 596 q 271 582 271 585 q 271 581 271 581 q 273 574 271 578 q 275 568 275 571 l 275 565 l 271 558 l 271 556 q 269 551 269 554 q 270 547 269 550 q 271 542 271 544 q 273 535 271 539 q 275 529 275 532 q 275 528 275 529 l 275 525 l 274 518 l 274 515 q 269 508 274 511 q 264 503 265 506 q 267 495 264 499 q 271 489 271 492 q 270 487 271 488 q 269 485 269 486 l 265 479 q 265 477 265 478 q 264 475 264 476 q 261 463 264 471 l 261 460 l 258 453 l 258 447 l 260 440 l 260 435 l 264 428 q 260 421 264 422 l 257 417 q 253 413 253 415 q 254 410 253 411 l 257 403 q 258 400 258 403 q 257 386 257 396 l 257 383 l 254 376 l 254 371 l 250 365 l 250 363 q 252 356 250 358 q 254 350 254 353 q 254 349 254 350 l 254 346 l 256 339 q 251 332 256 333 l 249 328 q 244 324 244 326 q 246 318 244 321 q 247 313 247 315 q 246 310 247 311 l 246 307 l 243 299 l 243 296 q 244 290 243 293 q 244 282 244 286 q 247 276 246 279 q 249 269 249 272 q 254 257 251 261 q 254 253 254 254 q 254 250 254 250 q 253 251 254 250 q 251 251 253 251 q 246 250 250 251 q 238 245 242 250 q 232 239 235 240 l 229 239 l 222 242 l 219 242 q 212 240 215 242 q 206 239 208 239 q 203 240 203 239 l 194 244 q 192 246 194 246 l 176 246 l 168 242 l 153 242 q 145 244 149 242 q 139 247 142 247 q 133 245 136 247 q 125 243 129 243 l 122 243 l 115 240 q 106 241 111 240 q 99 246 101 242 q 94 256 94 250 q 96 260 94 257 q 94 264 94 261 q 95 268 94 265 q 96 274 96 271 q 96 276 96 275 q 97 280 96 278 q 97 283 97 282 q 96 288 97 286 l 96 290 l 94 297 l 94 300 q 92 314 92 308 q 89 326 92 318 q 86 340 89 332 q 88 343 86 343 l 93 351 q 94 354 94 351 q 90 358 94 357 l 88 363 q 83 367 83 365 q 82 371 82 368 q 83 373 82 372 q 83 375 83 374 q 82 381 83 378 q 85 387 82 383 q 88 394 88 390 q 86 397 88 397 l 81 404 q 79 407 79 406 q 81 410 79 410 l 83 418 q 85 421 85 418 l 85 424 l 82 431 l 82 433 q 79 440 81 436 q 78 447 78 443 l 78 450 l 74 457 l 74 460 q 74 465 74 463 q 75 468 75 467 q 74 472 75 471 q 74 478 74 476 q 75 482 75 481 q 74 486 75 485 l 74 489 l 69 496 l 69 501 l 74 510 l 74 513 q 72 515 74 515 l 69 522 q 68 525 68 524 q 68 528 68 526 q 69 533 68 529 q 71 539 71 536 l 71 542 l 68 549 l 68 568 l 67 575 l 67 592 q 63 598 65 594 q 61 604 61 601 l 61 617 q 63 624 61 621 q 64 631 64 628 q 61 643 61 639 q 58 657 58 654 q 58 658 58 658 q 61 665 58 661 q 64 671 64 668 l 64 674 l 61 681 l 61 683 q 60 686 61 686 l 54 693 q 53 696 53 694 q 53 701 53 699 q 54 704 54 703 q 53 708 54 707 q 54 714 53 711 q 56 718 56 717 q 54 721 56 719 q 53 724 54 722 l 49 728 q 47 731 49 729 l 47 733 l 49 742 l 49 744 q 48 746 49 746 q 47 747 47 746 l 42 751 q 41 753 42 753 q 40 754 40 753 q 39 760 39 757 l 39 763 q 39 765 39 764 q 38 768 39 767 q 34 770 36 769 q 32 774 32 771 q 28 782 28 778 q 32 781 31 782 l 39 776 q 43 775 40 775 q 46 776 46 775 l 53 779 q 56 781 54 781 q 63 777 60 781 q 69 774 67 774 l 86 774 l 93 775 l 96 775 q 102 778 99 775 q 110 781 106 781 l 113 781 l 119 779 l 122 779 q 128 778 125 779 q 136 776 132 776 q 139 778 139 776 l 146 783 q 149 785 147 785 q 155 784 151 785 q 163 783 158 783 l 175 783 q 178 782 178 783 l 186 776 q 189 775 186 775 l 192 775 l 199 778 l 204 778 l 213 781 l 231 781 l 239 778 l 244 778 l 251 774 l 254 774 q 257 775 257 774 l 265 782 q 268 783 265 783 q 271 782 271 783 l 278 779 q 281 778 279 778 q 283 779 283 778 l 292 782 q 294 783 292 783 m 274 117 q 277 110 275 113 q 279 103 279 107 l 279 100 l 282 93 l 282 90 q 281 78 282 82 q 277 72 281 75 q 272 67 274 69 l 272 64 l 271 57 l 271 54 q 269 51 269 53 l 263 44 q 261 42 261 43 l 258 35 q 257 32 258 33 q 253 29 256 31 l 249 29 q 244 26 247 29 l 232 14 q 226 10 229 11 l 213 10 q 208 8 211 8 l 206 10 q 201 8 204 10 q 196 5 199 7 q 190 3 193 3 q 178 0 182 0 q 175 0 176 0 q 172 1 174 0 q 167 3 169 3 l 164 3 l 157 4 l 142 4 q 129 6 136 4 q 118 13 124 8 q 115 13 117 13 q 110 12 113 13 q 106 11 107 11 q 101 13 103 11 l 94 19 q 93 20 93 19 q 92 21 93 21 l 79 29 q 78 35 78 32 l 78 39 q 78 42 78 40 q 76 44 78 43 q 69 49 74 47 q 63 53 64 50 q 61 57 61 54 q 62 60 61 58 q 63 64 63 63 q 61 68 63 67 q 58 81 58 76 q 55 87 57 83 q 53 94 53 90 l 53 97 l 54 106 l 54 108 q 56 124 54 118 q 60 128 57 126 q 67 133 64 131 q 68 136 68 135 q 67 141 68 139 q 67 144 67 143 q 68 149 67 147 q 74 153 69 151 q 81 157 78 154 q 85 160 83 160 l 88 161 q 92 164 90 163 l 101 174 q 108 176 104 176 q 114 178 111 176 q 119 183 117 181 q 125 188 122 186 q 131 191 128 189 q 138 194 133 193 q 150 197 146 197 q 151 197 151 197 q 158 195 154 197 q 164 193 161 193 q 178 196 172 196 q 192 194 186 196 q 198 196 194 194 q 203 197 201 197 q 206 196 204 197 q 207 195 207 196 q 208 194 207 194 l 214 189 q 215 188 215 189 q 217 188 215 188 q 229 181 225 182 q 232 179 232 179 l 240 178 q 243 176 242 178 l 254 171 q 257 169 256 171 q 260 164 260 168 l 258 160 q 261 154 260 157 q 271 144 267 150 q 274 139 274 142 q 273 138 274 139 q 272 135 272 136 q 274 129 272 132 q 275 125 275 128 q 274 122 275 124 q 274 117 274 119 z "},"\"":{"ha":381,"x_min":29,"x_max":353,"o":"m 186 942 l 188 935 l 188 917 q 181 910 186 914 q 176 903 176 907 q 176 901 176 903 q 181 895 176 899 q 185 888 185 892 q 184 886 185 886 q 183 885 183 886 l 176 878 q 175 875 175 876 q 174 863 175 867 q 174 857 174 860 q 175 853 175 854 q 174 849 175 850 q 172 844 174 847 l 168 840 q 167 838 168 839 q 167 836 167 838 q 167 832 167 835 l 169 829 q 171 826 171 828 q 169 824 171 825 q 168 817 169 821 q 165 811 167 814 q 164 808 165 810 l 160 804 q 158 800 158 803 l 158 797 l 157 790 q 156 785 157 786 l 151 779 q 151 778 151 778 q 150 776 150 778 q 150 775 150 776 q 150 771 150 774 l 153 767 q 154 764 154 765 q 153 761 154 763 q 152 760 153 760 q 151 758 151 760 l 147 753 q 147 751 147 751 q 146 750 146 751 q 145 749 146 749 q 144 747 144 749 l 142 742 q 141 740 142 740 q 140 739 140 740 q 140 738 140 738 q 139 736 139 738 l 136 729 q 135 726 136 728 l 129 715 q 121 703 128 710 q 107 701 117 701 l 93 701 q 87 706 90 701 q 79 711 83 711 q 75 707 78 711 l 71 704 q 67 700 69 700 q 60 704 61 700 q 57 711 58 708 q 51 723 56 713 q 47 735 47 733 q 50 746 50 743 q 53 753 50 750 q 58 758 57 756 q 57 761 58 761 l 51 769 q 50 772 50 769 l 50 775 l 53 782 l 53 788 l 49 794 l 49 810 q 49 811 49 811 q 52 817 49 814 q 56 822 56 819 q 56 825 56 824 q 56 829 56 826 q 57 835 57 832 q 54 847 54 843 l 47 863 l 42 869 q 41 871 42 871 q 40 872 40 871 l 40 875 l 43 883 l 43 886 q 43 889 43 888 q 44 894 43 890 q 46 900 46 897 q 45 901 46 901 q 44 903 44 901 l 39 908 q 38 910 39 910 q 38 911 38 910 q 34 917 38 914 q 29 922 31 919 q 29 924 29 924 q 31 928 29 926 l 35 932 q 36 936 36 935 q 36 938 36 938 q 33 944 35 943 q 32 946 32 944 q 33 949 32 947 q 36 956 35 951 q 42 961 38 960 q 48 958 44 961 q 54 956 51 956 q 56 956 54 956 q 61 959 58 956 q 67 964 64 963 q 73 962 69 964 q 79 960 76 960 q 81 960 79 960 q 83 961 83 960 l 90 964 q 93 965 92 965 l 96 965 l 103 963 l 108 963 l 115 967 l 118 967 q 124 965 121 967 q 131 963 128 964 q 138 965 133 963 l 142 968 q 147 971 144 971 q 156 969 151 971 q 163 967 160 967 l 175 967 q 184 956 182 964 q 186 942 186 949 m 344 946 q 347 940 344 943 l 350 936 q 353 931 353 933 q 347 903 353 917 l 347 889 q 346 885 347 886 l 346 878 q 344 874 344 876 l 344 861 l 340 849 q 339 836 339 844 q 336 833 339 836 l 329 828 q 326 825 326 825 q 326 824 326 825 q 328 819 326 822 l 332 817 q 333 813 333 815 q 333 811 333 813 l 325 803 q 322 797 322 801 l 321 790 l 321 785 l 322 776 l 322 774 q 322 772 322 772 q 321 771 321 772 l 317 764 q 315 761 315 763 q 311 758 314 760 l 308 756 q 304 753 306 756 q 304 751 304 753 q 304 747 304 750 l 307 743 q 308 740 308 742 q 307 738 308 739 q 306 735 307 736 l 300 731 q 299 728 300 729 q 297 725 297 725 l 296 717 q 294 714 296 715 q 286 703 292 707 q 285 703 285 703 q 278 705 282 703 q 272 708 275 707 q 265 710 268 708 q 258 711 261 711 l 244 711 q 237 709 240 711 q 231 707 233 707 q 223 706 226 707 q 218 706 219 706 q 215 707 217 706 q 214 710 214 708 q 215 714 214 711 q 217 721 217 717 q 218 724 217 724 l 221 731 q 222 733 222 732 q 222 735 222 735 q 220 740 222 738 q 218 746 218 743 q 217 749 218 749 l 214 757 q 213 760 213 757 q 217 764 213 763 l 219 768 q 224 772 224 771 q 222 778 224 775 q 219 785 221 782 q 216 790 219 788 q 213 797 213 793 q 214 800 213 800 l 219 807 q 221 810 221 808 q 219 813 221 813 l 215 819 q 214 822 214 821 q 215 825 214 825 l 218 832 q 219 835 219 833 q 217 841 219 838 q 213 847 214 844 l 213 850 l 215 857 l 215 860 q 212 867 214 864 q 208 872 210 869 q 210 878 208 875 q 211 883 211 882 q 210 886 211 885 q 206 892 210 889 q 200 897 201 894 l 200 900 l 201 908 l 201 911 q 200 914 201 914 l 200 921 q 199 924 199 922 q 197 928 197 925 q 198 932 197 929 q 199 938 199 935 q 194 944 196 942 q 192 950 192 947 q 192 951 192 950 q 206 960 197 957 q 212 958 208 960 q 217 957 215 957 q 219 957 218 957 q 225 956 222 957 q 229 956 228 956 q 233 957 232 956 q 238 958 236 957 l 242 963 q 244 964 243 964 l 247 964 l 254 963 l 257 963 q 260 964 260 963 l 267 967 q 269 968 268 968 q 272 967 272 968 l 279 963 q 282 961 281 961 q 285 963 285 961 l 293 967 q 296 968 293 968 l 300 968 l 307 967 l 311 967 q 319 968 315 967 q 325 969 322 969 q 328 969 326 969 q 333 966 331 969 q 338 961 335 963 q 344 960 342 960 q 347 957 346 960 q 347 954 347 956 l 344 949 q 344 946 344 947 z "},"#":{"ha":753,"x_min":35,"x_max":718,"o":"m 718 478 q 714 474 718 476 l 711 469 q 707 465 707 468 l 707 449 l 708 440 l 708 438 q 708 436 708 436 q 710 430 708 433 q 713 424 713 426 q 709 418 711 419 q 707 414 707 417 q 704 414 706 414 q 701 415 703 414 q 697 417 700 415 q 683 421 689 419 q 678 422 681 421 q 674 425 676 424 q 672 426 674 426 q 668 425 671 426 l 665 421 q 663 421 664 421 q 660 421 661 421 q 655 424 657 421 q 650 428 653 426 q 646 428 647 428 q 639 426 643 428 q 635 418 635 425 l 635 403 l 636 396 l 636 390 l 632 383 l 632 378 l 631 371 l 631 368 q 633 360 632 365 q 635 353 635 356 q 639 354 638 353 l 646 358 q 650 360 647 360 l 653 360 l 660 358 l 663 358 q 668 358 665 358 q 672 357 671 357 q 676 358 675 357 q 678 359 678 358 q 679 360 678 360 l 685 364 q 686 365 686 364 q 688 365 686 365 q 690 367 689 367 l 694 372 q 697 374 696 374 q 700 375 700 374 l 708 375 q 711 376 708 376 q 710 370 711 374 q 710 361 710 367 q 709 355 710 358 q 708 347 708 351 q 708 339 708 344 q 710 331 708 333 l 714 324 l 714 318 l 717 310 l 717 293 q 717 287 717 290 q 718 279 718 283 q 717 273 718 276 q 715 265 715 269 l 715 253 q 712 245 715 249 q 708 239 708 242 q 712 231 708 235 q 715 225 715 228 q 714 217 714 221 q 713 211 714 214 q 710 194 713 200 q 707 196 708 194 l 699 196 q 696 197 697 197 q 693 199 694 197 l 686 199 q 683 200 686 200 q 679 206 681 201 q 675 210 678 210 q 674 211 675 211 q 671 210 672 211 l 667 208 q 665 208 667 208 q 663 208 664 208 q 661 209 661 208 q 660 210 661 210 l 654 213 q 653 213 653 213 q 651 214 653 214 q 648 213 649 214 q 644 211 647 211 q 642 208 644 211 l 636 204 q 633 201 633 201 q 638 195 633 199 q 644 188 643 192 l 644 175 q 644 174 644 174 q 642 167 644 171 q 640 161 640 164 q 640 158 640 160 q 644 153 642 156 q 650 147 647 150 q 656 135 653 139 q 657 132 657 133 l 661 125 q 663 122 663 124 q 665 118 665 119 q 668 114 665 117 l 657 114 l 650 111 q 647 110 649 110 q 644 108 646 110 l 638 106 q 635 104 638 104 q 632 106 632 104 l 624 108 q 621 110 624 110 q 615 111 618 110 q 610 113 613 113 q 607 113 608 113 l 604 113 l 597 108 l 594 108 q 588 109 592 108 q 581 110 585 110 q 578 108 579 110 l 571 104 q 568 103 571 103 l 551 103 l 544 101 l 528 101 q 522 106 525 103 q 515 110 518 110 l 513 110 l 504 107 l 499 107 l 492 110 l 486 110 l 478 107 l 475 107 q 472 108 474 107 l 465 111 q 463 113 465 113 l 460 113 l 451 111 l 449 111 q 442 109 446 111 q 435 107 439 107 l 422 107 q 408 110 414 110 l 396 110 q 394 114 394 113 q 397 116 394 115 q 400 118 399 117 q 403 121 401 119 l 406 126 q 408 129 407 128 q 411 132 410 131 l 415 135 q 418 138 417 136 q 425 149 424 143 q 426 151 426 150 q 425 154 426 153 l 422 157 q 422 161 422 160 q 422 163 422 163 q 424 165 422 165 l 424 172 q 425 175 425 174 q 424 180 425 178 q 424 182 424 182 q 425 186 424 185 l 425 199 q 428 203 425 201 l 432 207 q 435 211 435 210 q 427 219 433 218 q 415 221 421 221 l 408 219 l 406 219 q 398 221 401 219 q 392 222 394 222 q 385 224 389 222 q 378 226 382 226 q 375 225 376 226 l 368 222 q 365 221 368 221 l 363 221 l 354 217 l 338 217 q 333 217 335 217 q 332 218 332 218 q 329 217 331 218 q 324 192 324 206 l 325 183 l 325 181 q 328 174 325 178 q 332 168 331 171 q 336 163 332 165 q 342 158 340 161 q 347 147 344 150 q 347 144 347 146 q 346 140 347 143 q 344 135 344 136 q 346 131 344 132 q 350 126 347 128 q 356 122 353 125 q 360 117 357 119 q 363 113 363 115 q 363 108 363 110 l 358 108 l 351 111 l 335 111 q 332 110 332 111 l 324 107 q 321 106 324 106 l 318 106 l 311 108 l 306 108 l 297 111 l 292 111 l 285 108 l 282 108 q 268 106 274 106 q 265 107 267 106 l 258 110 q 256 111 258 111 l 253 111 l 244 107 l 229 107 q 226 108 226 107 l 218 111 q 215 113 218 113 l 213 113 l 206 110 l 203 110 q 200 108 200 110 l 192 106 q 189 104 192 104 q 186 106 188 104 l 179 110 q 176 111 179 111 l 174 111 l 165 113 l 163 113 q 160 111 161 113 l 153 106 q 150 104 153 104 q 142 108 146 104 q 136 111 139 111 q 124 114 132 111 q 121 113 121 114 l 113 108 q 110 107 113 107 l 81 107 q 84 110 81 110 q 88 113 88 111 q 90 115 89 114 l 100 126 q 103 129 101 128 q 106 135 104 132 q 111 140 108 138 q 117 147 114 143 q 117 150 117 149 q 116 154 117 151 q 115 160 115 157 q 115 163 115 161 l 115 176 q 119 183 115 179 q 122 190 122 186 q 122 196 122 193 q 121 200 121 199 q 121 204 121 203 q 115 213 118 211 q 108 217 111 217 q 106 215 107 217 l 103 215 l 94 217 l 92 217 q 85 215 89 217 q 79 213 82 214 l 76 213 l 68 211 l 65 211 q 64 210 64 211 q 63 210 64 210 l 56 206 q 53 204 54 206 q 49 201 50 203 q 47 200 49 200 q 46 200 47 200 q 40 208 40 203 q 42 214 40 211 q 43 218 43 217 q 42 222 43 221 l 42 225 l 38 232 q 37 240 38 236 q 35 247 36 243 q 38 255 35 251 q 40 261 40 258 l 40 264 l 44 272 l 44 275 q 43 278 44 278 l 39 286 q 37 294 38 289 q 36 303 36 300 q 39 310 36 307 q 42 317 42 314 q 44 324 42 321 q 47 331 47 328 q 46 336 47 333 l 42 340 q 40 346 40 343 l 40 349 l 39 357 l 39 378 q 43 379 40 379 q 51 373 47 379 q 58 364 54 367 q 65 363 61 363 q 72 360 69 363 q 75 358 75 358 l 82 356 q 83 355 83 356 q 85 354 83 354 q 88 354 86 354 q 90 354 89 354 l 93 357 q 97 358 96 358 q 99 357 99 358 q 106 352 103 356 q 113 349 110 349 q 125 358 121 349 q 129 372 128 367 q 126 378 129 375 q 124 386 124 382 l 124 389 l 126 393 l 126 396 q 125 399 126 397 l 122 404 q 121 407 121 406 q 122 415 121 411 q 124 422 124 419 q 122 426 124 426 q 121 426 122 426 q 114 424 119 425 q 108 425 111 424 q 104 426 106 426 q 99 425 101 426 q 96 425 97 425 q 91 426 94 425 q 85 426 88 426 q 82 424 85 426 l 76 417 q 74 414 74 414 l 60 414 l 49 408 q 46 407 47 407 q 44 411 44 408 q 45 414 44 413 q 46 417 46 415 q 44 422 46 419 q 42 436 42 431 q 42 438 42 438 q 43 442 42 440 q 44 447 44 444 q 44 450 44 449 q 43 453 44 453 l 39 460 q 38 463 38 461 l 38 465 l 40 474 l 40 476 q 38 483 40 479 q 36 490 36 486 q 40 497 36 493 q 44 504 44 500 q 42 508 44 507 l 38 513 q 35 517 35 515 q 38 524 35 521 q 42 531 42 528 q 44 537 42 533 q 46 544 46 540 q 44 550 46 547 q 42 556 42 553 q 42 558 42 557 q 40 565 42 561 q 38 572 38 568 l 38 575 l 42 583 l 42 586 q 44 588 43 588 q 49 583 47 588 q 56 576 51 579 l 68 572 q 81 567 72 569 q 85 565 82 565 q 89 566 86 565 q 94 567 92 567 l 97 567 l 106 568 l 108 568 q 113 567 111 568 q 115 567 115 567 q 118 568 117 567 q 118 578 118 568 q 117 581 118 581 l 117 588 q 115 594 115 589 q 114 601 114 599 l 110 614 q 108 618 108 617 l 108 621 q 107 625 108 624 q 103 631 104 628 l 96 646 q 94 647 96 647 l 93 650 q 92 651 93 651 l 85 661 q 83 664 83 663 q 85 667 83 665 q 86 671 86 669 q 85 675 86 674 l 97 675 l 104 676 l 107 676 q 115 678 111 676 q 119 679 117 679 l 122 679 q 128 681 125 679 q 135 682 131 682 q 138 681 138 682 l 144 675 q 152 673 146 674 q 161 672 158 672 q 169 674 163 672 q 178 676 176 675 l 185 679 q 188 681 186 681 q 193 678 190 681 l 196 672 q 201 669 200 669 l 204 669 l 211 674 q 215 674 213 674 l 225 676 q 228 676 226 676 q 233 678 231 676 q 238 679 236 679 q 242 678 240 679 q 244 676 244 678 l 251 672 q 254 671 253 671 q 257 672 257 671 l 265 678 q 268 679 265 679 q 271 678 271 679 l 278 672 q 281 671 279 671 q 288 673 285 671 q 294 675 292 675 q 301 673 297 675 q 308 671 304 671 q 311 672 311 671 l 318 678 q 321 679 319 679 q 327 674 324 679 q 335 669 331 669 q 338 671 338 669 l 344 674 q 347 675 346 675 q 355 674 351 675 q 361 674 358 674 q 358 670 361 671 q 354 667 356 669 q 353 663 353 665 q 353 661 353 663 q 354 658 354 660 q 353 656 354 657 q 352 654 353 654 q 351 653 351 654 l 349 646 q 347 643 347 644 q 343 640 346 642 l 340 638 q 336 635 338 638 q 335 632 335 633 q 337 628 335 631 q 339 622 339 625 q 339 621 339 622 q 334 615 338 618 q 331 610 331 613 q 329 606 329 608 q 330 601 329 604 q 331 596 331 599 q 331 594 331 594 q 333 589 331 592 q 336 583 336 586 q 335 578 336 581 q 335 574 335 575 q 335 571 335 572 q 346 560 335 560 l 353 564 l 358 564 l 365 560 l 368 560 q 374 560 371 560 q 382 561 378 561 l 385 561 l 392 558 l 397 558 l 404 563 l 410 563 l 418 561 l 421 561 q 426 560 424 561 q 431 558 429 558 q 433 560 432 558 q 435 561 435 560 q 432 566 435 563 q 429 572 429 569 l 429 586 l 425 599 q 421 613 422 607 q 419 615 421 615 l 419 622 q 418 625 418 624 q 417 631 417 628 l 418 635 q 418 638 418 636 q 417 640 418 639 q 413 643 415 643 l 407 644 q 403 647 404 646 q 402 649 403 649 q 401 651 401 650 l 400 658 q 399 663 400 661 q 397 667 397 664 l 397 671 q 396 675 397 674 l 399 675 l 401 679 l 404 679 q 412 677 408 679 q 418 675 415 675 q 424 674 421 675 q 432 672 428 672 q 435 674 435 672 l 442 676 q 444 678 443 678 l 447 678 l 456 679 l 471 679 q 478 675 475 679 q 485 671 482 671 q 491 670 488 671 q 499 669 494 669 l 501 669 l 508 671 l 511 671 q 514 672 514 671 l 522 675 q 525 676 522 676 l 542 676 l 550 674 q 557 672 553 672 l 568 672 l 575 676 l 578 676 q 585 675 582 676 q 592 674 589 674 l 618 674 q 624 675 621 674 q 632 676 628 676 l 644 676 q 649 675 646 675 q 653 676 650 675 q 658 676 656 676 q 663 673 661 675 q 668 671 665 671 q 669 664 669 667 q 669 662 669 663 q 665 658 668 661 q 663 654 664 657 l 663 650 q 660 646 663 649 l 656 633 l 644 622 q 644 621 644 621 q 647 615 644 618 q 649 607 649 611 q 643 601 647 604 q 639 594 639 599 q 638 588 639 592 q 638 581 638 585 q 642 576 638 576 q 649 574 646 575 q 656 575 649 574 q 657 575 657 575 q 663 574 660 575 q 668 572 665 572 q 671 572 669 572 l 685 572 q 691 579 689 574 q 696 586 693 585 q 699 586 697 586 q 704 585 701 586 q 708 585 707 585 q 711 585 710 585 q 714 571 714 581 l 717 563 l 717 560 q 715 557 717 557 l 711 549 q 710 546 710 549 q 710 537 710 543 q 713 529 711 531 l 717 522 q 718 519 718 522 q 715 512 718 515 q 713 506 713 508 q 714 503 713 503 l 717 494 q 718 492 718 494 l 718 478 m 433 375 q 435 378 433 378 l 438 386 q 439 389 439 386 q 437 397 439 393 q 435 404 435 401 l 435 419 q 438 426 436 422 q 439 431 439 429 q 438 432 439 432 q 431 435 435 435 q 424 435 426 435 q 421 433 421 435 l 413 429 q 410 428 413 428 q 407 429 407 428 l 399 435 q 396 436 399 436 l 382 436 q 374 432 378 436 q 368 428 371 428 q 363 429 365 428 l 358 433 q 353 435 356 435 q 347 435 350 435 q 339 436 343 436 q 335 433 336 436 q 332 428 333 431 q 329 421 329 426 q 331 414 329 417 q 332 410 332 411 q 331 406 332 408 q 328 400 331 403 l 325 396 q 322 390 322 393 l 322 388 l 325 379 l 325 376 q 324 361 324 371 q 324 353 324 357 q 325 346 324 349 q 328 346 326 346 q 333 347 329 346 q 340 349 336 349 l 343 349 l 350 351 l 353 351 q 356 350 356 351 l 363 346 q 365 344 364 344 q 368 346 368 344 l 376 349 q 379 350 376 350 l 379 346 l 393 346 q 397 347 396 346 l 404 350 q 408 351 406 351 l 411 351 l 419 349 l 422 349 q 427 348 425 349 q 431 347 429 347 q 433 349 432 347 q 435 353 435 350 l 435 364 l 433 371 l 433 375 z "},"$":{"ha":715,"x_min":28,"x_max":686,"o":"m 679 265 q 683 259 679 263 q 686 253 686 256 q 686 251 686 253 q 683 238 686 246 q 682 235 683 236 l 671 217 q 670 215 671 215 q 669 214 669 215 q 669 211 669 213 q 670 206 669 208 q 671 201 671 203 q 671 199 671 200 q 670 197 671 197 q 669 196 669 197 l 667 190 q 666 189 667 189 q 665 188 665 189 q 665 186 665 186 q 664 185 664 186 l 657 176 l 653 164 q 650 161 651 163 l 644 158 q 642 156 643 157 q 640 153 640 153 l 639 144 q 638 142 639 143 q 635 140 636 140 l 628 138 q 625 136 626 138 q 624 131 624 135 l 624 125 q 624 124 624 124 q 622 119 624 121 q 619 118 621 118 l 614 114 q 611 113 613 114 q 606 111 610 111 l 600 113 q 599 113 599 113 q 594 111 596 113 q 592 108 593 110 l 589 104 q 586 101 589 103 q 582 95 583 99 q 578 90 581 92 q 575 89 575 89 l 567 86 q 564 85 565 86 l 547 85 l 539 83 q 533 82 535 83 l 528 78 q 526 77 526 78 q 525 76 526 76 q 524 76 524 76 q 522 75 524 75 l 515 71 q 513 69 514 69 q 499 68 507 68 q 485 64 493 67 l 482 64 l 474 68 l 468 68 l 460 72 l 457 72 q 454 71 454 72 l 446 67 q 443 65 446 65 q 436 68 440 67 q 429 69 432 69 l 417 74 q 415 74 415 74 q 413 75 414 75 l 407 79 q 405 80 406 79 q 403 81 404 81 q 400 81 401 81 l 396 79 q 394 79 396 79 q 392 79 393 79 q 389 81 390 81 q 388 79 389 81 q 383 78 386 78 q 379 74 381 75 q 378 71 378 74 l 378 68 l 379 63 l 379 60 q 378 56 379 57 l 375 49 q 374 44 374 47 q 375 39 374 42 l 379 35 q 381 29 381 32 q 378 24 381 26 l 374 19 q 371 14 371 17 q 372 9 371 10 q 372 8 372 8 q 371 6 372 7 q 364 4 371 4 q 361 3 361 4 l 353 0 q 350 -1 353 -1 l 347 -1 l 340 3 l 335 3 l 328 0 l 322 0 l 315 4 l 313 4 q 306 3 308 4 q 303 1 304 1 q 301 3 303 1 q 300 6 300 4 q 303 9 300 7 q 306 14 306 11 q 301 22 306 18 q 296 28 296 25 l 296 31 l 297 39 l 297 44 l 300 51 l 300 54 q 298 62 300 58 q 296 68 296 65 q 297 74 296 71 q 299 78 299 76 q 297 82 299 81 l 297 85 l 296 92 l 296 94 q 296 97 296 96 q 299 106 296 103 q 301 111 301 110 q 300 114 301 113 q 297 115 299 115 q 292 113 294 115 q 285 111 289 111 q 281 111 282 111 q 276 114 279 111 l 274 118 q 269 121 272 121 q 268 121 269 121 q 263 117 265 121 q 257 114 260 114 q 254 115 256 114 l 247 119 q 244 121 247 121 q 240 117 242 121 q 235 111 238 113 q 221 110 225 111 q 215 108 219 108 l 211 110 q 210 110 210 110 q 206 108 207 110 q 197 96 200 104 q 194 89 194 93 q 193 82 194 85 q 192 76 193 76 q 188 75 192 76 q 185 74 186 75 l 178 74 q 175 72 178 72 q 163 74 167 72 q 156 75 160 74 q 150 78 153 76 q 144 76 147 78 q 138 74 140 74 q 136 74 138 74 q 130 76 133 74 q 124 81 126 79 q 121 85 122 82 l 118 88 q 115 92 118 90 q 104 97 110 96 q 101 99 103 99 q 99 99 100 99 l 96 99 q 90 100 93 99 q 88 104 89 103 l 86 108 q 83 113 86 111 l 76 119 q 75 120 75 119 q 74 121 75 121 q 69 124 72 124 l 65 125 q 61 128 64 126 q 58 133 58 131 q 59 135 58 133 q 60 138 60 136 q 58 142 60 140 q 51 153 54 147 l 51 157 l 53 164 l 53 168 q 48 174 51 171 q 44 179 44 176 q 45 187 44 183 q 46 193 46 190 q 44 196 46 196 l 42 204 q 40 207 40 204 q 45 214 42 211 q 50 219 49 217 q 51 222 50 222 l 51 231 q 60 244 53 238 q 79 264 67 257 q 81 267 81 265 l 85 272 q 86 275 86 275 q 89 278 88 276 l 94 281 q 97 283 96 282 q 101 290 100 286 q 106 296 103 294 q 111 299 108 299 q 113 298 111 299 q 115 297 114 297 q 119 299 118 297 q 125 304 122 301 q 131 308 128 307 q 133 310 132 310 q 136 308 135 310 l 140 304 q 144 304 143 304 q 146 304 146 304 q 160 307 154 307 q 166 310 163 308 q 172 311 169 311 l 189 311 l 196 310 l 199 310 q 206 306 203 308 q 211 301 208 303 l 225 301 q 238 296 229 299 l 249 289 q 256 288 251 288 q 263 285 260 288 q 269 282 265 282 q 275 281 272 282 l 288 272 q 290 269 288 272 l 297 258 q 300 267 299 263 q 301 274 301 271 q 303 289 303 279 q 293 303 301 294 q 290 304 292 304 q 287 303 289 304 q 282 303 285 303 q 278 303 281 303 q 265 307 274 306 q 259 310 263 308 q 253 313 256 313 q 247 316 250 314 q 240 318 243 318 l 226 322 q 211 326 218 322 l 204 331 q 199 332 203 332 l 190 333 q 175 339 183 333 q 172 340 174 339 l 165 340 q 163 342 165 342 q 158 346 160 343 q 153 351 156 349 q 149 353 151 353 q 146 352 147 353 q 144 351 144 351 q 139 354 142 351 l 131 361 q 128 364 128 364 q 124 365 126 365 q 121 365 122 365 q 118 364 119 364 q 113 367 115 364 q 106 369 110 368 q 100 372 103 369 q 97 378 99 375 l 96 381 q 93 386 96 385 q 88 389 92 389 l 85 388 q 79 390 82 389 q 78 396 78 393 l 79 401 q 79 404 79 403 q 78 407 79 406 q 74 410 76 410 l 69 413 q 65 415 68 414 q 60 428 63 424 q 56 433 58 431 q 51 439 54 436 q 50 442 50 442 l 47 449 q 47 450 47 450 q 46 451 46 450 q 42 457 43 454 q 39 463 40 460 q 39 465 39 464 q 39 468 39 467 l 43 472 q 44 476 44 475 q 43 478 44 478 q 40 483 42 481 q 38 490 39 486 q 37 496 38 493 q 36 503 36 499 q 31 508 35 506 q 28 515 28 511 q 29 518 28 518 l 35 525 q 36 528 36 526 q 33 534 36 531 q 29 540 29 538 q 29 542 29 542 q 28 547 29 544 q 28 550 28 549 q 29 554 28 553 q 30 563 29 557 q 33 571 31 568 l 43 589 q 44 594 44 590 l 46 603 l 46 606 q 53 617 51 611 l 61 624 q 64 625 64 625 q 67 628 65 626 l 71 631 q 74 633 72 632 q 75 638 75 635 q 75 639 75 638 l 75 643 q 76 649 75 647 q 86 658 81 654 q 89 660 88 660 l 96 663 q 99 664 99 664 q 103 667 101 667 l 106 668 q 110 671 108 669 q 113 672 111 672 l 129 683 q 131 684 131 683 q 132 685 131 685 q 135 689 135 686 l 136 693 q 139 697 138 696 q 142 699 140 699 q 147 697 144 699 q 153 696 150 696 q 154 696 153 696 q 160 700 157 699 q 165 703 163 701 q 168 706 165 703 l 172 711 q 175 714 175 714 l 186 714 q 194 715 190 714 q 201 717 197 715 q 204 718 204 717 l 211 718 q 214 719 213 719 l 217 719 l 224 724 l 226 724 q 240 725 236 724 l 243 725 l 250 721 l 279 721 q 292 728 289 721 q 293 729 293 729 q 293 731 293 731 q 293 733 293 732 q 293 739 293 736 l 293 742 q 297 749 293 746 q 301 756 301 753 q 303 769 301 765 q 310 779 304 778 q 316 783 313 779 q 324 786 319 786 q 331 781 326 786 q 339 776 335 776 l 342 776 l 346 778 q 354 782 351 778 q 360 786 357 786 q 367 784 364 786 q 372 782 369 782 q 381 782 376 782 q 388 779 385 782 q 389 776 389 778 q 388 772 389 775 q 386 765 386 769 q 386 763 386 764 q 385 758 386 761 q 383 753 383 756 q 385 750 383 751 l 390 743 q 392 740 392 743 q 390 733 392 739 q 386 726 388 728 l 383 719 q 382 717 382 719 q 388 706 383 711 q 393 703 390 703 q 399 701 396 703 q 403 697 401 700 q 408 693 406 693 q 411 693 410 693 q 413 693 413 693 l 417 697 q 419 699 418 699 q 421 697 421 699 q 432 693 429 694 l 435 693 l 443 692 l 446 692 q 451 689 449 690 q 457 688 454 688 l 460 688 l 467 686 l 469 686 q 475 688 472 686 q 479 689 478 689 q 482 688 481 689 l 497 688 l 504 683 l 519 683 q 525 683 522 683 q 529 682 528 682 q 533 683 532 682 q 539 687 536 683 q 544 692 542 690 q 556 693 551 692 l 558 693 l 567 692 l 569 692 q 572 694 572 693 l 575 699 q 578 701 576 700 q 588 710 582 704 q 597 714 592 714 q 603 716 600 714 q 608 718 606 718 q 610 718 608 718 q 615 714 613 717 q 621 708 618 711 q 635 703 629 706 l 644 693 l 653 681 q 654 678 654 679 q 654 675 654 676 l 654 672 q 656 667 654 669 q 657 664 657 665 q 656 659 657 663 q 654 653 654 656 q 655 651 654 651 q 656 650 656 651 l 661 643 q 663 640 663 642 l 663 626 q 661 620 663 624 q 658 614 660 617 q 656 601 658 610 q 656 600 656 601 q 656 596 656 599 l 657 592 q 658 589 658 590 q 657 586 658 588 q 654 583 656 585 l 649 579 q 646 576 647 578 q 645 575 646 575 q 644 574 644 575 l 638 565 q 635 563 636 564 l 632 557 q 629 554 631 556 q 626 553 626 553 l 618 551 q 615 550 617 551 q 604 543 611 546 q 599 537 601 540 q 594 532 597 533 q 593 531 593 532 q 592 531 593 531 l 585 528 q 582 526 583 526 q 576 524 579 525 q 569 522 572 522 q 568 522 569 522 q 564 524 567 522 l 560 526 q 556 528 558 528 q 554 528 556 528 q 542 525 550 528 l 539 525 l 532 522 l 529 522 q 515 521 525 521 l 513 521 l 506 522 l 500 522 l 493 525 l 488 525 l 481 526 l 478 526 q 472 526 475 526 q 468 525 469 525 q 464 526 465 525 q 451 528 456 526 q 447 529 450 528 l 443 533 q 440 535 442 535 l 428 539 l 425 539 l 417 540 l 414 540 q 411 542 413 540 l 404 542 q 401 543 404 543 q 394 551 397 546 q 386 556 392 556 l 386 554 l 385 553 q 382 544 385 547 q 379 538 379 540 q 383 522 379 529 q 397 513 389 514 q 404 517 400 513 q 413 522 408 522 q 420 519 417 522 q 426 515 424 515 l 439 515 q 453 513 444 515 l 469 513 l 478 517 l 481 517 q 487 514 483 515 q 493 513 490 513 l 496 513 l 504 511 l 507 511 q 521 510 511 510 q 524 508 524 510 l 531 508 q 536 504 535 506 l 540 499 q 546 494 542 497 l 553 494 q 556 493 554 493 q 560 492 558 492 l 564 492 q 568 490 567 492 q 581 485 572 488 q 582 484 582 485 q 583 483 582 483 l 600 468 q 611 460 608 463 q 613 459 613 460 q 614 458 613 458 l 618 454 q 621 453 621 454 l 631 443 q 638 432 636 439 q 639 429 639 432 l 640 422 q 641 421 640 421 q 642 419 642 421 q 642 418 642 418 q 643 417 643 418 l 650 413 q 651 411 650 411 q 651 410 651 411 q 654 404 654 407 q 653 403 654 404 q 653 401 653 403 q 654 397 653 399 q 657 391 657 394 q 658 385 657 388 q 664 372 661 376 q 665 371 664 371 q 665 369 665 371 l 671 364 q 672 358 672 363 l 674 350 l 674 347 q 675 340 675 343 q 676 333 675 336 q 679 327 678 331 q 681 319 681 324 q 683 313 682 317 q 685 307 685 310 q 685 304 685 306 q 683 299 685 303 q 682 293 682 296 q 682 290 682 292 q 681 285 682 288 q 679 279 679 282 l 679 265 m 303 563 l 303 579 l 300 586 l 300 589 q 298 594 300 592 q 296 600 296 597 q 296 601 296 600 q 294 611 296 606 q 288 619 293 617 q 286 620 286 619 q 285 621 286 621 l 278 625 q 275 626 276 626 l 261 631 q 247 633 256 631 q 241 635 244 633 q 233 638 238 638 q 231 639 232 639 q 226 638 229 639 q 219 636 222 636 q 213 637 215 636 q 210 638 211 638 q 206 636 207 638 q 192 632 199 636 q 186 633 189 632 q 182 633 183 633 q 176 631 179 633 q 172 626 174 629 q 168 619 171 622 q 162 615 165 617 q 157 611 158 614 q 156 607 156 610 q 156 603 156 606 q 157 599 157 601 q 156 596 157 597 l 156 583 q 154 576 156 579 q 153 572 153 574 q 153 569 153 571 q 156 563 153 565 q 163 558 160 561 q 164 556 164 557 q 164 553 164 554 l 161 547 q 163 542 161 544 q 168 539 165 540 l 171 539 q 176 536 175 539 q 182 532 179 533 q 188 529 185 531 q 194 526 190 526 q 200 525 197 526 q 203 524 203 525 l 210 524 q 213 522 211 522 q 217 521 214 521 q 220 522 218 521 q 225 522 222 522 l 236 511 q 240 510 238 510 q 244 510 242 510 q 250 511 247 511 q 263 510 258 511 q 265 511 265 510 l 272 515 q 275 517 274 517 q 279 514 278 517 l 283 510 q 288 507 286 507 q 295 513 294 508 q 296 524 296 518 q 295 531 296 528 q 294 538 294 535 l 294 550 q 296 553 294 553 l 299 560 q 300 563 300 561 l 303 563 m 489 199 q 490 206 490 203 q 489 210 490 208 q 491 217 489 214 q 493 222 493 219 q 493 224 493 222 q 488 228 492 226 q 482 232 485 229 q 481 238 481 235 l 482 243 q 482 246 482 244 q 481 249 482 247 q 475 251 479 251 l 472 251 q 467 254 469 253 l 458 261 q 457 262 457 261 q 456 263 457 263 q 449 264 453 264 q 443 267 446 264 q 440 268 442 267 l 433 268 q 431 269 433 269 q 428 271 428 269 l 419 271 q 417 272 418 272 q 414 275 415 272 l 410 281 q 404 283 408 283 l 396 285 l 393 285 q 389 286 392 286 q 385 285 388 286 q 379 285 382 285 l 379 282 l 376 274 l 376 256 l 378 249 l 378 246 q 379 243 378 244 l 382 236 q 383 233 383 236 l 383 231 l 382 224 l 382 218 l 379 211 l 379 206 l 378 199 q 389 181 378 185 l 401 176 q 403 176 403 176 q 404 175 403 175 l 410 171 q 411 170 411 171 q 413 169 411 169 l 415 169 l 424 171 l 426 171 q 439 168 435 168 q 451 171 443 168 q 458 170 456 171 q 463 169 461 169 q 465 169 464 169 q 471 172 468 169 q 476 178 474 175 q 481 181 479 181 l 483 182 q 488 185 486 183 q 489 189 489 186 q 489 192 489 190 q 489 196 489 194 q 489 199 489 197 z "},"%":{"ha":658,"x_min":28,"x_max":629,"o":"m 40 554 l 40 568 l 36 581 l 36 583 l 33 590 l 33 593 q 32 597 32 594 q 33 599 32 599 q 33 601 33 600 q 32 607 33 604 l 32 610 l 28 617 l 28 619 q 29 626 28 622 q 32 632 31 629 q 35 646 32 638 q 34 651 35 649 q 33 656 33 654 q 33 658 33 657 q 35 672 33 668 q 36 675 36 674 q 35 681 36 678 q 33 686 33 683 q 34 688 33 688 q 35 689 35 688 l 40 694 q 41 696 40 696 q 42 697 42 696 q 42 699 42 699 q 43 700 43 699 l 49 706 q 49 707 49 707 q 50 708 50 707 q 51 710 50 710 q 51 711 51 710 l 54 717 q 55 718 54 718 q 56 719 56 718 q 57 724 57 722 q 56 728 57 726 q 56 731 56 729 q 57 735 56 733 q 58 738 58 738 l 61 744 q 63 747 63 746 q 65 750 63 749 l 72 754 q 75 757 75 757 q 92 778 86 768 q 94 783 94 781 l 94 788 q 97 793 96 792 q 101 796 100 796 l 106 796 q 110 799 108 797 q 115 803 113 800 q 119 808 117 806 q 122 810 121 810 q 124 808 124 810 l 128 808 q 131 808 129 808 q 132 808 132 808 l 135 808 l 143 807 l 146 807 q 157 808 150 808 q 169 806 161 808 l 172 806 l 179 804 q 193 801 189 804 q 197 800 194 800 q 200 801 199 800 q 201 801 201 801 q 207 799 204 801 q 219 793 215 796 q 222 788 222 792 l 221 783 q 224 778 222 781 q 235 768 228 775 q 240 765 238 767 l 243 764 q 249 761 247 764 q 249 758 249 760 q 248 754 249 757 q 247 750 247 751 q 249 746 247 747 l 253 733 q 256 727 256 731 q 257 721 256 724 q 261 717 258 719 l 267 715 q 271 711 269 714 l 271 697 q 272 683 271 688 q 276 678 272 681 q 281 672 279 675 l 281 658 q 282 644 282 654 q 285 638 283 642 q 286 632 286 635 q 283 624 286 628 q 279 618 281 621 q 281 612 279 615 q 283 606 283 608 q 283 604 283 606 q 285 599 283 601 q 286 593 286 596 q 285 590 286 592 l 285 588 l 282 581 l 282 578 q 281 576 282 576 q 281 574 281 575 l 278 568 q 277 566 278 567 q 276 564 276 565 q 276 563 276 563 q 275 561 275 563 l 269 556 q 268 550 268 554 l 267 542 q 265 536 267 538 l 260 531 q 259 529 260 529 q 258 528 258 529 q 253 517 256 519 q 253 515 253 515 q 255 509 253 513 q 257 503 257 506 q 256 500 257 501 q 253 497 256 500 l 247 493 q 244 490 244 490 q 243 488 243 489 l 236 481 q 228 469 231 472 q 225 465 226 468 l 224 461 q 221 457 224 460 q 210 449 213 451 q 208 448 208 449 q 207 447 208 447 l 200 443 q 197 442 199 443 q 196 441 196 442 q 194 440 196 440 l 189 436 q 188 435 188 436 q 186 435 188 435 q 183 433 185 433 q 178 436 182 433 q 172 439 175 439 q 171 439 172 439 q 167 436 169 439 l 164 432 q 160 429 163 429 q 157 431 158 429 l 150 435 q 147 436 150 436 l 144 436 l 138 438 l 135 438 q 133 439 135 439 q 129 438 132 439 l 126 435 q 124 435 125 435 q 121 435 122 435 q 118 439 119 436 l 115 444 q 113 449 115 447 q 107 451 110 451 q 106 451 107 451 q 104 450 106 450 q 100 451 101 450 q 89 460 92 457 q 86 464 88 463 l 85 468 q 82 472 85 471 q 76 477 79 475 q 72 482 74 479 q 64 493 69 485 q 63 494 64 494 q 63 496 63 494 l 56 500 q 55 501 56 501 q 54 503 54 501 q 51 508 51 506 q 52 510 51 508 q 53 513 53 511 q 51 517 53 515 q 51 518 51 518 q 50 519 50 518 l 46 525 q 42 533 43 528 q 42 540 42 538 q 40 554 40 544 m 378 365 q 374 360 376 363 q 368 356 371 358 q 368 353 368 354 q 369 349 368 351 q 369 344 369 346 q 368 340 369 342 l 364 328 q 363 326 364 326 q 363 325 363 326 l 358 319 q 358 318 358 318 q 357 317 357 318 q 356 315 357 315 q 356 314 356 315 l 349 306 q 346 300 347 303 q 342 294 344 297 l 338 282 q 335 276 335 279 q 333 269 335 272 q 328 264 331 267 q 325 258 326 261 q 320 253 322 256 q 317 247 318 250 q 314 241 314 244 q 313 235 314 238 q 310 227 311 232 q 308 219 308 222 l 307 211 l 307 208 q 303 203 304 206 q 300 197 301 200 q 297 194 300 197 l 290 186 q 288 181 289 183 q 283 175 286 178 q 283 174 283 174 q 282 172 282 174 l 278 167 q 277 165 278 165 q 276 164 276 165 l 276 149 l 271 138 q 269 131 269 135 q 267 125 269 128 l 263 113 q 256 100 257 104 l 251 89 q 251 88 251 88 q 250 86 250 88 l 238 68 q 236 65 236 68 q 236 60 236 63 q 236 51 236 56 q 238 47 236 50 l 242 43 q 243 40 243 42 l 247 28 q 251 24 247 25 q 254 22 254 24 q 253 21 254 21 q 251 22 251 21 q 249 22 250 22 q 246 21 247 22 q 241 17 243 21 q 235 14 239 14 l 219 14 l 211 11 q 206 10 208 10 q 196 10 200 10 q 192 13 194 10 l 188 17 q 183 19 186 19 l 181 19 l 174 21 l 168 21 l 161 19 l 158 19 q 151 19 154 19 q 144 18 147 18 l 129 18 l 122 14 q 114 13 119 13 l 103 13 l 96 11 l 93 11 q 89 14 92 11 l 85 18 q 81 21 83 21 q 78 19 78 21 l 69 14 q 67 13 69 13 l 38 13 q 36 17 36 15 q 42 23 36 21 q 50 28 47 25 q 53 33 53 31 l 53 38 q 56 43 54 42 q 61 46 58 46 l 64 47 q 69 50 68 49 q 71 53 71 51 q 70 58 71 56 q 69 61 69 60 q 71 65 69 64 l 88 85 l 93 97 q 94 99 93 99 q 94 100 94 99 q 101 113 100 108 q 106 118 104 115 q 110 124 108 121 q 113 129 111 126 q 117 135 114 132 l 121 147 q 122 151 122 149 q 122 155 122 153 q 122 158 122 157 q 122 161 122 160 q 128 166 125 164 q 132 171 131 168 q 133 175 133 172 q 133 176 133 175 l 132 181 q 133 186 132 185 q 135 190 135 188 q 134 192 135 192 q 133 193 133 193 q 136 199 133 196 q 139 204 138 201 q 143 210 140 207 q 146 213 143 210 l 151 217 q 154 219 154 219 q 156 222 156 221 q 154 225 156 224 l 154 228 q 154 232 154 231 q 154 233 154 233 q 156 236 156 236 l 158 243 q 159 244 158 244 q 160 246 160 244 q 161 252 161 249 q 164 258 161 256 q 169 263 165 261 q 176 267 174 264 q 177 268 176 268 q 178 269 178 268 l 182 275 q 183 276 182 276 q 183 278 183 276 q 186 284 186 281 q 188 290 186 288 q 192 296 190 293 q 194 301 193 299 l 194 306 l 193 313 l 193 317 q 200 321 196 319 q 206 325 204 322 q 207 328 207 326 q 206 333 207 331 q 204 339 204 336 q 204 340 204 339 q 210 345 207 343 q 215 350 214 347 q 217 356 217 353 l 215 358 q 217 364 215 363 q 223 368 219 367 q 228 372 226 369 q 228 375 228 374 q 227 379 228 376 q 226 383 226 382 q 228 388 226 386 q 228 389 228 389 q 229 390 229 389 l 236 394 q 237 396 236 396 q 238 397 238 396 q 240 403 240 400 q 240 403 240 403 q 239 406 239 404 q 240 410 239 408 q 241 411 240 411 q 242 413 242 411 l 246 418 q 247 419 246 419 q 247 421 247 419 l 254 429 q 255 431 254 431 q 256 432 256 431 q 256 433 256 433 q 257 435 257 433 l 261 440 q 262 442 261 442 q 263 443 263 442 q 264 446 264 444 q 263 451 264 449 q 261 457 261 454 q 261 458 261 457 q 267 463 263 461 q 275 467 272 464 l 279 479 q 281 482 281 481 q 279 485 281 483 l 278 489 q 278 493 278 492 q 278 494 278 494 q 285 498 279 497 q 293 501 290 499 q 294 504 294 503 q 293 507 294 506 l 289 513 q 289 517 289 515 q 289 518 289 518 l 296 526 q 297 528 296 528 q 297 529 297 528 q 301 532 299 532 l 304 535 q 308 538 307 536 q 310 540 310 539 q 308 543 310 542 l 307 547 q 307 551 307 550 q 307 553 307 553 q 308 554 307 554 q 308 556 308 554 l 314 561 q 315 563 314 563 q 315 564 315 563 q 317 567 317 565 l 321 575 q 325 578 322 578 l 329 581 q 333 583 332 582 q 336 589 336 586 q 335 590 336 589 q 335 593 335 592 q 336 597 335 596 q 340 603 339 600 q 343 608 342 606 q 344 613 344 610 q 344 616 344 614 q 344 619 344 618 q 344 622 344 621 q 347 628 347 625 q 347 629 347 628 q 346 631 346 631 q 349 639 346 635 l 353 643 q 354 646 354 646 l 356 647 l 356 649 l 357 657 q 358 660 358 658 q 364 671 361 668 q 372 686 365 674 l 376 690 q 378 693 378 693 l 378 694 q 379 696 379 696 l 382 703 q 383 704 382 704 q 383 706 383 704 q 386 708 385 708 l 390 711 q 393 714 392 713 q 394 717 394 715 q 393 719 394 718 l 390 724 q 390 728 390 726 q 390 729 390 729 q 396 734 392 732 q 400 739 400 736 l 400 751 q 399 754 400 753 l 396 760 q 394 763 394 761 l 394 775 q 394 778 394 776 q 394 782 394 781 q 394 785 394 783 q 393 789 394 788 q 392 792 393 792 q 392 791 392 792 q 392 790 392 790 q 389 793 390 790 l 392 793 l 397 797 q 407 797 400 797 q 417 794 414 796 l 425 792 q 428 790 425 790 l 444 790 l 453 793 q 460 794 456 794 l 485 794 l 492 797 q 496 797 493 797 l 506 800 q 508 800 507 800 l 511 800 l 519 797 q 528 796 522 796 l 539 796 l 546 794 l 558 794 q 565 796 563 794 l 574 799 l 576 799 q 583 797 579 799 q 590 796 586 796 l 593 796 l 600 794 l 603 794 q 599 791 601 792 q 594 788 597 790 q 593 785 593 786 l 592 779 q 590 776 592 778 q 588 772 589 775 l 588 768 q 585 764 588 767 q 579 763 583 763 l 572 763 q 571 763 571 763 q 567 761 568 763 q 567 760 567 761 q 567 756 567 758 l 568 749 q 569 746 569 747 q 568 743 569 744 q 563 740 567 742 l 560 739 q 554 736 557 739 q 552 731 553 733 q 549 725 551 728 q 548 724 549 724 q 547 722 547 724 l 544 715 q 543 713 544 714 q 542 711 543 711 q 542 710 542 711 l 536 704 q 535 703 536 703 q 535 701 535 703 q 532 696 533 699 q 528 690 531 693 l 528 688 l 526 679 l 526 676 q 526 675 526 675 q 525 674 525 675 l 521 667 q 519 664 521 665 q 514 653 518 658 q 513 651 514 651 q 513 650 513 651 l 510 643 q 508 640 508 642 q 501 636 506 638 q 496 632 497 635 l 492 619 q 488 614 489 617 q 485 608 486 611 q 479 596 482 604 l 479 581 l 472 567 l 471 558 q 469 556 471 557 q 467 551 468 554 l 463 550 q 460 546 461 549 q 457 542 458 544 l 456 539 q 453 535 456 538 q 453 532 453 533 q 453 528 453 531 q 453 525 453 526 q 451 521 453 522 l 446 510 q 439 505 443 507 q 433 500 435 503 q 433 499 433 499 q 435 493 433 496 q 438 488 438 490 q 436 485 438 486 q 432 481 435 483 l 428 479 q 424 475 425 478 q 421 469 422 472 q 417 464 419 467 q 417 463 417 463 q 418 457 417 460 q 419 451 419 454 q 418 449 419 450 q 417 446 418 447 l 417 439 q 415 436 415 439 q 408 424 410 428 q 400 413 406 421 l 394 401 q 392 399 394 401 l 382 392 q 382 390 382 390 q 384 385 382 388 q 386 379 386 382 q 385 376 386 378 q 382 371 383 374 q 378 365 381 368 m 113 569 q 113 565 113 568 q 114 558 113 563 q 115 551 115 554 q 115 549 115 550 q 117 544 117 547 q 116 541 117 543 q 115 538 115 539 q 115 535 115 536 q 125 524 118 524 q 131 526 128 524 q 139 531 135 528 q 151 540 147 536 q 154 544 154 543 l 156 547 q 158 551 157 550 q 164 554 161 554 l 167 556 q 172 558 171 557 q 176 561 175 561 l 181 563 q 185 565 183 564 l 192 572 q 193 575 193 575 q 196 581 196 578 q 195 583 196 582 q 194 586 194 585 q 196 590 194 589 q 201 603 199 593 q 208 608 204 606 q 213 613 211 610 l 217 625 q 218 628 218 628 l 221 635 q 222 636 221 636 q 222 638 222 636 q 224 640 224 639 q 222 643 224 642 l 218 647 q 218 651 218 650 q 218 653 218 653 q 222 658 219 656 q 224 664 224 661 q 224 667 224 665 q 222 671 224 668 q 219 676 221 674 q 219 681 219 679 q 219 683 219 682 l 219 686 q 219 688 219 686 q 218 689 219 688 q 207 694 213 694 q 203 693 206 694 l 190 685 q 189 684 189 685 q 188 683 189 683 l 181 679 q 178 678 179 679 q 175 675 178 678 l 168 667 q 165 663 167 665 l 164 658 q 161 654 164 657 q 156 647 158 653 q 153 639 154 642 l 150 632 q 149 629 150 631 q 141 625 146 626 q 135 621 136 624 q 129 608 132 617 q 128 603 128 607 l 131 599 q 131 597 131 597 q 129 593 131 594 l 118 582 q 113 569 115 578 m 628 179 q 626 176 628 178 l 622 169 q 621 167 621 169 q 619 160 619 164 q 618 153 619 157 q 618 151 618 153 q 618 147 618 150 l 622 144 q 624 142 624 143 q 622 139 624 140 q 616 134 621 136 q 610 128 611 132 q 610 125 610 126 q 610 122 610 124 q 611 118 611 119 q 610 115 611 117 q 608 113 610 113 l 608 104 q 607 101 607 103 q 606 99 607 100 l 599 94 q 598 93 599 93 q 597 92 597 93 q 596 88 596 90 q 597 85 596 86 q 597 83 597 83 q 594 78 597 81 l 589 68 q 586 63 586 65 q 587 61 586 63 q 588 58 588 60 q 586 54 588 56 q 583 53 585 53 l 578 49 q 574 44 576 49 l 569 40 q 565 36 569 36 l 558 29 q 557 28 557 29 q 556 28 557 28 l 549 25 q 546 24 547 24 q 544 23 544 24 q 543 22 544 22 l 536 21 q 533 19 535 21 q 509 10 519 11 q 483 8 499 8 q 479 7 482 7 q 475 8 478 7 q 469 8 472 8 q 457 15 465 10 q 453 20 454 17 q 449 26 451 24 q 446 28 447 28 q 443 28 444 28 l 439 28 q 433 29 436 28 q 431 33 432 32 l 429 38 q 426 42 429 40 q 425 44 425 44 l 421 51 q 419 54 421 53 q 418 57 418 57 l 415 64 q 414 67 415 65 q 408 69 413 69 l 404 72 q 399 75 401 74 q 392 88 393 83 l 392 90 l 393 99 l 393 101 q 392 103 393 103 q 392 104 392 103 l 385 110 q 384 111 385 111 q 383 113 383 111 q 383 115 383 114 q 383 118 383 117 l 388 122 q 389 126 389 125 q 388 128 389 128 q 386 131 388 131 l 383 150 q 382 153 382 151 q 378 157 382 156 l 375 161 q 371 165 371 164 q 375 172 371 168 q 379 178 379 175 q 379 179 379 179 q 378 182 379 182 l 372 189 q 371 192 371 190 l 371 194 l 375 201 l 375 204 q 376 210 375 207 l 379 213 q 381 218 381 215 q 382 222 382 219 q 381 226 382 224 q 381 231 381 228 q 383 237 382 233 q 385 243 385 240 q 386 256 386 247 q 388 261 388 258 q 387 263 388 263 q 386 265 386 264 q 388 269 386 268 l 388 283 q 389 288 389 285 q 388 290 389 289 q 388 290 388 290 q 390 296 388 293 q 396 300 392 299 q 403 304 400 301 l 407 317 q 408 321 408 318 q 408 324 408 322 q 407 328 407 326 q 407 331 407 329 q 410 332 408 332 l 418 335 q 428 343 419 335 q 438 354 436 351 q 439 358 439 356 q 439 360 439 358 l 439 364 q 440 369 439 368 q 446 372 443 372 l 449 371 q 454 374 453 372 q 460 376 457 375 q 467 378 464 378 q 473 384 471 381 q 479 389 475 388 l 493 389 q 500 390 497 390 q 507 389 504 390 q 521 390 511 390 q 524 389 524 389 l 531 382 q 532 381 532 382 q 533 381 532 381 q 539 379 536 379 l 542 379 q 544 379 543 379 q 547 378 546 379 q 550 376 549 378 l 557 375 q 560 374 558 375 l 569 364 q 571 361 571 364 l 575 356 q 576 354 575 354 q 576 353 576 354 q 578 350 578 353 l 579 343 q 580 342 579 342 q 581 340 581 342 l 590 331 q 592 326 592 329 l 590 322 q 592 318 590 321 q 597 307 596 313 q 601 303 599 306 l 607 301 q 611 297 610 300 l 611 294 l 610 286 l 610 283 q 611 281 610 282 l 611 274 q 613 271 613 274 q 615 264 614 267 q 617 258 617 261 q 621 251 618 254 q 624 246 624 249 q 625 243 624 243 l 625 235 q 626 232 626 235 l 626 219 q 628 212 626 215 q 629 206 629 208 q 629 204 629 206 q 625 199 629 201 q 621 193 621 196 q 624 185 621 189 q 628 179 628 182 m 568 240 q 571 254 571 249 q 567 258 571 257 q 560 260 563 258 q 553 263 556 263 q 550 263 551 263 q 539 257 542 260 q 536 254 538 256 l 533 250 q 531 247 532 249 q 528 246 529 246 l 521 244 q 518 243 519 244 q 515 239 517 242 l 515 235 q 513 231 515 233 q 511 228 511 229 l 507 222 q 506 219 507 221 q 497 210 500 214 q 492 206 494 207 q 489 201 490 204 q 483 197 486 199 q 478 193 479 196 q 477 192 478 192 q 476 190 476 192 l 475 183 q 474 181 475 182 q 472 178 474 179 l 467 174 q 465 171 467 172 l 461 158 q 461 157 461 158 q 461 153 461 156 l 465 149 q 467 146 467 147 q 465 143 467 144 q 461 125 463 132 q 460 119 461 122 q 458 115 458 117 q 458 113 458 114 q 458 105 458 110 q 463 97 458 100 q 467 97 464 97 q 476 99 471 97 l 489 103 q 501 113 497 108 l 506 118 q 507 121 507 121 q 508 124 507 122 q 511 129 510 126 q 515 136 513 132 l 519 143 q 520 144 519 144 q 521 146 521 144 q 526 149 524 149 l 531 149 q 536 151 535 150 q 538 154 538 154 l 542 161 q 542 163 542 163 q 543 164 543 163 q 543 167 543 165 q 542 171 543 168 q 542 175 542 174 q 543 179 542 178 q 550 184 546 182 q 556 189 554 186 q 561 201 558 193 q 563 204 563 204 l 565 211 q 566 213 565 213 q 567 214 567 213 q 567 215 567 215 q 564 222 567 218 q 561 228 561 225 q 561 231 561 229 q 563 235 561 233 l 567 236 q 568 240 568 239 z "},"&":{"ha":843,"x_min":35,"x_max":815,"o":"m 813 393 l 813 379 q 812 378 813 378 q 811 376 811 378 l 808 369 q 807 367 807 368 q 806 359 806 363 q 803 353 806 356 q 801 346 801 350 q 799 339 801 342 q 794 333 797 336 q 789 328 792 331 l 781 315 q 778 314 779 314 l 772 310 q 769 308 771 310 q 758 299 763 301 q 753 296 757 297 l 750 297 q 744 294 747 297 q 741 287 742 292 q 738 281 740 282 q 735 279 736 279 q 728 282 732 279 q 722 285 725 285 q 716 281 719 283 q 710 279 713 279 q 708 280 708 279 q 707 281 708 281 l 700 283 q 697 285 699 285 q 686 288 688 285 q 686 289 686 289 q 688 292 686 290 q 692 297 689 293 q 695 304 694 300 q 697 311 696 308 q 694 319 697 315 q 689 325 690 322 q 683 338 686 333 q 682 340 682 340 l 679 347 q 675 351 679 351 l 671 356 q 669 356 669 356 q 668 357 669 357 q 664 360 667 360 l 661 361 q 657 364 660 363 q 651 367 654 365 q 646 371 649 368 q 643 378 643 372 q 640 386 643 383 q 638 388 639 386 l 631 388 q 628 389 631 389 l 614 389 l 601 393 q 589 394 597 394 q 586 396 588 396 l 582 400 q 578 401 581 401 q 575 403 576 403 q 570 401 574 403 q 564 400 567 400 q 558 398 561 400 q 551 394 556 396 l 549 394 l 542 399 l 525 399 q 522 396 524 397 l 519 392 q 517 389 519 390 q 520 383 518 383 q 526 381 522 382 l 540 381 q 543 379 543 379 l 563 369 q 565 368 564 369 l 576 363 q 589 356 585 357 l 604 342 q 608 338 606 339 l 618 328 q 621 326 621 326 l 629 325 q 632 324 631 325 q 633 321 633 324 l 636 313 q 637 311 636 311 q 638 310 638 311 q 640 307 639 308 l 646 304 q 649 301 647 303 q 654 299 651 300 l 657 299 q 663 296 661 299 q 665 290 665 294 l 664 288 q 667 282 665 285 q 672 279 669 281 l 676 281 q 682 278 681 281 q 685 274 685 276 l 686 269 q 689 265 688 268 q 694 260 692 263 q 697 256 696 258 q 699 251 699 254 q 699 249 699 250 q 699 244 699 247 q 699 242 699 243 q 700 239 700 239 l 701 231 q 703 228 703 229 q 706 224 704 226 l 710 222 q 713 218 711 221 q 714 217 714 218 q 713 214 714 215 l 713 210 q 713 208 713 210 q 713 206 713 207 l 713 203 l 714 194 l 714 192 q 716 186 715 189 q 718 179 717 183 q 719 174 718 176 q 722 167 721 171 l 722 154 q 724 151 722 153 l 729 144 q 731 142 731 144 q 726 135 731 138 q 719 129 721 132 q 721 122 719 125 q 722 118 722 119 q 722 115 722 117 q 724 110 722 113 q 725 104 725 107 q 724 101 725 103 q 719 97 722 100 l 715 96 q 711 92 713 94 q 710 88 710 90 q 710 85 710 86 q 711 83 711 83 q 708 78 711 81 q 707 75 707 76 l 703 71 q 701 68 703 69 q 699 63 700 67 l 697 60 q 694 54 697 57 q 692 53 693 53 l 688 49 q 685 47 686 49 q 674 39 678 40 q 667 36 671 36 q 661 35 664 36 q 649 28 653 29 l 639 18 q 635 15 638 17 l 632 14 q 628 11 631 14 q 615 10 624 10 q 613 8 613 10 l 604 8 q 601 7 604 7 q 595 4 599 6 q 589 3 592 3 q 575 1 583 1 l 571 1 l 564 -1 l 560 -1 q 554 3 557 -1 q 549 10 551 8 q 535 13 543 10 q 522 15 532 13 q 508 19 511 18 q 503 22 506 21 q 497 26 500 24 q 485 32 489 29 q 482 33 485 33 l 475 36 q 474 37 474 36 q 472 38 474 38 q 463 49 468 40 q 461 51 461 50 q 463 57 461 54 q 464 63 464 60 q 464 64 464 63 q 461 76 461 72 q 458 83 460 79 q 457 89 457 86 q 456 93 456 90 q 456 97 456 94 q 457 101 457 99 q 456 104 457 104 l 451 113 q 450 115 450 113 l 450 129 q 456 135 451 135 q 458 134 457 135 q 460 133 458 133 q 468 136 464 133 q 471 138 469 138 l 475 143 q 478 144 476 144 q 488 154 483 149 q 501 175 499 165 q 503 179 503 176 q 502 183 503 181 q 501 189 501 185 q 505 194 503 192 q 507 200 507 197 l 507 214 q 508 219 507 217 q 508 222 508 221 q 507 226 508 225 q 506 240 507 236 q 503 246 506 243 q 499 251 501 249 q 494 256 497 254 q 489 261 492 258 q 489 264 489 263 q 490 268 489 265 q 492 274 492 271 q 490 276 492 275 q 488 278 490 278 l 479 281 q 478 281 478 281 q 476 282 478 282 q 475 288 475 285 l 475 292 q 475 294 475 293 q 474 297 475 296 q 471 299 472 299 q 469 299 471 299 l 467 299 q 463 300 465 299 q 460 295 461 297 q 458 290 458 293 q 457 286 457 289 q 458 283 457 285 q 458 279 458 281 q 458 276 458 278 q 453 271 457 274 q 449 265 449 268 q 444 251 447 260 q 443 249 444 250 l 443 242 q 442 239 442 242 l 442 236 l 440 228 l 440 225 q 439 213 440 217 q 438 204 439 210 q 435 196 438 199 l 428 190 q 427 189 428 189 q 426 188 426 189 q 426 186 426 188 q 428 182 426 185 l 432 178 q 433 174 433 176 q 433 172 433 174 l 429 160 q 428 158 429 158 q 428 157 428 158 l 422 151 q 422 150 422 150 q 421 149 421 150 q 417 135 419 143 l 417 132 l 418 124 l 418 121 q 414 117 417 119 l 408 115 q 404 111 406 114 q 404 110 404 110 q 406 104 404 107 q 407 99 407 101 q 406 96 407 97 q 402 90 404 93 q 397 85 400 88 q 396 82 397 83 l 390 78 q 389 75 390 76 q 388 69 388 74 l 388 65 q 388 64 388 64 q 386 60 388 61 q 382 57 385 58 l 378 56 q 374 53 376 56 q 371 50 372 51 l 365 47 q 363 44 364 46 q 354 35 360 40 l 344 25 q 339 21 342 22 q 333 18 336 19 l 322 11 q 319 11 321 11 q 316 12 318 11 q 313 13 314 13 q 308 11 310 13 q 306 10 307 11 l 286 7 q 283 6 286 6 q 282 6 283 6 l 274 -1 q 272 -1 274 -1 l 269 -1 l 261 -6 l 256 -6 l 249 -7 l 246 -7 q 243 -6 243 -7 l 235 -6 q 232 -4 235 -4 q 226 0 229 -4 q 221 6 224 4 q 215 7 218 6 q 208 10 211 8 q 204 11 207 11 l 200 11 q 196 13 199 11 q 185 18 190 14 q 179 19 183 19 l 176 18 q 171 19 174 18 q 168 21 169 21 l 161 25 q 158 26 160 26 q 154 32 156 28 q 150 39 153 36 q 144 40 147 40 q 138 43 140 40 q 135 44 135 44 l 126 47 q 124 49 125 49 q 121 53 122 51 l 119 57 q 117 61 119 60 q 116 63 117 63 q 115 64 115 63 l 111 69 q 110 72 111 72 q 106 75 108 75 l 101 76 q 97 79 100 78 q 94 82 96 81 l 89 85 q 86 88 88 86 q 85 93 85 90 l 85 96 q 85 99 85 97 q 83 101 85 100 q 82 104 82 104 l 79 111 q 78 114 79 113 q 74 117 76 117 l 71 119 q 67 122 68 121 q 60 135 61 131 q 57 142 57 138 q 56 146 57 143 l 56 149 q 54 154 54 151 q 53 161 54 157 l 53 164 l 51 171 l 51 174 q 47 179 50 176 q 43 186 43 182 q 42 199 42 190 q 42 201 42 200 q 43 206 42 203 q 44 213 44 210 q 39 219 43 215 q 35 225 35 222 l 35 228 l 38 236 l 38 239 q 41 245 38 242 q 44 253 44 249 q 40 259 44 256 q 35 267 35 263 q 39 273 36 269 q 42 279 42 276 q 45 285 43 282 q 49 292 47 288 l 53 303 l 53 317 q 54 319 54 318 l 58 325 q 60 328 60 326 q 61 331 61 331 l 63 339 q 64 342 64 340 q 67 347 65 344 q 72 351 69 349 q 74 354 74 354 l 75 363 q 76 365 76 364 q 79 367 78 367 l 86 371 q 89 372 89 372 l 96 379 q 99 381 99 381 q 107 392 101 383 q 108 394 108 393 l 113 400 q 114 403 114 403 q 118 406 117 406 l 122 406 q 126 408 125 407 l 135 415 q 136 416 136 415 q 138 417 136 417 q 140 421 140 418 l 143 424 q 146 428 144 426 q 150 429 147 429 q 153 429 151 429 q 158 429 156 429 q 161 429 160 429 q 167 435 164 432 q 172 439 169 438 q 176 440 174 440 q 178 440 176 440 l 183 438 q 189 439 188 438 q 192 444 192 442 l 194 447 q 197 453 196 451 q 207 454 200 454 q 217 457 214 454 q 214 460 215 458 l 208 467 q 206 469 207 468 q 203 471 204 471 q 200 471 201 471 l 194 471 q 189 472 192 471 q 186 478 188 475 l 188 481 q 185 486 188 485 q 183 489 183 489 l 182 497 q 181 500 182 499 q 178 503 179 501 l 172 506 q 169 508 171 507 q 167 513 168 511 l 168 517 q 165 521 168 519 q 160 525 164 524 q 153 529 156 526 q 153 532 153 531 q 153 535 153 533 l 156 539 q 157 543 157 542 q 156 544 157 544 q 149 549 153 547 q 143 554 144 551 q 142 557 142 557 l 139 564 q 138 565 139 565 q 138 567 138 565 q 138 568 138 568 q 139 572 138 571 l 142 576 q 143 581 143 579 q 143 582 143 582 q 142 594 143 590 q 140 601 142 597 q 139 608 139 604 q 137 614 139 611 q 135 619 135 617 q 135 622 135 621 q 136 635 135 631 l 136 639 l 140 644 l 140 649 q 142 651 142 651 l 144 658 q 145 660 144 660 q 146 661 146 660 q 147 663 146 663 q 147 664 147 663 l 150 669 q 151 672 151 671 q 153 675 151 674 l 153 683 q 154 686 154 683 q 158 692 156 689 q 163 697 160 694 q 164 701 164 699 q 163 704 164 703 q 163 706 163 706 q 165 711 163 708 l 172 719 q 173 721 172 721 q 174 722 174 721 q 178 725 176 725 l 182 726 q 186 729 185 728 q 189 731 189 731 l 196 735 q 197 735 197 735 q 199 736 197 736 l 207 744 q 217 753 211 747 q 222 758 219 756 q 226 761 224 760 q 231 767 229 764 q 235 771 232 769 l 243 778 q 244 778 244 778 q 246 779 244 779 q 249 781 247 781 l 253 786 q 256 788 254 788 q 260 789 257 789 q 263 788 261 789 q 267 788 265 788 q 269 788 268 788 q 274 792 272 789 q 279 797 276 794 q 282 799 282 799 l 289 801 q 290 802 290 801 q 292 803 290 803 q 293 803 293 803 q 299 801 296 803 q 306 799 303 799 q 307 799 307 799 q 308 800 307 800 l 314 807 q 315 808 315 807 q 317 808 315 808 l 319 808 l 328 807 l 333 807 l 340 808 l 343 808 q 350 808 347 808 q 354 807 353 807 q 357 807 356 807 q 363 808 360 807 l 365 813 q 371 814 368 814 l 374 814 l 381 815 l 383 815 q 397 817 389 817 q 403 815 400 815 q 406 816 404 815 q 411 817 408 817 q 420 815 414 817 q 428 811 426 813 l 435 807 q 438 806 436 806 l 440 806 l 449 807 l 451 807 q 456 806 453 806 q 460 806 457 806 q 465 807 463 807 l 476 796 l 492 796 q 494 796 493 796 q 499 796 497 796 q 501 796 500 796 q 506 794 504 796 q 510 789 508 793 q 514 782 511 785 q 520 781 517 781 q 526 778 524 781 q 529 776 529 776 l 551 765 q 553 763 553 764 q 553 760 553 761 l 553 754 q 554 749 553 751 q 556 748 556 749 q 557 747 556 747 l 564 744 q 567 743 567 744 q 568 742 568 743 q 569 742 568 742 l 576 738 q 579 736 579 738 q 586 725 585 728 q 589 719 589 722 q 588 718 589 719 q 588 715 588 717 q 589 711 588 713 q 589 708 589 710 q 588 703 589 707 q 586 697 586 700 q 587 696 586 696 q 588 694 588 696 l 592 688 q 593 685 593 686 l 593 682 l 592 675 l 592 672 q 593 667 592 669 q 594 663 594 664 q 594 660 594 661 q 592 653 594 657 q 588 647 589 650 q 589 643 588 644 l 592 636 q 593 632 593 635 q 587 624 592 628 q 582 617 582 621 q 585 610 582 614 q 589 601 589 606 q 588 599 589 599 l 588 590 q 586 588 586 590 q 588 585 588 586 q 587 580 588 582 q 586 576 586 578 q 588 572 586 574 q 593 569 590 569 q 596 570 594 569 q 599 571 597 571 q 603 569 601 571 q 610 556 610 563 q 608 550 610 553 q 608 549 608 549 q 607 547 607 549 l 604 540 q 603 538 604 539 q 598 533 601 535 q 592 528 594 531 q 588 525 590 526 l 583 524 q 579 521 582 524 q 576 515 578 519 l 578 513 q 575 507 578 510 q 571 504 574 506 l 568 503 q 564 500 567 503 q 561 499 563 499 l 554 497 q 551 496 553 497 q 548 490 549 494 q 544 482 547 485 q 542 481 542 482 l 533 481 q 531 479 533 479 q 528 478 529 478 q 524 479 526 478 q 518 481 521 481 q 517 481 518 481 q 513 476 515 479 l 511 472 q 507 468 510 469 q 506 468 507 468 q 501 468 504 468 l 499 472 q 496 474 497 474 q 493 472 494 474 q 490 471 492 472 l 483 465 q 481 464 483 464 q 473 467 476 464 q 467 469 469 469 q 461 473 464 471 q 454 476 458 475 q 453 478 454 478 q 449 476 451 478 l 444 475 q 442 475 443 475 q 439 475 440 475 q 434 479 436 476 q 429 485 432 482 l 422 492 q 421 492 421 492 q 419 493 421 493 q 411 504 417 496 l 399 526 l 399 529 l 397 538 l 397 540 q 392 551 394 546 q 389 564 390 557 l 389 567 l 386 574 l 386 576 q 388 589 386 585 q 389 597 388 593 q 390 603 390 600 l 394 615 q 394 618 394 617 q 394 624 394 621 q 393 628 393 626 q 393 631 393 629 q 397 635 394 633 l 403 636 q 407 640 406 639 q 413 653 410 649 q 414 656 414 654 q 413 658 414 657 l 408 663 q 408 667 408 665 q 408 668 408 668 q 410 671 408 669 l 410 676 q 411 679 411 678 q 413 683 413 682 l 413 686 q 414 690 413 689 q 417 698 415 694 q 418 704 418 701 q 414 715 418 711 q 410 722 411 718 q 407 726 410 725 q 400 729 404 729 q 393 731 396 729 q 379 729 385 731 l 367 725 q 365 722 365 724 l 361 717 q 360 714 361 715 q 353 704 358 713 q 348 701 351 701 q 342 699 344 701 q 341 697 342 697 q 340 696 340 697 l 338 690 q 337 689 338 689 q 336 688 336 689 q 335 686 336 686 q 335 685 335 686 l 332 678 q 331 675 331 676 l 325 664 q 326 658 325 661 q 328 653 328 654 q 328 650 328 651 q 328 645 328 647 q 329 642 329 643 q 328 638 329 639 q 326 635 328 636 l 324 628 q 322 625 322 628 q 322 624 322 624 q 325 618 322 621 q 328 613 328 615 l 328 610 l 326 603 l 326 600 q 325 597 326 597 l 322 589 q 321 586 321 589 q 320 581 321 583 q 319 576 319 578 q 319 574 319 575 q 324 567 319 569 q 329 561 328 564 q 327 555 329 558 q 325 549 325 551 q 325 547 325 549 q 326 546 325 546 q 326 544 326 546 l 333 539 q 334 538 333 538 q 335 536 335 538 l 335 533 l 333 525 l 333 522 q 334 521 333 521 q 335 519 335 521 l 340 515 q 341 514 340 514 q 342 513 342 514 q 343 510 343 511 q 342 506 343 508 q 342 503 342 504 q 343 499 342 500 q 347 496 344 497 l 350 493 q 354 490 353 493 q 356 488 356 489 q 356 485 356 486 l 354 481 q 354 476 354 478 l 357 474 q 361 472 358 472 q 368 469 365 472 q 371 465 371 468 l 369 461 q 372 457 371 460 q 376 454 375 456 l 381 453 q 385 450 383 453 q 388 447 386 449 l 393 444 q 396 442 394 443 q 399 436 399 439 l 400 433 q 406 426 401 428 l 414 425 q 417 424 415 425 l 429 415 q 432 411 432 414 l 435 407 q 438 403 436 404 q 443 401 440 401 q 448 402 444 401 q 456 404 451 403 q 463 404 458 404 q 472 407 468 404 q 474 410 474 408 l 475 418 q 476 421 476 421 l 485 428 q 486 428 486 428 q 488 429 486 429 l 494 436 q 496 439 496 439 q 499 440 499 440 l 506 444 q 507 445 507 444 q 508 446 507 446 q 510 449 510 447 l 514 453 q 515 456 515 456 l 525 465 q 528 467 526 467 l 533 471 q 536 472 536 472 q 546 481 542 478 q 550 483 549 483 l 553 485 q 557 488 556 486 q 560 489 558 489 q 564 488 563 489 q 567 488 565 488 q 571 489 569 488 l 582 496 q 585 497 583 497 l 589 503 q 592 504 590 504 q 597 510 594 507 q 601 514 599 513 l 604 514 l 611 515 l 614 515 q 617 517 615 517 q 619 515 618 517 l 622 514 q 626 514 625 514 q 628 514 628 514 q 635 515 632 515 q 642 517 639 515 q 648 520 644 518 q 654 522 651 522 q 662 526 658 522 q 668 531 665 531 q 675 526 671 531 q 682 519 679 521 q 690 524 686 519 q 696 529 693 529 q 697 529 697 529 q 703 526 700 529 q 711 522 707 524 q 717 520 714 522 q 724 517 721 518 q 729 513 726 515 q 736 510 732 511 q 749 504 744 507 q 760 499 757 501 q 765 496 763 497 l 769 497 q 775 494 774 497 l 785 485 q 788 482 786 483 l 793 478 q 796 475 794 476 q 799 469 799 472 q 798 468 799 469 q 797 465 797 467 q 799 461 797 463 q 806 449 804 453 q 810 442 808 446 q 814 436 813 439 l 814 433 l 815 425 l 815 422 q 814 417 815 419 l 810 413 q 808 407 808 410 q 810 401 808 404 q 813 396 813 399 q 813 393 813 394 m 394 346 q 400 350 397 349 l 404 351 q 410 356 408 354 q 396 367 401 364 q 393 368 394 368 q 388 366 390 368 q 382 364 385 364 q 381 364 382 364 q 379 365 379 364 q 378 365 379 365 l 374 372 q 372 373 372 372 q 371 374 372 374 q 366 379 368 376 q 361 383 364 382 l 358 383 l 350 385 q 344 386 346 385 l 339 392 q 338 392 338 392 q 336 393 338 393 q 335 394 336 394 q 331 393 333 394 l 328 392 q 325 392 326 392 q 322 392 324 392 q 317 399 319 394 q 313 404 315 403 l 310 404 l 301 403 l 299 403 q 286 406 290 406 q 281 410 283 407 q 276 414 279 414 q 275 414 276 414 q 264 404 268 411 q 261 398 261 401 q 260 392 261 394 q 258 388 258 390 q 259 384 258 386 q 260 379 260 382 q 258 375 260 378 l 254 364 q 252 357 254 360 q 250 351 250 354 l 250 349 l 249 340 l 249 338 q 250 335 249 336 l 250 328 q 251 325 251 328 q 255 320 253 322 q 260 315 257 318 q 264 308 261 313 q 271 303 267 303 l 275 303 q 279 301 278 303 q 283 300 282 300 l 286 300 q 290 299 289 300 q 293 297 293 299 l 300 294 q 303 293 301 293 q 308 292 306 293 q 313 292 311 292 q 317 293 315 292 l 329 297 q 333 300 332 300 l 336 301 q 340 304 339 303 l 349 311 q 351 314 351 314 q 356 318 354 315 q 361 324 358 321 l 368 331 q 371 332 371 332 l 378 340 q 381 343 381 343 q 386 344 382 344 l 389 344 q 394 346 393 344 z "},"(":{"ha":535,"x_min":28,"x_max":493,"o":"m 311 849 l 307 842 q 306 839 307 840 q 306 836 306 838 q 306 833 306 835 q 306 829 306 831 q 304 825 306 826 q 297 814 303 819 q 296 811 297 811 l 296 803 q 294 800 294 803 q 292 797 293 799 l 286 793 q 283 790 285 792 l 278 779 q 276 775 276 778 q 277 772 276 774 q 278 768 278 771 q 276 765 278 767 q 276 764 276 764 q 275 763 275 764 l 272 756 q 271 753 271 754 q 265 748 269 750 q 258 743 261 746 q 258 742 258 743 q 260 738 258 740 l 263 733 q 264 729 264 732 q 264 728 264 729 q 260 724 263 726 l 256 722 q 251 718 253 721 l 247 706 q 247 704 247 706 q 247 700 247 703 l 250 696 q 251 693 251 694 q 250 690 251 692 q 249 676 250 682 l 244 665 q 242 658 243 661 q 239 653 240 656 q 235 639 236 644 q 232 635 235 638 l 229 632 q 226 628 226 631 q 226 626 226 628 q 228 622 226 625 l 231 618 q 232 614 232 617 q 232 613 232 614 l 232 610 l 229 603 l 229 600 q 225 594 228 597 q 222 588 222 590 q 222 586 222 586 q 224 580 222 583 q 226 574 226 576 q 225 569 225 572 q 226 567 225 568 q 226 565 226 567 q 225 560 226 563 l 225 557 l 222 550 l 222 547 q 221 541 222 544 q 218 535 219 538 l 218 532 l 217 524 l 217 521 q 215 508 217 513 q 217 501 215 504 q 218 497 218 499 q 217 494 218 496 q 217 492 217 493 l 214 482 q 214 478 214 479 l 211 471 l 211 465 l 213 457 q 213 449 213 453 q 215 442 214 446 q 217 434 215 438 q 219 428 219 431 q 219 423 219 425 q 218 419 218 421 q 219 415 218 417 q 218 408 219 411 q 217 401 217 404 l 217 374 q 220 368 217 371 q 225 363 224 365 q 228 349 225 357 q 229 342 228 346 q 232 336 231 339 q 235 324 232 332 q 236 317 236 321 q 238 310 236 314 q 240 302 239 306 q 240 294 240 299 l 242 288 l 242 285 q 242 282 242 283 q 240 276 242 279 q 239 271 239 274 q 239 269 239 271 q 240 262 239 267 q 243 254 240 257 l 250 249 q 251 247 250 247 q 251 246 251 247 l 256 232 q 256 231 256 231 q 257 229 257 231 l 264 225 q 265 224 264 224 q 265 222 265 224 q 267 219 267 221 q 265 214 267 217 q 264 210 264 211 q 264 207 264 208 q 268 201 267 204 q 271 196 269 199 q 274 190 274 193 q 275 183 274 186 q 276 182 275 182 q 276 181 276 182 l 283 175 q 284 174 283 174 q 285 172 285 174 q 286 169 286 171 q 285 166 286 168 q 285 163 285 164 q 286 158 285 160 q 287 157 286 157 q 288 156 288 157 l 294 151 q 295 150 294 150 q 296 149 296 150 q 297 146 297 147 q 297 143 297 144 l 297 140 q 299 135 297 138 q 301 132 300 133 l 307 129 q 310 126 308 128 q 313 122 313 125 l 314 119 q 317 115 315 118 q 319 113 318 114 l 325 110 q 328 107 326 108 q 329 104 329 106 q 329 101 329 103 l 328 96 q 329 90 328 93 q 332 88 331 89 l 336 85 q 339 82 338 83 q 342 78 342 81 l 343 74 q 346 69 344 72 q 351 67 349 68 l 354 67 q 360 64 358 67 q 361 61 361 64 l 365 56 q 366 54 365 54 q 367 53 367 54 q 369 50 368 51 l 372 44 q 375 42 374 43 q 378 39 375 42 l 383 31 q 389 29 386 29 l 393 31 q 396 31 394 31 q 399 29 397 31 q 401 26 399 29 l 404 19 l 407 17 q 411 14 410 15 l 415 15 q 419 13 418 15 q 429 4 424 10 q 432 3 432 3 l 440 1 q 443 0 442 1 l 456 -4 q 458 -8 458 -6 l 461 -11 q 464 -15 463 -14 q 476 -22 472 -21 q 481 -24 479 -24 q 486 -28 483 -25 q 488 -31 488 -31 l 486 -36 q 483 -47 486 -39 q 483 -51 483 -50 q 484 -54 483 -53 q 485 -57 485 -56 q 483 -60 485 -58 q 481 -65 482 -65 q 478 -67 481 -65 q 473 -71 475 -68 q 469 -74 471 -74 q 467 -74 468 -74 q 460 -71 464 -74 q 454 -67 457 -68 l 451 -67 l 443 -68 l 440 -68 q 439 -67 439 -68 q 438 -67 439 -67 l 432 -60 q 431 -59 431 -60 q 429 -58 431 -58 l 426 -58 l 418 -60 l 415 -60 q 414 -59 414 -60 q 413 -58 414 -58 l 406 -54 q 403 -53 404 -53 q 401 -53 403 -53 q 397 -53 400 -53 l 393 -57 q 390 -58 392 -58 q 388 -57 389 -58 q 383 -53 386 -56 l 382 -49 q 378 -44 381 -46 q 372 -43 375 -43 q 365 -40 368 -43 l 353 -36 q 347 -32 350 -33 q 342 -29 344 -31 q 336 -25 339 -26 q 331 -22 333 -24 l 326 -22 l 319 -24 l 315 -24 q 310 -17 313 -21 q 306 -12 308 -14 q 301 -10 304 -11 l 297 -10 q 293 -7 296 -10 q 290 -6 292 -7 l 286 0 q 283 1 285 1 q 281 3 281 3 l 272 4 q 269 6 271 6 q 263 8 267 7 q 257 11 260 8 q 254 14 256 13 l 251 18 q 249 21 250 19 q 244 24 247 24 l 240 24 q 236 26 239 25 l 228 33 q 226 34 226 33 q 225 35 226 35 q 222 40 224 38 l 222 43 q 219 49 222 47 q 215 51 218 51 l 211 51 q 207 54 210 53 q 204 60 206 57 l 204 63 q 201 68 204 67 q 197 71 200 71 l 194 72 q 190 75 193 74 l 181 85 q 176 88 179 88 l 172 88 q 168 90 171 89 q 165 93 168 90 l 158 101 q 157 107 157 104 l 158 111 q 158 114 158 113 q 157 117 158 115 q 156 118 157 118 q 156 119 156 118 l 151 125 q 150 128 151 128 q 142 138 147 132 q 136 142 139 140 q 132 147 133 144 q 131 149 132 149 q 131 150 131 149 l 124 158 q 115 168 118 164 q 114 174 114 171 l 115 178 q 115 181 115 179 q 114 183 115 182 q 113 185 114 185 q 113 186 113 185 l 110 192 q 109 193 110 193 q 108 194 108 193 q 106 197 108 194 l 97 204 q 97 206 97 206 q 96 207 96 206 l 92 213 q 91 214 92 214 q 90 215 90 214 q 89 219 89 217 q 90 223 89 221 q 90 226 90 225 q 89 229 90 228 q 86 235 86 232 q 85 242 86 239 q 83 244 83 244 l 81 251 q 80 253 81 253 q 79 254 79 253 q 78 256 79 256 q 78 257 78 256 l 71 263 q 70 264 71 264 q 69 265 69 264 q 69 268 69 267 q 69 271 69 269 l 74 275 q 75 279 75 278 q 74 281 75 281 q 73 282 74 282 q 72 283 72 282 l 67 289 q 66 290 67 290 q 65 292 65 290 q 64 296 64 293 q 65 298 64 297 q 65 300 65 299 q 64 306 65 303 q 63 307 64 307 q 63 308 63 307 l 56 313 q 54 321 56 315 q 51 329 53 326 l 51 343 q 51 344 51 344 q 50 346 50 344 l 46 351 q 42 359 44 354 q 40 367 40 364 q 39 369 40 369 l 39 376 q 38 379 38 378 q 38 384 38 382 q 39 388 39 386 q 38 392 39 390 q 36 398 38 394 q 33 404 35 401 l 33 407 l 32 414 l 32 417 q 31 429 31 421 q 31 437 31 433 q 32 443 32 440 l 32 446 l 31 453 l 31 456 q 32 458 31 458 l 35 465 q 36 468 36 467 q 35 471 36 471 l 31 478 q 29 481 29 479 l 29 483 l 28 492 l 28 494 q 29 497 28 497 l 35 504 q 38 512 36 506 q 39 521 39 518 q 38 526 39 524 q 38 529 38 528 q 39 533 38 532 q 40 540 39 536 q 40 547 40 543 q 40 549 40 549 q 38 554 40 551 q 35 561 35 557 q 35 563 35 563 q 36 564 36 563 l 43 569 q 44 571 43 571 q 44 572 44 571 q 42 579 44 575 q 39 588 39 583 q 40 589 39 589 q 40 590 40 589 l 46 596 q 47 597 46 597 q 47 599 47 597 l 47 601 l 44 610 l 44 613 q 49 619 46 615 q 53 625 53 622 q 54 628 54 626 q 53 631 54 629 l 50 633 q 50 638 50 636 q 50 639 50 639 q 51 640 50 640 q 51 642 51 640 l 57 647 q 58 653 58 649 l 60 661 q 61 667 60 665 l 64 674 q 65 675 64 675 q 65 676 65 675 q 66 678 65 678 q 67 679 67 678 l 76 697 q 77 699 76 699 q 78 700 78 699 q 79 703 79 701 q 78 706 79 704 l 75 710 q 75 714 75 713 q 75 715 75 715 q 81 719 76 718 q 89 724 86 721 l 93 736 q 93 739 93 738 q 92 743 93 740 q 90 749 90 746 q 92 751 90 750 q 99 755 93 754 q 107 758 104 756 q 107 760 107 760 q 105 766 107 763 q 103 772 103 769 q 104 775 103 774 q 108 781 106 778 q 113 786 110 783 q 118 790 114 789 q 125 793 122 790 q 125 796 125 794 q 124 801 125 799 q 124 806 124 804 q 125 810 124 808 q 129 814 126 813 q 135 818 132 815 q 138 822 138 821 l 139 825 q 142 829 140 828 q 147 832 144 832 l 151 833 q 157 836 156 835 q 159 842 158 839 q 163 847 160 844 q 171 857 165 851 q 172 860 172 860 l 175 868 q 176 871 176 869 q 179 875 179 874 l 179 879 q 182 883 181 882 q 185 886 183 885 l 189 889 q 192 892 190 890 q 194 896 194 894 l 196 899 q 199 903 197 901 l 215 919 q 218 921 218 921 q 222 924 221 924 l 225 925 q 229 928 228 926 l 239 938 q 244 940 242 940 l 247 939 q 253 942 251 940 q 256 948 256 943 q 258 956 256 953 q 261 957 260 957 q 266 956 264 957 q 269 956 268 956 q 274 957 272 956 q 278 962 276 960 q 283 965 281 964 q 288 972 286 968 q 292 976 289 975 q 296 979 294 979 l 300 978 q 304 981 303 979 q 308 982 306 982 q 312 982 310 982 q 315 982 314 982 q 318 982 317 982 q 323 987 321 985 q 328 990 325 989 l 335 999 q 338 1001 338 1001 l 350 1006 l 364 1006 l 376 1010 q 382 1015 379 1013 q 388 1018 385 1017 q 399 1022 390 1019 q 401 1024 401 1024 l 408 1026 q 410 1027 410 1026 q 411 1028 410 1028 q 419 1031 414 1028 q 426 1035 424 1033 l 432 1039 q 440 1039 435 1039 q 449 1040 446 1039 q 458 1042 453 1042 q 467 1042 463 1042 q 478 1039 472 1042 q 487 1031 482 1038 q 493 1021 492 1025 q 485 1006 493 1010 q 478 1004 479 1006 q 475 1003 475 1003 l 467 1001 q 464 1000 465 1001 q 461 997 463 999 l 458 992 q 456 989 457 990 q 453 986 456 989 l 447 978 q 444 976 446 976 q 438 978 442 976 q 433 979 435 979 q 431 979 432 979 q 428 974 429 978 l 429 967 q 426 961 429 964 q 421 960 425 960 l 418 960 q 413 958 414 960 l 403 949 q 401 946 401 947 l 394 939 q 390 936 393 938 l 388 935 q 383 932 386 935 l 374 922 q 371 918 372 921 l 369 914 q 367 910 369 913 q 358 900 361 904 q 357 897 357 899 l 340 881 q 335 877 339 878 q 328 874 331 876 q 327 872 328 872 q 326 871 326 872 l 322 864 q 321 861 322 863 q 311 849 317 857 z "},")":{"ha":531,"x_min":42,"x_max":503,"o":"m 501 471 q 500 468 501 469 l 496 461 q 494 458 494 461 l 494 456 l 493 449 l 493 438 q 494 429 493 432 l 497 421 l 497 415 l 494 408 l 494 403 l 490 396 l 490 393 q 490 392 490 393 q 492 388 490 390 l 494 383 q 496 379 496 382 q 496 378 496 379 q 493 365 496 374 q 492 363 493 364 l 492 356 q 490 353 490 356 q 484 347 489 349 q 478 342 479 344 l 478 314 l 474 301 q 467 289 472 297 q 463 284 465 286 q 458 279 461 282 q 458 278 458 279 q 458 274 458 276 l 463 268 q 464 265 464 267 q 463 263 464 264 q 462 261 463 261 q 461 260 461 261 l 454 256 q 453 254 454 254 q 453 253 453 254 q 453 251 453 253 q 453 247 453 250 l 453 244 q 454 242 454 243 q 453 239 454 240 q 449 236 451 238 l 443 233 q 439 231 440 233 q 439 229 439 231 q 439 225 439 228 l 440 221 q 442 218 442 219 q 440 215 442 217 q 433 203 439 211 q 432 200 433 201 l 428 194 q 426 192 428 193 q 421 187 424 189 q 417 182 418 185 q 414 178 415 181 l 415 174 q 413 169 415 172 l 406 158 q 401 156 404 157 l 397 154 q 393 151 396 154 q 392 147 392 150 q 392 144 392 146 q 393 139 393 142 q 392 136 393 138 q 391 135 392 135 q 390 133 390 135 l 386 126 q 385 124 386 125 q 379 120 383 121 q 372 117 375 119 q 369 115 371 115 l 363 108 q 360 104 361 107 l 360 100 q 357 96 360 99 l 347 86 q 344 82 346 85 l 343 78 q 340 74 343 76 q 336 71 339 72 l 332 71 q 328 68 331 71 q 325 67 326 67 l 318 60 q 317 57 317 58 l 315 49 q 314 46 315 47 q 308 44 313 44 l 304 44 q 303 44 303 44 q 299 43 300 44 q 297 40 297 42 l 294 32 q 288 28 293 28 l 285 28 q 279 26 281 28 q 276 25 278 25 l 269 18 q 267 15 268 17 l 264 10 q 261 7 263 8 q 258 4 260 6 l 256 0 q 253 -3 256 -1 q 249 -6 251 -6 l 244 -6 q 240 -8 243 -7 q 229 -15 235 -11 q 225 -20 226 -17 q 221 -26 224 -24 q 215 -28 219 -28 l 213 -26 q 208 -28 210 -26 l 206 -28 q 201 -29 204 -29 l 199 -28 q 193 -29 196 -28 q 190 -32 193 -29 l 186 -37 q 183 -40 183 -40 q 178 -44 181 -43 q 172 -47 175 -46 l 160 -51 q 158 -52 158 -51 q 157 -53 158 -53 l 151 -56 q 150 -56 150 -56 q 149 -57 150 -57 q 147 -58 149 -58 q 143 -57 146 -58 l 139 -54 q 136 -54 138 -54 q 133 -54 135 -54 q 132 -55 132 -54 q 131 -56 132 -56 l 124 -58 q 121 -60 122 -60 q 119 -60 119 -60 q 118 -61 119 -61 l 113 -64 q 111 -65 111 -64 q 110 -65 111 -65 q 102 -68 108 -65 q 94 -72 96 -71 l 88 -72 q 85 -74 88 -74 q 82 -74 83 -74 q 75 -72 79 -74 q 65 -69 71 -69 q 61 -71 63 -69 q 58 -72 60 -72 q 56 -71 57 -72 q 49 -65 53 -71 q 43 -56 44 -58 q 43 -51 43 -53 q 50 -42 43 -44 q 52 -40 51 -42 q 56 -37 53 -39 q 61 -35 58 -35 q 63 -35 61 -35 q 65 -36 64 -36 q 69 -35 68 -36 q 71 -34 71 -35 q 72 -33 71 -33 l 79 -26 q 82 -21 82 -25 l 83 -18 q 86 -12 85 -15 q 90 -10 89 -11 l 94 -11 q 99 -8 97 -11 q 101 -6 100 -7 l 104 0 q 107 3 106 1 q 117 11 111 6 q 119 13 119 13 l 128 15 q 131 17 129 17 q 133 21 133 19 l 135 25 q 138 29 136 28 q 143 31 139 31 l 146 31 q 155 35 151 31 q 161 43 158 40 q 164 46 163 44 l 167 50 q 169 53 168 51 q 178 63 172 57 q 181 67 181 65 l 181 71 q 183 75 182 74 l 190 83 q 191 85 190 85 q 192 86 192 85 q 194 88 193 88 l 203 90 q 206 92 206 92 q 207 96 207 93 q 207 97 207 96 l 204 103 q 206 108 204 107 q 210 111 208 111 l 214 113 q 218 115 217 114 q 219 119 219 117 q 219 121 219 119 l 218 125 q 219 131 218 129 q 224 135 221 133 q 231 139 228 136 q 236 151 233 147 q 237 153 236 153 q 238 154 238 153 l 243 160 q 244 161 243 161 q 244 163 244 161 q 246 167 246 164 q 246 168 246 167 l 246 171 q 247 176 246 175 q 251 181 249 179 q 256 186 253 183 l 256 189 l 257 197 q 260 203 257 201 l 265 207 q 268 210 268 210 q 269 213 269 213 l 272 219 q 273 221 272 221 q 274 222 274 221 q 274 224 274 224 q 271 230 274 226 q 268 235 268 233 q 269 238 268 236 q 270 239 269 239 q 271 240 271 239 l 276 246 q 277 247 276 247 q 278 249 278 247 q 281 265 281 257 l 288 271 q 289 274 289 272 q 290 276 289 275 l 290 283 q 292 286 292 285 l 292 289 l 290 297 l 290 300 q 291 301 290 301 q 292 303 292 301 l 299 308 q 299 310 299 310 q 300 311 300 310 q 300 314 300 313 q 298 320 300 317 q 296 326 296 324 q 299 333 297 329 q 300 339 300 336 q 301 343 301 340 q 301 345 301 344 q 300 347 300 346 q 301 353 300 350 q 304 359 303 356 q 306 365 306 363 q 310 371 307 368 q 314 378 313 374 q 310 384 314 381 q 307 390 307 388 q 307 392 307 392 l 307 394 l 311 401 l 311 404 q 313 408 313 406 q 312 413 313 410 q 311 418 311 415 q 313 421 313 421 l 317 428 q 317 429 317 429 q 318 431 318 429 l 318 433 l 317 442 l 317 444 q 315 451 317 447 q 313 458 313 454 q 314 461 313 461 l 317 468 q 318 471 318 469 q 319 474 318 474 l 324 481 q 325 483 325 482 q 322 491 325 488 q 318 497 318 494 q 319 500 318 500 l 322 508 q 324 511 324 508 q 322 514 324 514 l 319 521 q 318 524 318 522 q 318 525 318 525 q 320 531 318 528 q 322 538 322 535 q 317 544 321 540 q 314 550 314 547 q 315 553 314 553 l 319 561 q 321 564 321 561 q 317 571 319 568 q 314 576 314 574 q 313 590 313 582 l 308 603 l 308 606 l 311 614 l 311 631 q 309 637 311 633 q 306 643 307 640 q 301 649 304 646 q 299 656 299 653 q 299 657 299 657 q 301 663 299 660 q 303 668 303 665 q 303 671 303 669 q 297 676 301 674 q 293 682 293 678 l 293 685 l 294 693 l 294 696 l 283 707 q 283 708 283 708 q 282 710 282 708 l 274 728 q 273 729 274 729 q 272 731 272 729 q 272 732 272 732 q 274 738 272 735 q 276 743 276 740 q 275 746 276 744 q 272 751 274 749 q 267 757 269 754 l 267 760 l 265 768 l 265 771 q 260 783 263 775 l 254 794 q 247 807 249 803 q 244 810 247 807 l 238 813 l 235 815 q 235 818 235 817 q 235 822 235 819 q 236 826 236 825 q 235 831 236 829 q 228 834 232 833 q 222 838 224 835 q 215 849 217 846 q 214 854 214 851 l 214 858 q 214 861 214 860 q 213 864 214 863 l 203 874 q 200 876 201 875 l 197 882 q 194 885 196 883 q 186 894 189 890 q 183 899 185 897 l 182 903 q 179 907 182 906 q 176 908 178 908 q 174 908 175 908 l 169 908 q 164 910 167 908 q 161 914 163 913 l 161 918 q 158 922 161 921 q 154 925 157 925 l 150 926 q 146 929 149 928 l 139 936 q 138 937 138 936 q 136 938 138 938 l 126 947 q 120 950 124 950 q 114 951 117 950 l 106 958 q 104 959 104 958 q 103 960 104 960 l 96 968 q 93 971 93 971 q 88 974 90 972 q 83 979 86 976 q 82 981 83 981 q 78 979 81 981 l 72 975 q 69 975 71 975 q 67 975 68 975 q 63 983 64 978 q 58 990 61 989 l 49 994 q 44 997 46 997 q 42 1001 42 997 l 42 1014 q 47 1020 43 1018 q 50 1025 50 1022 q 51 1033 51 1029 q 54 1038 51 1036 q 67 1040 63 1040 q 74 1036 71 1040 q 79 1032 76 1032 l 93 1032 q 96 1031 94 1032 l 100 1026 q 104 1025 103 1025 q 112 1024 108 1024 q 118 1022 115 1024 q 131 1019 122 1022 l 133 1019 l 142 1018 q 149 1017 144 1018 q 157 1014 154 1015 q 158 1013 158 1014 q 160 1013 158 1013 l 165 1007 q 167 1006 167 1007 q 168 1006 167 1006 l 182 1006 q 185 1004 185 1004 l 192 1001 q 197 999 194 1000 l 200 997 q 206 994 204 997 q 213 992 208 992 q 219 990 217 992 q 224 985 222 988 q 229 981 226 982 q 233 974 232 978 q 238 968 235 969 q 244 964 239 967 q 251 960 249 961 l 260 958 q 263 957 261 958 q 267 953 265 956 q 272 949 269 951 q 274 948 274 949 q 275 947 274 947 l 282 940 q 288 938 285 939 q 294 935 292 938 q 299 932 297 933 l 301 931 q 306 928 304 931 l 315 918 q 317 915 317 918 l 319 908 q 320 907 319 907 q 321 906 321 907 q 324 903 322 904 l 329 900 q 332 897 331 899 l 342 888 q 343 887 343 888 q 344 886 343 886 l 351 883 q 354 882 354 883 q 357 878 357 881 l 358 875 q 361 871 360 874 l 369 865 q 372 863 372 863 q 374 860 374 863 l 375 851 q 376 850 375 850 q 376 849 376 850 q 381 846 379 847 l 385 844 q 389 842 388 844 q 396 829 390 838 q 397 825 397 828 q 397 822 397 824 q 396 821 396 821 q 399 815 396 818 q 400 813 400 814 l 406 808 q 407 806 407 807 q 413 801 410 803 q 418 797 417 800 q 419 794 419 794 l 421 786 q 422 783 422 785 q 427 778 424 781 q 433 774 431 776 q 435 772 435 774 q 433 768 435 771 l 433 765 q 433 763 433 764 q 433 760 433 761 q 438 754 436 757 q 442 749 440 751 q 446 744 443 746 q 451 739 449 742 q 451 738 451 739 q 450 733 451 736 l 447 728 q 446 724 446 726 q 446 722 446 724 q 450 717 449 719 q 453 711 451 714 l 457 697 q 460 694 457 697 l 465 690 q 468 688 468 688 l 468 674 q 469 671 468 672 l 469 664 q 471 661 471 664 l 471 658 l 472 650 l 472 647 q 475 642 474 644 q 478 635 476 639 q 484 630 479 632 q 489 625 489 628 q 490 611 490 621 q 490 610 490 610 q 488 603 490 607 q 486 597 486 600 q 487 596 486 596 q 488 594 488 596 l 493 589 q 494 588 493 588 q 494 586 494 588 q 496 580 494 583 q 499 574 497 576 q 497 571 499 571 l 494 563 q 493 560 493 563 q 494 557 494 558 q 493 553 494 556 q 492 547 492 550 q 493 541 492 544 q 496 535 494 538 q 495 529 496 532 q 494 525 494 526 q 494 522 494 524 q 498 516 494 519 q 503 510 501 513 l 503 507 l 499 500 l 499 497 q 500 494 500 496 q 499 490 500 493 q 497 485 497 488 l 497 482 l 501 474 l 501 471 z "},"*":{"ha":456,"x_min":28,"x_max":426,"o":"m 424 808 q 426 799 426 804 q 425 793 426 796 q 418 779 425 783 q 413 778 417 778 l 408 781 q 407 781 407 781 q 403 779 404 781 q 399 773 400 778 q 396 765 399 768 q 383 760 392 763 q 371 754 379 757 q 365 751 368 751 q 358 750 361 751 l 347 739 l 335 731 q 333 730 333 731 q 331 729 332 729 l 321 725 q 317 724 318 725 q 322 721 319 722 l 328 719 q 333 717 332 719 q 339 713 336 714 q 344 711 342 713 q 347 706 347 710 l 350 703 q 353 697 351 700 q 358 694 356 696 q 363 689 360 692 q 365 688 365 688 l 374 686 q 379 682 378 686 l 388 675 q 394 674 390 674 q 401 671 399 674 q 404 668 401 671 l 411 658 q 417 651 417 654 q 418 646 417 649 q 419 642 419 643 q 418 639 419 640 q 413 636 415 636 l 410 635 q 404 632 407 635 q 403 626 403 631 l 403 622 q 403 621 403 621 q 401 617 403 618 q 396 614 400 615 l 393 613 q 388 610 390 613 l 379 597 q 378 594 378 596 l 375 588 q 374 585 375 586 q 371 579 372 583 l 372 576 q 369 571 372 574 q 367 568 369 571 l 358 561 q 347 550 350 550 q 342 549 344 549 q 331 554 336 549 q 328 558 329 557 l 326 563 q 324 567 326 565 q 321 571 322 569 l 322 575 q 319 579 322 578 q 314 581 318 581 l 311 581 q 306 582 307 581 q 296 590 300 588 q 293 592 294 592 l 290 594 q 288 596 289 596 l 288 593 l 290 589 l 290 586 q 287 581 290 583 q 283 575 283 578 q 283 574 283 575 q 285 567 283 571 q 288 561 286 564 q 289 554 289 557 q 292 547 292 549 l 294 540 q 296 538 296 540 q 297 533 297 536 q 293 526 297 531 q 292 525 293 525 q 288 527 290 525 q 283 529 286 529 l 279 529 l 272 526 l 268 526 q 254 525 260 526 l 251 525 l 243 522 l 207 522 l 199 526 l 194 526 q 188 526 192 526 q 179 525 183 525 q 172 523 175 525 q 168 521 169 521 q 165 522 167 521 q 163 528 163 525 q 163 531 163 528 q 165 538 164 533 q 164 544 165 540 q 163 551 163 547 l 163 565 q 164 568 163 568 l 167 575 q 168 578 168 576 q 167 585 168 582 q 165 592 165 589 q 169 599 165 596 q 174 606 174 603 l 165 613 q 164 610 164 611 l 157 601 q 156 599 156 600 l 153 592 q 151 589 153 590 q 146 588 150 588 l 140 589 q 139 589 139 589 q 135 588 136 589 q 133 585 133 586 l 132 578 q 131 575 132 576 l 122 567 q 113 558 117 561 q 110 557 111 557 q 108 558 108 557 q 104 561 107 558 q 99 564 103 564 q 93 567 96 564 q 90 569 92 568 l 85 574 q 82 576 83 575 q 82 579 82 578 q 83 585 82 582 q 83 589 83 588 q 82 593 83 592 q 79 596 82 593 l 71 603 q 69 609 69 606 q 65 615 68 613 q 65 617 65 617 q 64 618 64 617 l 38 646 q 35 650 35 649 q 35 651 35 650 q 36 651 36 651 q 33 656 36 653 q 35 658 35 657 q 35 661 35 660 q 35 664 35 663 q 36 668 35 667 l 49 672 l 58 682 q 61 682 60 682 q 65 681 63 682 q 69 681 68 681 q 74 682 72 681 q 78 685 76 685 l 81 686 q 85 689 83 688 l 92 696 q 93 699 93 699 q 97 701 96 701 l 100 703 q 104 706 103 704 q 108 707 106 707 q 110 707 108 707 l 113 707 q 118 708 117 707 l 132 726 q 133 727 133 726 q 135 728 133 728 q 131 731 132 731 q 126 733 129 731 q 117 742 122 736 l 110 749 q 108 749 108 749 q 107 750 108 750 q 103 753 104 751 q 99 758 101 756 q 86 764 90 761 q 81 766 83 765 q 75 769 78 767 l 64 775 q 61 776 64 776 l 56 779 q 54 780 54 779 q 53 781 54 781 q 49 787 50 782 q 46 794 49 792 q 43 796 44 796 q 40 796 42 796 l 33 794 q 28 796 31 794 q 31 799 29 797 l 35 807 q 38 810 36 808 q 42 813 40 813 l 46 814 q 50 817 49 815 q 51 821 51 818 q 51 822 51 821 l 51 826 q 53 832 51 831 q 56 833 54 833 l 64 836 q 67 838 67 838 q 69 842 69 840 l 71 844 q 74 849 72 847 q 76 855 75 851 q 79 861 76 858 q 81 864 81 864 l 83 871 q 84 872 83 872 q 85 874 85 872 l 92 881 q 94 882 94 882 q 103 892 97 886 q 108 898 106 894 q 114 901 111 901 q 118 897 117 901 q 122 890 119 893 q 128 888 125 889 l 131 888 q 136 885 135 888 q 139 879 139 883 l 140 876 q 143 871 142 874 q 146 869 146 869 l 153 865 q 156 864 154 865 q 158 861 157 863 l 161 856 q 164 853 163 854 q 165 858 165 856 q 164 864 165 861 q 165 868 165 865 q 165 870 165 868 q 164 875 164 872 q 163 878 164 876 l 160 883 q 158 886 158 885 q 157 890 157 888 q 158 894 157 892 q 158 899 158 896 q 161 911 158 903 q 169 922 161 921 q 176 925 172 925 q 182 926 179 925 q 188 923 185 926 q 196 919 192 919 l 199 919 l 206 921 l 208 921 q 214 924 211 921 q 219 929 217 928 l 222 929 l 229 928 l 232 928 q 240 926 236 928 q 246 925 243 925 q 249 926 249 925 l 256 929 q 258 931 257 931 q 261 929 261 931 l 268 926 q 271 925 269 925 q 278 926 275 925 q 283 928 281 928 q 288 926 288 928 q 287 924 288 925 q 286 918 286 922 q 289 913 288 915 q 290 906 290 910 l 290 901 l 294 894 l 294 890 q 290 884 293 888 q 286 878 286 881 l 286 874 l 290 867 l 290 863 q 286 854 289 860 q 283 846 283 849 q 290 844 288 844 q 306 850 299 844 q 307 853 307 851 l 311 857 q 313 860 313 860 q 314 863 314 861 l 318 871 q 328 878 326 876 q 332 881 331 881 l 335 882 q 339 885 338 883 q 344 892 342 888 q 349 896 346 896 q 360 888 356 893 q 368 878 363 883 q 369 875 369 876 q 369 872 369 874 l 368 867 q 369 861 368 864 q 371 860 371 861 q 372 860 371 860 l 376 856 q 379 854 379 856 q 382 851 381 853 l 386 849 q 389 846 388 847 l 396 839 q 397 838 396 838 q 397 836 397 838 q 399 833 399 836 l 403 828 q 403 826 403 826 q 404 825 404 826 q 406 822 406 825 l 407 815 q 408 814 407 814 q 408 813 408 814 q 414 810 411 811 l 418 811 q 424 808 422 811 z "}}}
